<?xml version="1.0" encoding="UTF-8" standalone="no"?>
<svg
   xmlns:dc="http://purl.org/dc/elements/1.1/"
   xmlns:cc="http://creativecommons.org/ns#"
   xmlns:rdf="http://www.w3.org/1999/02/22-rdf-syntax-ns#"
   xmlns:svg="http://www.w3.org/2000/svg"
   xmlns="http://www.w3.org/2000/svg"
   xmlns:xlink="http://www.w3.org/1999/xlink"
   xmlns:sodipodi="http://sodipodi.sourceforge.net/DTD/sodipodi-0.dtd"
   xmlns:inkscape="http://www.inkscape.org/namespaces/inkscape"
   width="576"
   height="256"
   id="svg2"
   version="1.1"
   inkscape:version="1.0.1 (3bc2e813f5, 2020-09-07)"
   sodipodi:docname="full.svg">
  <defs
     id="defs4" />
  <sodipodi:namedview
     id="base"
     pagecolor="#ffffff"
     bordercolor="#666666"
     borderopacity="1.0"
     inkscape:pageopacity="0.0"
     inkscape:pageshadow="2"
     inkscape:zoom="2.2482639"
     inkscape:cx="288"
     inkscape:cy="128"
     inkscape:document-units="px"
     inkscape:current-layer="layer1"
     showgrid="false"
     showguides="true"
     inkscape:guide-bbox="true"
     inkscape:window-width="1848"
     inkscape:window-height="1016"
     inkscape:window-x="1992"
     inkscape:window-y="27"
     inkscape:window-maximized="1"
     inkscape:document-rotation="0" />
  <metadata
     id="metadata7">
    <rdf:RDF>
      <cc:Work
         rdf:about="">
        <dc:format>image/svg+xml</dc:format>
        <dc:type
           rdf:resource="http://purl.org/dc/dcmitype/StillImage" />
        <dc:title />
      </cc:Work>
    </rdf:RDF>
  </metadata>
  <g
     inkscape:label="Network"
     inkscape:groupmode="layer"
     id="layer1"
     transform="translate(0,-796.36218)"
     style="display:inline">
    <path
       style="fill:none;stroke:#000000;stroke-width:1px;stroke-linecap:butt;stroke-linejoin:miter;stroke-opacity:1"
       d="m 108,900.36218 408,0"
       id="path3829"
       inkscape:connector-curvature="0"
       sodipodi:nodetypes="cc" />
    <path
       inkscape:connector-curvature="0"
       id="path3903"
       d="m 265.5,818.61217 c -15.87975,0 -28.78873,12.44229 -29.64063,28.10937 -15.66708,0.8519 -28.10937,13.76088 -28.10937,29.64063 0,10.12907 5.06454,19.12736 12.79687,24.5 -7.73233,5.37267 -12.79687,14.37093 -12.79687,24.5 0,16.43047 13.31953,29.75 29.75,29.75 4.36436,0 8.51599,-0.93678 12.25,-2.625 -0.007,0.29085 0,0.58198 0,0.875 0,16.43041 13.31953,29.75003 29.75,29.75003 10.10552,0 19.01389,-5.095 24.39062,-12.79689 4.9363,3.64157 11.00449,5.79689 17.60938,5.79689 16.43047,0 29.75,-13.31962 29.75,-29.75003 0,-1.78959 -0.24395,-3.54739 -0.54688,-5.25 15.87275,-0.63123 28.54688,-13.72245 28.54688,-29.75 0,-8.79841 -3.88189,-16.64705 -9.95313,-22.09375 1.88006,-3.9018 2.95313,-8.28517 2.95313,-12.90625 0,-16.43047 -13.31953,-29.75 -29.75,-29.75 -1.78959,0 -3.54743,0.24395 -5.25,0.54687 -0.63126,-15.87274 -13.72245,-28.54687 -29.75,-28.54687 -8.21523,0 -15.6163,3.3663 -21,8.75 -5.3837,-5.3837 -12.78477,-8.75 -21,-8.75 z"
       style="fill:#eef4d7;fill-opacity:1;stroke:#000000;stroke-width:1;stroke-miterlimit:4;stroke-dasharray:none;display:inline" />
    <g
       id="g3141"
       style="display:inline"
       transform="matrix(0.72707935,0,0,0.72707935,216.98127,76.80632)">
      <rect
         style="fill:#666666;stroke:#000000;stroke-width:1.37536561;stroke-miterlimit:4;stroke-dasharray:none"
         id="rect3143"
         width="44"
         height="29"
         x="27.5"
         y="163.5"
         transform="translate(0,924.36218)" />
      <rect
         style="fill:#666666;stroke:#000000;stroke-width:1.69861925;stroke-miterlimit:4;stroke-dasharray:none"
         id="rect3145"
         width="44.17627"
         height="19.089033"
         x="1313.7159"
         y="1703.3608"
         transform="matrix(1,0,-0.75510134,0.65560809,0,0)" />
      <rect
         transform="translate(0,924.36218)"
         style="fill:#f9f9f9;stroke:#000000;stroke-width:1.37536573;stroke-miterlimit:4;stroke-dasharray:none"
         id="rect3147"
         width="36.125"
         height="20.25"
         x="31.125"
         y="167.875" />
    </g>
    <path
       style="fill:#eef4d7;fill-opacity:1;stroke:#000000;stroke-width:1;stroke-miterlimit:4;stroke-dasharray:none;display:inline"
       d="m 501.5,853.86217 c -9.07414,0 -16.4507,7.10988 -16.9375,16.0625 -8.95262,0.4868 -16.0625,7.86336 -16.0625,16.9375 0,5.78804 2.89402,10.92992 7.3125,14 -4.41848,3.0701 -7.3125,8.21196 -7.3125,14 0,9.38884 7.61116,17 17,17 2.49392,0 4.86628,-0.5353 7,-1.5 -0.004,0.1662 0,0.33256 0,0.5 0,9.38881 7.61116,17.00001 17,17.00001 5.77458,0 10.86508,-2.9114 13.9375,-7.3125 2.82074,2.0809 6.28828,3.3125 10.0625,3.3125 9.38884,0 17,-7.6112 17,-17.00001 0,-1.02262 -0.1394,-2.02708 -0.3125,-3 9.07014,-0.3607 16.3125,-7.8414 16.3125,-17 0,-5.02766 -2.21822,-9.5126 -5.6875,-12.625 1.07432,-2.2296 1.6875,-4.73438 1.6875,-7.375 0,-9.38884 -7.61116,-17 -17,-17 -1.02262,0 -2.0271,0.1394 -3,0.3125 -0.36072,-9.07014 -7.8414,-16.3125 -17,-16.3125 -4.69442,0 -8.9236,1.9236 -12,5 -3.0764,-3.0764 -7.30558,-5 -12,-5 z"
       id="path4188"
       inkscape:connector-curvature="0" />
    <use
       x="0"
       y="0"
       xlink:href="#g3141"
       id="use3813"
       width="512"
       height="256"
       transform="translate(40,0)" />
    <use
       x="0"
       y="0"
       xlink:href="#g3141"
       id="use3817"
       transform="translate(80,0)"
       width="512"
       height="256" />
    <use
       height="256"
       width="512"
       transform="translate(20,34)"
       id="use3819"
       xlink:href="#g3141"
       y="0"
       x="0" />
    <text
       xml:space="preserve"
       style="font-style:normal;font-weight:normal;line-height:0%;font-family:sans-serif;letter-spacing:0px;word-spacing:0px;fill:#000000;fill-opacity:1;stroke:none"
       x="496.2334"
       y="906.36218"
       id="text3343"><tspan
         sodipodi:role="line"
         id="tspan3345"
         x="496.2334"
         y="906.36218"
         style="font-size:18px;line-height:1.25;font-family:sans-serif">IPv4</tspan></text>
    <g
       id="g3150"
       transform="translate(-131.99997,127.09375)">
      <path
         sodipodi:nodetypes="cczccc"
         inkscape:connector-curvature="0"
         id="path3789"
         d="m 272.5,764.42468 0,19.84375 c 0,9.52811 12.85831,14.5 23.59375,14.5 10.73544,0 23.46875,-6.29616 23.46875,-16.15625 l 0,-18.1875 z"
         style="fill:#008080;stroke:#000000;stroke-width:1;stroke-miterlimit:4;stroke-opacity:1;stroke-dasharray:none" />
      <path
         transform="matrix(0.48595445,0,0,0.29851852,260.00403,694.04082)"
         d="m 122.85714,235.21933 c 0,26.82526 -21.74617,48.57143 -48.571427,48.57143 -26.82526,0 -48.57143,-21.74617 -48.57143,-48.57143 0,-26.82526 21.74617,-48.57143 48.57143,-48.57143 26.825257,0 48.571427,21.74617 48.571427,48.57143 z"
         sodipodi:ry="48.57143"
         sodipodi:rx="48.57143"
         sodipodi:cy="235.21933"
         sodipodi:cx="74.285713"
         id="path3771"
         style="fill:#008080;stroke:#000000;stroke-width:2.62552762;stroke-miterlimit:4;stroke-opacity:1;stroke-dasharray:none"
         sodipodi:type="arc" />
      <path
         sodipodi:nodetypes="cc"
         inkscape:connector-curvature="0"
         id="path3800"
         d="m 283,757.36218 25,10"
         style="fill:none;stroke:#ffffff;stroke-width:1px;stroke-linecap:butt;stroke-linejoin:miter;stroke-opacity:1" />
      <path
         sodipodi:nodetypes="cc"
         inkscape:connector-curvature="0"
         id="path3802"
         d="m 308,757.36218 -25,10"
         style="fill:none;stroke:#ffffff;stroke-width:1px;stroke-linecap:butt;stroke-linejoin:miter;stroke-opacity:1" />
    </g>
    <use
       x="0"
       y="0"
       xlink:href="#path4188"
       id="use3436"
       transform="translate(-454,0)"
       width="512"
       height="256" />
    <text
       id="text3438"
       y="906.36218"
       x="44.233398"
       style="font-style:normal;font-weight:normal;line-height:0%;font-family:sans-serif;letter-spacing:0px;word-spacing:0px;fill:#000000;fill-opacity:1;stroke:none"
       xml:space="preserve"><tspan
         y="906.36218"
         x="44.233398"
         id="tspan3440"
         sodipodi:role="line"
         style="font-size:18px;line-height:1.25;font-family:sans-serif">IPv6</tspan></text>
    <text
       xml:space="preserve"
       style="font-style:normal;font-weight:normal;line-height:0%;font-family:sans-serif;letter-spacing:0px;word-spacing:0px;fill:#000000;fill-opacity:1;stroke:none"
       x="430.04688"
       y="908.36218"
       id="text3015"><tspan
         sodipodi:role="line"
         id="tspan3017"
         x="430.04688"
         y="908.36218"
         style="font-size:16px;line-height:1.25;font-family:sans-serif">T</tspan></text>
    <text
       xml:space="preserve"
       style="font-style:normal;font-weight:normal;line-height:0%;font-family:sans-serif;letter-spacing:0px;word-spacing:0px;fill:#ffffff;fill-opacity:1;stroke:none"
       x="158.42969"
       y="920.36218"
       id="text3019"><tspan
         sodipodi:role="line"
         id="tspan3021"
         x="158.42969"
         y="920.36218"
         style="font-size:16px;line-height:1.25;font-family:sans-serif">R</tspan></text>
    <text
       xml:space="preserve"
       style="font-style:normal;font-weight:normal;line-height:0%;font-family:sans-serif;letter-spacing:0px;word-spacing:0px;fill:#000000;fill-opacity:1;stroke:none"
       x="247.89062"
       y="883.36218"
       id="text3023"><tspan
         sodipodi:role="line"
         id="tspan3025"
         x="247.89062"
         y="883.36218"
         style="font-size:14px;line-height:1.25;font-family:sans-serif">A</tspan></text>
    <text
       id="text3027"
       y="883.36218"
       x="287.89062"
       style="font-style:normal;font-weight:normal;line-height:0%;font-family:sans-serif;letter-spacing:0px;word-spacing:0px;fill:#000000;fill-opacity:1;stroke:none"
       xml:space="preserve"><tspan
         y="883.36218"
         x="287.89062"
         id="tspan3029"
         sodipodi:role="line"
         style="font-size:14px;line-height:1.25;font-family:sans-serif">B</tspan></text>
    <text
       xml:space="preserve"
       style="font-style:normal;font-weight:normal;line-height:0%;font-family:sans-serif;letter-spacing:0px;word-spacing:0px;fill:#000000;fill-opacity:1;stroke:none"
       x="327.89062"
       y="883.36218"
       id="text3031"><tspan
         sodipodi:role="line"
         id="tspan3033"
         x="327.89062"
         y="883.36218"
         style="font-size:14px;line-height:1.25;font-family:sans-serif">C</tspan></text>
    <text
       id="text3035"
       y="917.36218"
       x="267.89062"
       style="font-style:normal;font-weight:normal;line-height:0%;font-family:sans-serif;letter-spacing:0px;word-spacing:0px;fill:#000000;fill-opacity:1;stroke:none"
       xml:space="preserve"><tspan
         y="917.36218"
         x="267.89062"
         id="tspan3037"
         sodipodi:role="line"
         style="font-size:14px;line-height:1.25;font-family:sans-serif">D</tspan></text>
    <use
       x="0"
       y="0"
       xlink:href="#use3819"
       id="use3885"
       transform="translate(40,0)"
       width="512"
       height="256" />
    <text
       xml:space="preserve"
       style="font-style:normal;font-weight:normal;line-height:0%;font-family:sans-serif;letter-spacing:0px;word-spacing:0px;fill:#000000;fill-opacity:1;stroke:none"
       x="307.89062"
       y="917.36218"
       id="text3887"><tspan
         sodipodi:role="line"
         id="tspan3889"
         x="307.89062"
         y="917.36218"
         style="font-size:14px;line-height:1.25;font-family:sans-serif">E</tspan></text>
    <text
       xml:space="preserve"
       style="font-style:normal;font-weight:normal;line-height:0%;font-family:sans-serif;letter-spacing:0px;word-spacing:0px;fill:#000000;fill-opacity:1;stroke:none"
       x="217.22841"
       y="1018.7802"
       id="text3028"><tspan
         sodipodi:role="line"
         id="tspan3030"
         x="217.22841"
         y="1018.7802"
         style="font-size:12px;line-height:1.25;font-family:sans-serif">&lt;Your (IPv6) network(s)&gt;</tspan></text>
    <text
       id="text3032"
       y="1020.1923"
       x="7.2284088"
       style="font-style:normal;font-weight:normal;line-height:0%;font-family:sans-serif;letter-spacing:0px;word-spacing:0px;fill:#000000;fill-opacity:1;stroke:none"
       xml:space="preserve"><tspan
         y="1020.1923"
         x="7.2284088"
         id="tspan3034"
         sodipodi:role="line"
         style="font-size:12px;line-height:1.25;font-family:sans-serif">&lt;More IPv6 infrastructure&gt;</tspan></text>
    <text
       id="text3036"
       y="1020.1923"
       x="465.22839"
       style="font-style:normal;font-weight:normal;line-height:0%;font-family:sans-serif;letter-spacing:0px;word-spacing:0px;fill:#000000;fill-opacity:1;stroke:none"
       xml:space="preserve"><tspan
         y="1020.1923"
         x="465.22839"
         id="tspan3038"
         sodipodi:role="line"
         style="font-size:12px;line-height:1.25;font-family:sans-serif">&lt;IPv4 Internet&gt;</tspan></text>
    <g
       id="g1032"
       transform="translate(167.9878,-43.999875)"
       style="display:inline">
      <path
         inkscape:connector-curvature="0"
         id="rect4226-3"
         d="m 262.57229,916.77707 -30,9 v 40 l 30,-9 20,6 v -40 z"
         style="display:inline;fill:#e3dedb;stroke:#000000;stroke-width:1;stroke-miterlimit:4;stroke-dasharray:none;stroke-dashoffset:0;stroke-opacity:1" />
      <rect
         transform="matrix(0.95782629,0.28734789,0,1,0,0)"
         y="856.01819"
         x="242.81261"
         height="40"
         width="20.880613"
         id="rect4208-6"
         style="display:inline;fill:#ffe680;stroke:#000000;stroke-width:1.16952;stroke-miterlimit:4;stroke-dasharray:none;stroke-dashoffset:0;stroke-opacity:1" />
      <rect
         style="display:inline;fill:#e3dedb;stroke:#000000;stroke-width:1.02178;stroke-miterlimit:4;stroke-dasharray:none;stroke-dashoffset:0;stroke-opacity:1"
         id="rect4210-7"
         width="31.320919"
         height="40"
         x="263.69321"
         y="1007.5616"
         transform="matrix(0.95782629,-0.28734789,0,1,0,0)" />
      <rect
         style="display:inline;fill:#e3dedb;stroke:#000000;stroke-width:1.02178;stroke-miterlimit:4;stroke-dasharray:none;stroke-dashoffset:0;stroke-opacity:1"
         id="rect4234-5"
         width="20.880613"
         height="40"
         x="242.81261"
         y="856.01819"
         transform="matrix(0.95782629,0.28734789,0,1,0,0)" />
      <rect
         transform="matrix(0.95782629,0.28734789,0,1,0,0)"
         y="862.38037"
         x="245.42267"
         height="3"
         width="15.66046"
         id="rect4236-3"
         style="display:inline;fill:none;stroke:#000000;stroke-width:1.02178;stroke-miterlimit:4;stroke-dasharray:none;stroke-dashoffset:0;stroke-opacity:1" />
      <rect
         style="display:inline;fill:none;stroke:#000000;stroke-width:1.02178;stroke-miterlimit:4;stroke-dasharray:none;stroke-dashoffset:0;stroke-opacity:1"
         id="rect4238-5"
         width="15.66046"
         height="3"
         x="245.42267"
         y="868.38037"
         transform="matrix(0.95782629,0.28734789,0,1,0,0)" />
      <rect
         transform="matrix(0.95782629,0.28734789,0,1,0,0)"
         y="891.38037"
         x="245.42267"
         height="2"
         width="15.66046"
         id="rect4240-6"
         style="display:inline;fill:none;stroke:#000000;stroke-width:1.02178;stroke-miterlimit:4;stroke-dasharray:none;stroke-dashoffset:0;stroke-opacity:1" />
      <text
         id="text3880"
         y="1031.3409"
         x="267.25098"
         style="font-style:normal;font-weight:normal;font-size:14px;line-height:125%;font-family:Sans;text-align:center;letter-spacing:0px;word-spacing:0px;text-anchor:middle;fill:#000000;fill-opacity:1;stroke:none"
         xml:space="preserve"
         transform="skewY(-16.580003)"><tspan
           y="1031.3409"
           x="267.25098"
           id="tspan3882"
           sodipodi:role="line">T</tspan></text>
    </g>
  </g>
</svg>
