<?xml version="1.0" standalone="no"?>
<!DOCTYPE svg PUBLIC "-//W3C//DTD SVG 1.1//EN" "http://www.w3.org/Graphics/SVG/1.1/DTD/svg11.dtd">
<svg width="100%" height="100%" viewBox="0 0 560 560" version="1.1" xmlns="http://www.w3.org/2000/svg" xmlns:xlink="http://www.w3.org/1999/xlink" xml:space="preserve" style="fill-rule:evenodd;clip-rule:evenodd;stroke-linejoin:round;stroke-miterlimit:1.41421;">
    <g transform="matrix(4.28461,-1.97215e-31,0,4.28461,-170.015,-119.847)">
        <path d="M88.046,139.252C92.722,138.769 93.339,133.821 91.137,131.66C89.323,129.881 79.312,122.449 76.7,119.527C75.487,118.171 73.844,117.506 73.148,115.982C71.547,112.476 70.425,107.472 72.456,103.88C72.824,103.23 73.06,103.521 72.779,104.874C71.184,112.542 76.176,118.804 77.275,115.592C78.034,113.374 77.331,109.404 77.736,106.251C78.454,100.673 83.532,89.962 85.762,89.35C82.322,82.978 89.796,77.991 89.705,72.398C89.645,68.762 92.899,76.87 96.17,78.589C99.822,80.509 103.836,74.971 109.534,72.161C111.147,71.367 113.214,70.453 113.075,69.775C112.406,66.506 105.591,73.809 99.504,74.055C96.725,74.166 95.695,73.509 94.622,72.473C91.377,69.337 94.952,71.954 99.775,71.082C101.919,70.693 102.639,70.336 104.914,69.417C107.189,68.498 109.789,67.137 112.362,66.438C114.154,65.95 114.005,64.604 113.308,64.2C112.906,63.967 112.312,63.989 111.841,64.804C110.736,66.714 105.543,67.818 103.923,68.313C101.841,68.95 99.539,69.545 96.481,69.42C91.835,69.232 92.918,67.102 89.594,65.196C88.62,64.638 88.883,63.171 90.178,61.875C90.856,61.196 92.715,60.813 93.637,59.269C93.767,59.053 94.955,57.81 95.887,57.166C96.209,56.943 96.237,51.271 93.326,51.154C90.853,51.054 90.15,52.971 90.254,54.881C90.357,56.79 91.369,58.365 92.043,58.358C93.34,58.344 92.125,59.777 91.414,60.008C90.334,60.36 88.854,55.757 89.024,53.547C89.202,51.246 90.401,47.169 93.315,47.248C95.938,47.319 97.839,50.609 97.744,56.282C97.727,57.244 101.998,55.823 103.423,57.329C104.442,58.406 99.931,47.277 109.975,46.511C112.623,47.017 115.163,47.897 116.22,53.981C115.829,54.615 116.879,58.859 115.245,59.363C113.252,59.978 112.021,59.273 113.173,57.375C113.962,55.469 113.192,50.618 109.158,50.91C105.123,51.2 105.659,58.36 106.764,58.501C107.87,58.642 110.656,60.619 112.6,60.998C118.983,62.241 114.293,65.899 115.122,70.328C116.058,75.33 119.352,74.009 122.314,87.255C122.933,88.061 125.385,88.825 127.775,99.001C129.925,108.156 126.881,114.814 132.05,114.267C133.214,114.144 134.916,113.818 135.656,111.225C137.59,104.444 134.686,96.365 131.755,90.912C130.048,87.734 128.44,85.569 127.591,84.825C130.95,86.811 135.245,93.153 136.236,97.862C137.538,104.048 138.467,106.666 136.498,113.207C137.634,113.775 140.463,114.977 140.463,116.326C137.517,113.904 128.497,113.474 128.265,119.266C126.727,119.297 125.563,119.422 124.573,120.598C120.946,124.899 124.313,133.542 123.946,138.176C123.623,142.254 122.492,146.294 121.854,150.391C119.695,150.309 119.906,148.728 120.598,146.512C121.209,144.556 122.195,142.105 122.259,139.755C122.318,137.628 122.085,136.3 121.55,135.97C121.013,135.639 120.173,136.309 119.013,138.177C116.536,142.166 111.171,143.92 106.161,144.548C101.151,145.176 96.495,144.678 94.029,141.915C93.186,140.971 91.787,142.173 91.621,142.424C91.398,142.76 92.437,143.413 93.22,144.849C94.364,146.947 95.451,150.131 92.742,151.584C92.774,144.198 90.436,143.766 88.046,139.252ZM86.256,139.056C88.051,141.882 94.377,153.781 83.288,155.325C79.579,155.841 73.608,153.167 67.822,151.751C62.624,150.48 57.345,149.727 54.391,148.897C52.612,148.398 51.869,147.759 51.714,147.014C51.304,145.039 53.874,142.269 54.004,139.931C54.134,137.592 53.151,136.377 52.346,134.47C51.539,132.557 51.329,131.125 51.975,130.305C52.477,129.667 53.497,129.4 55.156,129.563C57.26,129.77 59.8,129.339 61.165,128.507C63.464,127.104 64.545,124.23 63.511,120.768C63.511,124.156 62.4,125.439 59.614,126.989C56.989,128.45 52.937,127.268 51.075,128.884C48.834,130.829 51.875,135.849 51.626,139.533C51.435,142.365 48.48,145.555 49.798,148.395C51.124,151.251 57.305,151.563 63.751,152.91C72.912,154.827 78.254,158.163 82.487,158.32C88.662,158.55 89.608,152.21 99.304,152.125C102.132,151.976 104.898,151.888 107.661,151.853C110.792,151.814 113.92,151.839 117.131,151.917C123.583,152.073 121.364,155.44 125.551,157.591C129.083,159.406 135.433,158.69 136.952,157.24C139.008,155.28 144.528,150.562 148.757,148.432C154.03,145.774 166.408,141.202 157.421,135.626C155.327,134.327 150.375,132.952 149.958,123.447C148.084,125.113 148.3,133.971 153.532,135.728C159.377,137.691 163.028,140.979 152.163,144.694C144.969,147.154 143.747,147.912 138.051,152.653C132.289,157.449 123.737,155.544 125.231,145.445C126.009,140.183 126.456,135.835 125.147,131.262C124.508,129.028 124.19,126.163 124.627,124.152C125.476,120.244 127.592,119.067 129.665,122.82C130.967,125.175 131.423,127.928 136.083,128.152C143.403,128.502 144.853,121.077 147.193,120.74C148.754,120.515 150.313,116.098 149.125,108.953C147.852,101.304 143.351,89.226 137.579,83.101C132.782,78.01 129.759,73.547 127.858,67.177C126.26,61.825 125.368,56.616 125.696,51.636C126.123,45.183 122.545,36.204 116.848,31.979C113.281,29.334 107.689,27.917 102.627,27.973C99.789,28.004 97.117,28.418 95.064,29.533C86.614,34.119 85.435,40.671 85.561,48.149C85.679,55.174 85.919,63.19 86.717,70.816C85.772,74.317 80.853,80.955 77.703,84.994C73.468,89.177 71.33,97.263 68.589,104.326C67.127,108.092 64.665,109.793 64.458,114.635C64.4,115.989 64.447,119.492 65.741,118.49C70.694,114.659 76.893,124.318 86.256,139.056ZM111.964,37.805C111.698,38.603 110.599,39.268 111.296,39.827C111.994,40.386 112.394,39.046 113.799,38.544C114.161,38.414 115.849,38.598 116.159,37.796C116.295,37.446 115.289,37.047 114.69,36.474C114.091,35.902 113.504,35.393 112.94,35.429C111.486,35.522 112.201,37.098 111.964,37.805ZM120.572,66.932C121.096,66.384 121.365,67.88 122.771,68.767C123.886,69.471 124.97,68.95 125.252,70.375C125.453,71.397 124.816,72.505 123.959,72.361C122.468,72.11 119.026,68.556 120.572,66.932ZM97.34,57.944C95.024,57.771 94.865,59.446 95.632,59.418C96.415,59.39 95.934,58.093 97.34,57.944ZM93.367,53.665C93.641,53.606 94.03,54.072 93.91,54.726C93.741,55.634 93.814,56.203 94.444,56.205C94.547,56.205 94.659,56.186 94.699,55.95C95.001,54.141 94.061,52.813 93.677,52.715C92.791,52.489 92.899,53.766 93.367,53.665ZM110.23,52.9C110.818,53.075 111.384,54.093 111.507,55.192C111.518,55.294 112.275,55.034 112.281,54.794C112.329,53.024 110.819,52.193 110.423,52.229C109.514,52.311 109.77,52.763 110.23,52.9ZM101.586,58.159C103.693,57.183 104.43,58.696 103.702,58.939C102.96,59.187 102.954,57.804 101.586,58.159ZM76.143,94.051C75.147,93.931 76.433,93.183 76.978,92.241C77.577,91.206 77.461,89.913 78.091,90.103C78.72,90.294 78.37,91.018 77.939,92.205C77.571,93.216 76.51,94.096 76.143,94.051Z" style="fill:white;"/>
    </g>
</svg>
