<?xml version="1.0" encoding="UTF-8" standalone="no"?>
<!-- Created with Inkscape (http://www.inkscape.org/) -->

<svg
   xmlns:dc="http://purl.org/dc/elements/1.1/"
   xmlns:cc="http://creativecommons.org/ns#"
   xmlns:rdf="http://www.w3.org/1999/02/22-rdf-syntax-ns#"
   xmlns:svg="http://www.w3.org/2000/svg"
   xmlns="http://www.w3.org/2000/svg"
   xmlns:sodipodi="http://sodipodi.sourceforge.net/DTD/sodipodi-0.dtd"
   xmlns:inkscape="http://www.inkscape.org/namespaces/inkscape"
   width="256"
   height="256"
   id="svg3006"
   version="1.1"
   inkscape:version="0.48.4 r9939"
   sodipodi:docname="hbet.svg">
  <defs
     id="defs3008" />
  <sodipodi:namedview
     id="base"
     pagecolor="#ffffff"
     bordercolor="#666666"
     borderopacity="1.0"
     inkscape:pageopacity="0.0"
     inkscape:pageshadow="2"
     inkscape:zoom="3.8203125"
     inkscape:cx="81.93047"
     inkscape:cy="128"
     inkscape:document-units="px"
     inkscape:current-layer="layer1"
     showgrid="true"
     inkscape:snap-bbox="true"
     inkscape:snap-bbox-midpoints="true"
     inkscape:window-width="1920"
     inkscape:window-height="1148"
     inkscape:window-x="0"
     inkscape:window-y="24"
     inkscape:window-maximized="1">
    <inkscape:grid
       type="xygrid"
       id="grid3021"
       empspacing="8"
       visible="true"
       enabled="true"
       snapvisiblegridlinesonly="true"
       spacingx="8px"
       spacingy="8px" />
  </sodipodi:namedview>
  <metadata
     id="metadata3011">
    <rdf:RDF>
      <cc:Work
         rdf:about="">
        <dc:format>image/svg+xml</dc:format>
        <dc:type
           rdf:resource="http://purl.org/dc/dcmitype/StillImage" />
        <dc:title />
      </cc:Work>
    </rdf:RDF>
  </metadata>
  <g
     inkscape:label="Layer 1"
     inkscape:groupmode="layer"
     id="layer1"
     transform="translate(0,-796.36218)">
    <path
       style="fill:none;stroke:#000000;stroke-width:1px;stroke-linecap:butt;stroke-linejoin:miter;stroke-opacity:1"
       d="m 96,828.36218 112,0 0,176.00002"
       id="path3850"
       inkscape:connector-curvature="0"
       sodipodi:nodetypes="ccc" />
    <path
       style="fill:none;stroke:#000000;stroke-width:1px;stroke-linecap:butt;stroke-linejoin:miter;stroke-opacity:1"
       d="m 136,828.36218 0,72 -32,0"
       id="path3852"
       inkscape:connector-curvature="0"
       sodipodi:nodetypes="ccc" />
    <path
       style="fill:#eef4d7;fill-opacity:1;stroke:#000000;stroke-width:1;stroke-miterlimit:4;stroke-dasharray:none;display:inline"
       d="m 184,957.36216 c -9.07414,0 -16.4507,7.10987 -16.9375,16.06247 -8.95262,0.4868 -16.0625,7.86339 -16.0625,16.9376 0,5.788 2.89402,10.92987 7.3125,13.99997 -4.41848,3.0701 -7.3125,8.212 -7.3125,14 0,9.3887 7.61116,17 17,17 2.49392,0 4.86628,-0.5353 7,-1.5 -0.004,0.1662 0,0.3325 0,0.5 0,9.3888 7.61116,17 17,17 5.77458,0 10.86508,-2.9114 13.9375,-7.3125 2.82074,2.0809 6.28828,3.3125 10.0625,3.3125 9.38884,0 17,-7.6112 17,-17 0,-1.0226 -0.1394,-2.0272 -0.3125,-3.0001 9.07014,-0.3607 16.3125,-7.8413 16.3125,-16.9999 0,-5.0277 -2.21822,-9.5126 -5.6875,-12.62497 1.07432,-2.2296 1.6875,-4.7344 1.6875,-7.375 0,-9.3889 -7.61116,-17.0001 -17,-17.0001 -1.02262,0 -2.0271,0.1394 -3,0.3125 -0.36072,-9.0701 -7.8414,-16.31247 -17,-16.31247 -4.69442,0 -8.9236,1.9236 -12,4.99997 -3.0764,-3.07637 -7.30558,-4.99997 -12,-4.99997 z"
       id="path4188"
       inkscape:connector-curvature="0" />
    <path
       style="fill:none;stroke:#000000;stroke-width:2;stroke-linecap:butt;stroke-linejoin:miter;stroke-miterlimit:4;stroke-opacity:1;stroke-dasharray:none;stroke-dashoffset:0"
       d="m 8,804.36218 240,-2e-5 0,136.00002 -240,0 z"
       id="rect3023"
       inkscape:connector-curvature="0"
       sodipodi:nodetypes="ccccc" />
    <path
       style="fill:none;stroke:#ff2a2a;stroke-width:1;stroke-linecap:butt;stroke-linejoin:miter;stroke-miterlimit:4;stroke-opacity:1;stroke-dasharray:1,2;stroke-dashoffset:0"
       d="m 16,868.36216 160,0 0,56.00002 -160,0 z"
       id="rect3797"
       inkscape:connector-curvature="0"
       sodipodi:nodetypes="ccccc" />
    <path
       sodipodi:nodetypes="ccccc"
       inkscape:connector-curvature="0"
       id="path3803"
       d="m 104.5,860.86218 64,0 0,16 -64,0 z"
       style="fill:#ffff00;stroke:#000000;stroke-width:1;stroke-linecap:butt;stroke-linejoin:miter;stroke-miterlimit:4;stroke-opacity:1;stroke-dashoffset:0" />
    <path
       style="fill:#ffff00;stroke:#000000;stroke-width:1;stroke-linecap:butt;stroke-linejoin:miter;stroke-miterlimit:4;stroke-opacity:1;stroke-dashoffset:0"
       d="m 175.5,932.86218 64,0 0,16 -64,0 z"
       id="path3805"
       inkscape:connector-curvature="0"
       sodipodi:nodetypes="ccccc" />
    <path
       style="fill:none;stroke:#000000;stroke-width:1;stroke-linecap:butt;stroke-linejoin:miter;stroke-miterlimit:4;stroke-opacity:1;stroke-dashoffset:0"
       d="m 16,812.36218 80,0 0,32 -80,0 z"
       id="rect3807"
       inkscape:connector-curvature="0"
       sodipodi:nodetypes="ccccc" />
    <path
       style="fill:#ffff00;stroke:#000000;stroke-width:1;stroke-linecap:butt;stroke-linejoin:miter;stroke-miterlimit:4;stroke-opacity:1;stroke-dashoffset:0"
       d="m 104.5,836.86218 64,0 0,16 -64,0 z"
       id="path3810"
       inkscape:connector-curvature="0"
       sodipodi:nodetypes="ccccc" />
    <path
       style="fill:#ffffff;stroke:#000000;stroke-width:1;stroke-linecap:butt;stroke-linejoin:miter;stroke-miterlimit:4;stroke-opacity:1;stroke-dashoffset:0"
       d="m 24,884.36218 80,0 0,32 -80,0 z"
       id="rect3812"
       inkscape:connector-curvature="0"
       sodipodi:nodetypes="ccccc" />
    <text
       xml:space="preserve"
       style="font-size:12px;font-style:normal;font-weight:normal;text-align:center;line-height:125%;letter-spacing:0px;word-spacing:0px;text-anchor:middle;fill:#000000;fill-opacity:1;stroke:none;font-family:Sans"
       x="64.870117"
       y="903.7196"
       id="text3815"
       sodipodi:linespacing="125%"><tspan
         sodipodi:role="line"
         id="tspan3817"
         x="64.870117"
         y="903.7196">Jool</tspan></text>
    <text
       xml:space="preserve"
       style="font-size:12px;font-style:normal;font-weight:normal;text-align:center;line-height:125%;letter-spacing:0px;word-spacing:0px;text-anchor:middle;fill:#000000;fill-opacity:1;stroke:none;font-family:Sans"
       x="208.07031"
       y="944.83582"
       id="text3819"
       sodipodi:linespacing="125%"><tspan
         sodipodi:role="line"
         id="tspan3821"
         x="208.07031"
         y="944.83582">eth0</tspan></text>
    <text
       xml:space="preserve"
       style="font-size:12px;font-style:normal;font-weight:normal;line-height:125%;letter-spacing:0px;word-spacing:0px;fill:#000000;fill-opacity:1;stroke:none;font-family:Sans"
       x="187.03027"
       y="1008.7303"
       id="text3823"
       sodipodi:linespacing="125%"><tspan
         sodipodi:role="line"
         id="tspan3825"
         x="187.03027"
         y="1008.7303">IPv6</tspan></text>
    <text
       xml:space="preserve"
       style="font-size:12px;font-style:normal;font-weight:normal;line-height:125%;letter-spacing:0px;word-spacing:0px;fill:#000000;fill-opacity:1;stroke:none;font-family:Sans"
       x="44.5625"
       y="831.48816"
       id="text3854"
       sodipodi:linespacing="125%"><tspan
         sodipodi:role="line"
         id="tspan3856"
         x="44.5625"
         y="831.48816">App</tspan></text>
    <text
       xml:space="preserve"
       style="font-size:12px;font-style:normal;font-weight:normal;text-align:center;line-height:125%;letter-spacing:0px;word-spacing:0px;text-anchor:middle;fill:#000000;fill-opacity:1;stroke:none;font-family:Sans"
       x="136.39844"
       y="847.50574"
       id="text3858"
       sodipodi:linespacing="125%"><tspan
         sodipodi:role="line"
         id="tspan3860"
         x="136.39844"
         y="847.50574">to_jool</tspan></text>
    <text
       xml:space="preserve"
       style="font-size:12px;font-style:normal;font-weight:normal;text-align:center;line-height:125%;letter-spacing:0px;word-spacing:0px;text-anchor:middle;fill:#000000;fill-opacity:1;stroke:none;font-family:Sans"
       x="136.38379"
       y="871.50574"
       id="text3862"
       sodipodi:linespacing="125%"><tspan
         sodipodi:role="line"
         id="tspan3864"
         x="136.38379"
         y="871.50574">to_world</tspan></text>
  </g>
</svg>
