<svg xmlns="http://www.w3.org/2000/svg" width="100" height="100" preserveAspectRatio="xMidYMid meet" viewBox="0 0 100 100"><path d="M69.773 93.673a4.75 4.75 0 0 1-4.745-4.744v-14.86a4.75 4.75 0 0 1 4.745-4.744h1.622v-1.623c0-3.787 3.081-6.868 6.868-6.868s6.868 3.081 6.868 6.868v1.623h1.624a4.75 4.75 0 0 1 4.744 4.744v14.86a4.75 4.75 0 0 1-4.744 4.744H69.773zm10.114-24.349v-1.623c0-.896-.729-1.624-1.623-1.624s-1.623.729-1.623 1.624v1.623h3.246zM23.5 86.5c-7.168 0-13-5.832-13-13s5.832-13 13-13H43v-6.888a11.69 11.69 0 0 1-8.75-11.362c0-6.478 5.271-11.749 11.75-11.749s11.75 5.272 11.75 11.751A11.69 11.69 0 0 1 49 53.612V60.5h19v4.488l-2.877.067a4.285 4.285 0 0 0-4.29 4.278V86.5H23.5zm57.5-40c-1.654 0-3-1.346-3-3 0-17.645-14.355-32-32-32s-32 14.355-32 32c0 1.654-1.346 3-3 3s-3-1.346-3-3c0-20.953 17.047-38 38-38s38 17.047 38 38c0 1.654-1.346 3-3 3zm-12.5 0c-1.654 0-3-1.346-3-3C65.5 32.748 56.752 24 46 24s-19.5 8.748-19.5 19.5c0 1.654-1.346 3-3 3s-3-1.346-3-3C20.5 29.439 31.939 18 46 18s25.5 11.439 25.5 25.5c0 1.654-1.346 3-3 3z"/><path fill="#999" d="M46 6c20.711 0 37.5 16.79 37.5 37.5a2.5 2.5 0 1 1-5 0C78.5 25.551 63.949 11 46 11S13.5 25.551 13.5 43.5a2.5 2.5 0 1 1-5 0C8.5 22.79 25.29 6 46 6m0 12.5c13.807 0 25 11.193 25 25a2.5 2.5 0 1 1-5 0c0-11.046-8.954-20-20-20s-20 8.954-20 20a2.5 2.5 0 1 1-5 0c0-13.807 11.193-25 25-25m0 12.501h.002a11.251 11.251 0 0 1 2.499 22.219V61h19v3.5l-2.389.056a4.777 4.777 0 0 0-4.778 4.778V86H23.5C16.596 86 11 80.404 11 73.5S16.596 61 23.5 61h20v-7.779a11.253 11.253 0 0 1-8.75-10.971c0-6.212 5.037-11.249 11.25-11.249m32.264 30.332a6.367 6.367 0 0 1 6.368 6.368v2.123h2.124A4.243 4.243 0 0 1 91 74.068v14.86c0 2.344-1.9 4.244-4.244 4.244H69.773a4.244 4.244 0 0 1-4.245-4.244v-14.86c0-2.345 1.9-4.244 4.245-4.244h2.122v-2.123a6.37 6.37 0 0 1 6.369-6.368m-2.123 8.491h4.246v-2.123a2.123 2.123 0 1 0-4.246 0v2.123M46 5C24.771 5 7.5 22.271 7.5 43.5c0 1.93 1.57 3.5 3.5 3.5s3.5-1.57 3.5-3.5C14.5 26.131 28.631 12 46 12s31.5 14.131 31.5 31.5c0 1.93 1.57 3.5 3.5 3.5s3.5-1.57 3.5-3.5C84.5 22.271 67.229 5 46 5zm0 12.5c-14.336 0-26 11.664-26 26 0 1.93 1.57 3.5 3.5 3.5s3.5-1.57 3.5-3.5c0-10.477 8.523-19 19-19s19 8.523 19 19c0 1.93 1.57 3.5 3.5 3.5s3.5-1.57 3.5-3.5c0-14.336-11.663-26-26-26zm.001 12.501H46c-6.754 0-12.249 5.495-12.25 12.249 0 5.484 3.559 10.203 8.75 11.742V60h-19C16.056 60 10 66.056 10 73.5S16.056 87 23.5 87h37.833V69.334a3.783 3.783 0 0 1 3.778-3.778l2.412-.056.977-.023V60h-19v-6.008a12.186 12.186 0 0 0 8.75-11.74c0-6.754-5.495-12.25-12.249-12.251zm32.263 30.332c-4.063 0-7.368 3.306-7.368 7.368v1.123h-1.122a5.25 5.25 0 0 0-5.245 5.244v14.86a5.25 5.25 0 0 0 5.245 5.244h16.982A5.25 5.25 0 0 0 92 88.928v-14.86a5.25 5.25 0 0 0-5.244-5.244h-1.124v-1.123c0-4.062-3.306-7.368-7.368-7.368zm-1.123 8.491v-1.123c0-.62.504-1.124 1.123-1.124s1.123.504 1.123 1.124v1.123h-2.246z"/></svg>
