<svg xmlns="http://www.w3.org/2000/svg" width="100" height="100" preserveAspectRatio="xMidYMid meet" viewBox="0 0 100 100"><path d="M27.5 90.5c-7.168 0-13-5.832-13-13s5.832-13 13-13H47v-6.888a11.69 11.69 0 0 1-8.75-11.362c0-6.478 5.271-11.749 11.75-11.749s11.75 5.272 11.75 11.751A11.69 11.69 0 0 1 53 57.612V64.5h19.5c7.168 0 13 5.832 13 13s-5.832 13-13 13h-45zm57.5-40c-1.654 0-3-1.346-3-3 0-17.645-14.355-32-32-32s-32 14.355-32 32c0 1.654-1.346 3-3 3s-3-1.346-3-3c0-20.953 17.047-38 38-38s38 17.047 38 38c0 1.654-1.346 3-3 3zm-12.5 0c-1.654 0-3-1.346-3-3C69.5 36.748 60.752 28 50 28s-19.5 8.748-19.5 19.5c0 1.654-1.346 3-3 3s-3-1.346-3-3C24.5 33.439 35.939 22 50 22s25.5 11.439 25.5 25.5c0 1.654-1.346 3-3 3z"/><path fill="#999" d="M50 10c20.711 0 37.5 16.79 37.5 37.5a2.5 2.5 0 1 1-5 0C82.5 29.551 67.949 15 50 15S17.5 29.551 17.5 47.5a2.5 2.5 0 1 1-5 0C12.5 26.79 29.29 10 50 10m0 12.5c13.807 0 25 11.193 25 25a2.5 2.5 0 1 1-5 0c0-11.046-8.954-20-20-20s-20 8.954-20 20a2.5 2.5 0 1 1-5 0c0-13.807 11.193-25 25-25m0 12.501h.002a11.251 11.251 0 0 1 2.499 22.219V65h20C79.404 65 85 70.596 85 77.5S79.404 90 72.5 90h-45C20.596 90 15 84.404 15 77.5S20.596 65 27.5 65h20v-7.779a11.253 11.253 0 0 1-8.75-10.971c0-6.212 5.037-11.248 11.25-11.249M50 9C28.771 9 11.5 26.271 11.5 47.5c0 1.93 1.57 3.5 3.5 3.5s3.5-1.57 3.5-3.5C18.5 30.131 32.631 16 50 16s31.5 14.131 31.5 31.5c0 1.93 1.57 3.5 3.5 3.5s3.5-1.57 3.5-3.5C88.5 26.271 71.229 9 50 9zm0 12.5c-14.336 0-26 11.664-26 26 0 1.93 1.57 3.5 3.5 3.5s3.5-1.57 3.5-3.5c0-10.477 8.523-19 19-19s19 8.523 19 19c0 1.93 1.57 3.5 3.5 3.5s3.5-1.57 3.5-3.5c0-14.336-11.663-26-26-26zm.001 12.501H50c-6.754 0-12.249 5.495-12.25 12.249a12.187 12.187 0 0 0 8.75 11.742V64h-19C20.056 64 14 70.056 14 77.5S20.056 91 27.5 91h45C79.944 91 86 84.944 86 77.5S79.944 64 72.5 64h-19v-6.008a12.187 12.187 0 0 0 8.75-11.74c0-6.754-5.495-12.25-12.249-12.251z"/></svg>
