<svg transform="rotate(360)" xmlns="http://www.w3.org/2000/svg" width="100" height="100" preserveAspectRatio="xMidYMid meet" viewBox="0 0 100 100"><path stroke="#999" d="M79.434 33.006c-5.383-.102-9.968 3.486-11.38 8.432L51.8 41.415c-.88-3.105-3.704-5.407-7.099-5.462a7.476 7.476 0 0 0-3.586.836L29.914 25.19a9.383 9.383 0 0 0 1.601-5.085c.091-5.225-4.065-9.537-9.293-9.621-5.223-.099-9.532 4.069-9.617 9.291-.093 5.214 4.069 9.524 9.287 9.615a9.424 9.424 0 0 0 3.771-.714L37.5 40.934a7.493 7.493 0 0 0-.441 2.402 7.458 7.458 0 0 0 1.317 4.369l-13.394 19.43a9.643 9.643 0 0 0-3.43-.691c-5.394-.102-9.843 4.201-9.93 9.592-.097 5.385 4.202 9.836 9.589 9.93 5.391.094 9.843-4.203 9.937-9.588a9.713 9.713 0 0 0-1.84-5.863l13.596-19.721a7.52 7.52 0 0 0 1.534.184c2.96.053 5.544-1.622 6.813-4.086l16.571.024c1.039 5.255 5.631 9.267 11.205 9.365 6.43.111 11.734-5.012 11.848-11.428.111-6.434-5.004-11.743-11.441-11.847z"/></svg>
