<svg xmlns="http://www.w3.org/2000/svg" width="50" height="50" preserveAspectRatio="xMidYMid meet" viewBox="0 0 50 50"><path fill="#999" d="M9.65 19.615a1.25 1.25 0 1 0-1.8-1.735L3.5 22.395a3.75 3.75 0 0 0 0 5.205l4.35 4.518a1.25 1.25 0 1 0 1.8-1.735L5.3 25.865a1.251 1.251 0 0 1 0-1.735l4.35-4.515zM17.885 7.85a1.25 1.25 0 0 0 1.735 1.8l4.515-4.353a1.25 1.25 0 0 1 1.735 0l4.515 4.35a1.25 1.25 0 0 0 1.736-1.797L27.603 3.5a3.75 3.75 0 0 0-5.205 0l-4.515 4.35h.002zm24.267 10.03a1.25 1.25 0 0 0-1.8 1.735l4.364 4.528a1.248 1.248 0 0 1 0 1.737l-4.361 4.5a1.25 1.25 0 1 0 1.782 1.754l.014-.014 4.359-4.5a3.75 3.75 0 0 0 .008-5.212L42.15 17.88h.002zM19.618 40.35a1.25 1.25 0 1 0-1.736 1.801l4.53 4.362a3.75 3.75 0 0 0 5.21-.008l4.497-4.357a1.25 1.25 0 0 0-1.74-1.795l-4.497 4.357a1.25 1.25 0 0 1-1.738.003l-4.526-4.363zM15 20a5 5 0 0 1 5-5h10a5 5 0 0 1 5 5v10a5 5 0 0 1-5 5H20a5 5 0 0 1-5-5V20z"/></svg>
