<svg xmlns="http://www.w3.org/2000/svg" width="100" height="100" preserveAspectRatio="xMidYMid meet" viewBox="0 0 100 100"><path stroke="#999" d="M10 35a15 15 0 0 1 15-15h50a15 15 0 0 1 15 15v30a15 15 0 0 1-15 15H25a15 15 0 0 1-15-15V35zm15-10a10 10 0 0 0-10 10v30a10 10 0 0 0 10 10h50a10 10 0 0 0 10-10V35a10 10 0 0 0-10-10H25z"/><path fill="#999" d="M22.03 53.72h1.84l.01.44c.01 1.16.07 1.91.18 2.26.1.35.3.62.58.8.28.18.7.31 1.27.39.73.1 2.13.15 4.2.15 1.94 0 3.38-.15 4.32-.44.9-.29 1.36-1.27 1.36-2.95 0-.97-.1-1.68-.29-2.14a1.43 1.43 0 0 0-1.03-.84c-.55-.14-1.46-.21-2.74-.22h-4.6c-1.67 0-2.86-.3-3.58-.9a3.7 3.7 0 0 1-1.26-2.03c-.2-.78-.29-1.66-.29-2.64 0-1.79.36-3.09 1.07-3.9.45-.51.95-.86 1.5-1.04 1.34-.45 3.32-.67 5.93-.67 1.96 0 3.45.2 4.48.61.48.18.9.5 1.27.94.37.45.63.95.77 1.5.16.64.25 1.61.27 2.9h-1.9v-.31a5.81 5.81 0 0 0-.22-1.96c-.27-.6-.93-1.02-1.99-1.24a15.2 15.2 0 0 0-2.78-.2c-2.28 0-3.94.17-4.98.5-.67.22-1.1.68-1.31 1.38a5.3 5.3 0 0 0-.18 1.5c0 .9.09 1.56.25 1.97.28.67 1.26 1.07 2.95 1.2.47.05 2.56.08 6.27.1 1.36 0 2.31.25 2.87.74.97.85 1.45 2.35 1.45 4.52 0 1.45-.17 2.59-.53 3.42-.35.83-.9 1.38-1.6 1.68-.84.36-1.82.58-2.93.64-1.27.09-2.6.13-3.98.13-1.55 0-2.67-.06-3.36-.17a4.4 4.4 0 0 1-1.84-.69 3.09 3.09 0 0 1-1.03-1.35 8 8 0 0 1-.43-2.97l.01-1.11zM39.03 53.72h1.84l.01.44c.02 1.16.07 1.91.18 2.26.1.35.3.62.58.8.28.18.7.31 1.27.39.73.1 2.13.15 4.2.15 1.94 0 3.38-.15 4.32-.44.91-.29 1.36-1.27 1.36-2.95 0-.97-.1-1.68-.29-2.14a1.43 1.43 0 0 0-1.03-.84c-.55-.14-1.46-.21-2.74-.22h-4.6c-1.66 0-2.86-.3-3.58-.9a3.68 3.68 0 0 1-1.25-2.03c-.2-.78-.3-1.66-.3-2.64 0-1.79.36-3.09 1.07-3.9.46-.5.95-.86 1.5-1.04 1.34-.45 3.32-.67 5.93-.67 1.96 0 3.46.2 4.48.61.48.19.9.5 1.27.95.38.44.63.94.77 1.48.16.65.26 1.62.27 2.9h-1.9v-.3a5.84 5.84 0 0 0-.22-1.96c-.26-.6-.93-1.02-1.98-1.23-.72-.14-1.65-.2-2.79-.2-2.28 0-3.94.16-4.98.5-.66.22-1.1.67-1.3 1.37-.12.4-.18.89-.18 1.5 0 .9.08 1.56.25 1.97.27.67 1.26 1.07 2.95 1.21.46.04 2.55.07 6.26.09 1.36 0 2.32.25 2.87.74.97.85 1.46 2.35 1.46 4.52 0 1.45-.18 2.6-.53 3.42-.36.84-.9 1.39-1.6 1.69-.85.35-1.83.57-2.94.63-1.27.09-2.6.14-3.97.14-1.56 0-2.68-.06-3.37-.18a4.4 4.4 0 0 1-1.84-.69 3.1 3.1 0 0 1-1.03-1.35 8 8 0 0 1-.43-2.96l.01-1.13zM56.43 40.04h1.89v19.89h-1.89zM77.92 46.54c-.1-1.65-.34-2.9-.7-3.74-.55-1.28-1.36-2.07-2.42-2.38-.88-.25-2.4-.38-4.57-.38h-9.79v19.9h9.93c1.9 0 3.25-.1 4.07-.29 1.57-.38 2.6-1.67 3.1-3.86.3-1.43.46-3.36.46-5.79 0-1.4-.03-2.56-.08-3.46zm-2.88 9.9c-.38.57-1 .94-1.83 1.08-.37.06-1.35.09-2.92.09h-7.96V42.37h7.87c1.45 0 2.35.03 2.7.07.62.07 1.1.2 1.45.4s.64.47.85.85c.58 1 .86 3.05.86 6.18 0 3.35-.34 5.55-1.02 6.57z"/></svg>
