<svg xmlns="http://www.w3.org/2000/svg" preserveAspectRatio="xMidYMid meet" viewBox="0 0 100 100"><path stroke="#999" stroke-miterlimit="10" d="M12.5 75a2.5 2.5 0 1 0 0 5h75a2.5 2.5 0 1 0 0-5h-75zm42.494-58.005c-.9 0-1.801.035-2.689.1a2.504 2.504 0 0 0 .379 4.991h0c16.521-1.277 30.947 11.077 32.227 27.596a30.042 30.042 0 0 1 0 4.628 2.5 2.5 0 1 0 4.987.375c1.484-19.271-12.935-36.1-32.207-37.585-.9-.07-1.798-.105-2.697-.105zm0 10c-.936 0-1.865.05-2.775.15a2.498 2.498 0 0 0-2.208 2.76 2.5 2.5 0 0 0 2.759 2.21c10.978-1.229 20.871 6.675 22.101 17.651.166 1.479.166 2.97 0 4.449a2.503 2.503 0 0 0 4.976.549c1.529-13.722-8.354-26.085-22.076-27.615a25.038 25.038 0 0 0-2.777-.154zm0 10c-1.025 0-2.025.1-3 .3a2.5 2.5 0 1 0 1 4.9c5.41-1.106 10.693 2.384 11.8 7.794a9.971 9.971 0 0 1 0 4.006 2.5 2.5 0 1 0 4.899 1c1.658-8.117-3.58-16.04-11.696-17.697a15.064 15.064 0 0 0-3.003-.303zM77.494 70c4.143 0 7.5-3.357 7.5-7.5v-.898a7.517 7.517 0 0 1-2.615-1.535 7.48 7.48 0 0 1-10.08-.03 7.49 7.49 0 0 1-10.664-.56c-4.141 3.654-10.459 3.263-14.115-.877a9.999 9.999 0 0 1 0-13.239 7.49 7.49 0 0 1-.643-10.573l.082-.092c-2.609-2.847-2.622-8.213-.029-11.075H22.417c-4.142 0-7.5 3.858-7.5 8l.078 30.88a7.5 7.5 0 0 0 7.5 7.5L77.494 70h0zm-17.5-18.005c0 2.762-2.238 5-5 5s-5-2.238-5-5 2.238-5 5-5 5 2.238 5 5z"/></svg>

