<svg xmlns="http://www.w3.org/2000/svg" width="100" height="100" preserveAspectRatio="xMidYMid meet" viewBox="0 0 100 100"><path d="M17.5 89.5c-3.86 0-7-3.141-7-7v-40c0-3.86 3.14-7 7-7h20c3.86 0 7 3.14 7 7v40c0 3.859-3.14 7-7 7h-20zm7.5-15c-1.654 0-3 1.346-3 3s1.346 3 3 3h5c1.654 0 3-1.346 3-3s-1.346-3-3-3h-5zm25.5 0v-4h37c1.103 0 2 .897 2 2s-.897 2-2 2h-37zm0-10V40c0-5.79-4.71-10.5-10.5-10.5H15.5v-7c0-3.86 3.14-7 7-7h55c3.859 0 7 3.14 7 7v35c0 3.859-3.141 7-7 7h-27zm10.747-25.718c8.357 0 15.156 6.802 15.156 15.164a15.589 15.589 0 0 1-.776 4.745l-.03.099a1.94 1.94 0 0 0 1.863 2.478c.855 0 1.618-.573 1.855-1.396.621-1.904.947-3.903.962-5.925 0-2.009-.318-4.002-.946-5.928a18.992 18.992 0 0 0-18.085-13.115c-2.007 0-4 .319-5.925.949a1.948 1.948 0 0 0-1.235 2.429 1.929 1.929 0 0 0 2.436 1.254c1.523-.5 3.111-.754 4.724-.754h.001zm-1.601 8.547c4.522 0 8.207 3.686 8.213 8.216a8.422 8.422 0 0 1-.595 3.039 1.958 1.958 0 0 0 .035 1.523 1.927 1.927 0 0 0 1.762 1.139c.803 0 1.532-.506 1.813-1.257.416-1.062.686-2.185.796-3.3l.058.058.002-1.205c-.004-6.664-5.428-12.087-12.09-12.089-1.52.009-3.005.297-4.418.857a1.943 1.943 0 0 0-1.097 2.511 1.933 1.933 0 0 0 1.808 1.233c.241 0 .478-.044.704-.132a8.176 8.176 0 0 1 2.876-.593h.133zm.013 4a4.234 4.234 0 0 0-4.229 4.229 4.234 4.234 0 0 0 4.229 4.231 4.203 4.203 0 0 0 2.996-1.242 4.187 4.187 0 0 0 1.235-2.99 4.19 4.19 0 0 0-1.235-2.987 4.196 4.196 0 0 0-2.992-1.241h-.004z"/><path fill="#999" d="M77.5 16c3.584 0 6.5 2.916 6.5 6.5v35c0 3.584-2.916 6.5-6.5 6.5H51V40c0-6.065-4.935-11-11-11H16v-6.5c0-3.584 2.916-6.5 6.5-6.5h55M55.931 40.128c.253 0 .503-.04.75-.119a14.597 14.597 0 0 1 4.566-.728c8.081 0 14.656 6.579 14.656 14.656a15.076 15.076 0 0 1-.752 4.597l-.008.02-.01.043-.015.045-.002.008a2.443 2.443 0 0 0 2.343 3.119c1.076 0 2.037-.722 2.326-1.724a20.1 20.1 0 0 0 .991-6.101c0-2.058-.327-4.103-.972-6.081a19.492 19.492 0 0 0-18.56-13.459c-2.06 0-4.105.328-6.087.976a2.451 2.451 0 0 0-1.55 3.054 2.433 2.433 0 0 0 2.324 1.694m.003 8.426c.303 0 .601-.056.898-.171a7.66 7.66 0 0 1 2.649-.553h.165c4.247 0 7.708 3.462 7.713 7.705a7.945 7.945 0 0 1-.56 2.865l-.015.037-.012.038-.003.012a2.415 2.415 0 0 0 .074 1.827 2.422 2.422 0 0 0 2.216 1.432 2.44 2.44 0 0 0 2.276-1.568c.585-1.491.893-3.095.89-4.637h.003c-.004-6.939-5.652-12.586-12.596-12.588-1.579.01-3.125.31-4.594.891a2.444 2.444 0 0 0-1.38 3.161 2.44 2.44 0 0 0 2.276 1.549m3.725 11.736a4.703 4.703 0 0 0 3.351-1.389 4.687 4.687 0 0 0 1.381-3.342 4.688 4.688 0 0 0-1.381-3.343 4.701 4.701 0 0 0-3.351-1.388 4.735 4.735 0 0 0-4.729 4.729 4.737 4.737 0 0 0 4.729 4.733M37.5 36c3.584 0 6.5 2.916 6.5 6.5v40c0 3.584-2.916 6.5-6.5 6.5h-20a6.508 6.508 0 0 1-6.5-6.5v-40c0-3.584 2.916-6.5 6.5-6.5h20M25 81h5c1.93 0 3.5-1.57 3.5-3.5S31.93 74 30 74h-5c-1.93 0-3.5 1.57-3.5 3.5S23.07 81 25 81m62.5-10c.827 0 1.5.673 1.5 1.5s-.673 1.5-1.5 1.5H51v-3h36.5m-10-56h-55a7.5 7.5 0 0 0-7.5 7.5V30h25c5.523 0 10 4.477 10 10v25h27.5c4.143 0 7.5-3.357 7.5-7.5v-35a7.5 7.5 0 0 0-7.5-7.5zM55.931 39.128a1.438 1.438 0 0 1-1.368-.998 1.44 1.44 0 0 1 .914-1.802 18.541 18.541 0 0 1 5.77-.924c7.797 0 15.052 4.958 17.609 12.77a18.65 18.65 0 0 1 .922 5.77 19.145 19.145 0 0 1-.942 5.79 1.431 1.431 0 0 1-1.778.976 1.439 1.439 0 0 1-.955-1.863c.52-1.581.789-3.238.802-4.901 0-8.651-7.012-15.663-15.656-15.664h-.002c-1.656 0-3.302.26-4.877.778a1.46 1.46 0 0 1-.439.068zm.003 8.426a1.438 1.438 0 0 1-.527-2.779 11.681 11.681 0 0 1 4.233-.822c6.4.002 11.586 5.188 11.59 11.589l.003.003-.003-.002v-.001l-.003-.003a11.792 11.792 0 0 1-.82 4.274 1.439 1.439 0 0 1-1.851.84 1.438 1.438 0 0 1-.837-1.852c.005-.012.006-.021.01-.033a8.98 8.98 0 0 0 .63-3.225c-.006-4.811-3.901-8.714-8.713-8.715h-.004l-.001-.003a8.756 8.756 0 0 0-3.185.629c-.171.068-.349.1-.522.1zm3.725 11.736a3.73 3.73 0 0 1 0-7.46h.004c2.06 0 3.73 1.67 3.728 3.729a3.728 3.728 0 0 1-3.732 3.731zM37.5 35h-20a7.5 7.5 0 0 0-7.5 7.5v40a7.5 7.5 0 0 0 7.5 7.5h20a7.5 7.5 0 0 0 7.5-7.5v-40a7.5 7.5 0 0 0-7.5-7.5zM25 80a2.5 2.5 0 1 1 0-5h5a2.5 2.5 0 1 1 0 5h-5zm62.5-10H50v5h37.5a2.5 2.5 0 1 0 0-5z"/></svg>

