<?xml version="1.0" standalone="no"?>
<!DOCTYPE svg PUBLIC "-//W3C//DTD SVG 1.1//EN" "http://www.w3.org/Graphics/SVG/1.1/DTD/svg11.dtd">
<svg width="100%" height="100%" viewBox="0 0 560 560" version="1.1" xmlns="http://www.w3.org/2000/svg" xmlns:xlink="http://www.w3.org/1999/xlink" xml:space="preserve" style="fill-rule:evenodd;clip-rule:evenodd;stroke-linejoin:round;stroke-miterlimit:1.41421;">
    <g transform="matrix(1.02869,0,-5.63086e-48,1.02869,6.25278e-13,-8.03296)">
        <path d="M412.846,292.047C408.549,289.859 405.28,286.981 402.951,283.209C400.672,279.392 399.518,275.253 399.518,270.712C399.518,263.712 402.114,257.673 407.361,252.72C412.631,247.693 419.377,245.154 427.582,245.154C434.283,245.154 440.101,246.737 445.021,250.039L459.96,250.039C462.182,250.039 463.454,250.113 463.839,250.237C464.172,250.407 464.399,250.639 464.585,250.893C464.879,251.374 465.055,252.194 465.055,253.359C465.055,254.704 464.913,255.694 464.659,256.163C464.5,256.423 464.24,256.661 463.839,256.763C463.454,256.915 462.182,256.983 459.937,256.983L450.732,256.983C453.649,260.698 455.091,265.448 455.091,271.227C455.091,277.786 452.541,283.452 447.537,288.106C442.504,292.793 435.764,295.163 427.344,295.163C423.844,295.163 420.282,294.648 416.623,293.5C414.475,295.525 413.01,297.21 412.286,298.674C411.5,300.178 411.116,301.4 411.116,302.389C411.116,303.333 411.534,304.142 412.411,305.007C413.231,305.805 414.91,306.41 417.37,306.743C418.772,307.009 422.402,307.207 428.125,307.371C438.676,307.704 445.535,308.106 448.634,308.632C453.412,309.293 457.24,311.092 460.084,313.924C462.928,316.78 464.348,320.269 464.348,324.436C464.348,330.164 461.617,335.621 456.188,340.665C448.232,348.089 437.805,351.81 424.953,351.81C415.074,351.81 406.722,349.633 399.909,345.166C396.058,342.593 394.164,339.952 394.164,337.159C394.164,335.977 394.441,334.716 394.966,333.484C395.82,331.55 397.59,329.016 400.248,325.618C400.598,325.132 403.188,322.378 407.944,317.334C405.297,315.672 403.409,314.269 402.334,312.969C401.232,311.708 400.672,310.255 400.672,308.677C400.672,306.845 401.379,304.747 402.821,302.344C404.28,299.884 407.633,296.424 412.846,292.047ZM412.213,317.95C409.861,320.495 408.108,322.943 406.886,325.245C405.665,327.394 405.099,329.503 405.099,331.34C405.099,333.868 406.558,335.977 409.533,337.821C414.673,340.959 422.091,342.593 431.778,342.593C440.994,342.593 447.774,340.959 452.19,337.713C456.601,334.501 458.772,331.063 458.772,327.394C458.772,324.787 457.461,322.893 454.831,321.762C452.151,320.625 446.87,319.969 438.914,319.805C427.344,319.46 418.422,318.787 412.213,317.95ZM363.261,245.16C373.999,245.16 382.589,249.225 389.091,257.356C394.599,264.283 397.353,272.245 397.353,281.236C397.353,287.58 395.86,293.981 392.812,300.427C389.764,306.896 385.591,311.787 380.231,315.067C374.893,318.363 368.984,320.009 362.442,320.009C351.743,320.009 343.261,315.762 336.99,307.309C331.686,300.184 329.023,292.154 329.023,283.237C329.023,276.746 330.629,270.351 333.835,263.984C337.087,257.537 341.311,252.85 346.581,249.711C351.834,246.703 357.392,245.16 363.261,245.16ZM219.257,280.908C219.257,274.473 220.846,268.366 223.978,262.366C227.111,256.423 231.561,251.866 237.323,248.699C243.085,245.55 249.52,244.017 256.611,244.017C267.603,244.017 276.577,247.568 283.571,254.693C290.589,261.823 294.111,270.831 294.111,281.694C294.111,292.669 290.56,301.728 283.481,308.96C276.413,316.152 267.479,319.811 256.741,319.811C250.102,319.811 243.775,318.278 237.724,315.276C231.691,312.268 227.111,307.868 223.978,302.039C220.846,296.271 219.257,289.22 219.257,280.908ZM0,285.358L19.508,283.531C20.713,290.079 23.099,294.908 26.689,297.996C30.297,301.06 35.171,302.587 41.295,302.587C47.764,302.587 52.649,301.202 55.969,298.482C59.248,295.7 60.871,292.528 60.871,288.897C60.871,286.539 60.176,284.487 58.813,282.836C57.428,281.213 55.019,279.743 51.592,278.578C49.223,277.673 43.862,276.231 35.511,274.111C24.739,271.459 17.173,268.14 12.87,264.244C6.763,258.702 3.698,251.951 3.698,244.046C3.698,238.956 5.106,234.144 8.024,229.757C10.885,225.301 15.058,221.914 20.492,219.561C25.909,217.3 32.395,216.118 40.125,216.118C52.616,216.118 62.019,218.883 68.363,224.379C74.691,229.977 77.987,237.322 78.298,246.539L58.1,247.218C57.207,242.185 55.42,238.476 52.559,236.203C49.754,233.947 45.508,232.816 39.887,232.816C34.057,232.816 29.477,234.014 26.198,236.457C24.049,238.029 22.991,240.048 22.991,242.626C22.991,245.029 23.975,247.009 25.977,248.699C28.493,250.882 34.674,253.104 44.445,255.389C54.238,257.718 61.454,260.127 66.124,262.621C70.806,265.114 74.487,268.513 77.134,272.85C79.757,277.079 81.126,282.485 81.126,288.835C81.126,294.558 79.52,299.975 76.348,304.956C73.175,309.938 68.674,313.704 62.879,316.152C57.06,318.533 49.828,319.805 41.165,319.805C28.55,319.805 18.835,316.859 12.084,310.961C5.344,305.098 1.312,296.554 0,285.358ZM219.149,317.95L200.076,317.95L200.076,281.015C200.076,273.234 199.68,268.219 198.838,265.9C198.001,263.61 196.706,261.823 194.828,260.546C192.985,259.285 190.723,258.646 188.139,258.646C184.786,258.646 181.812,259.573 179.131,261.399C176.451,263.203 174.647,265.595 173.663,268.547C172.697,271.578 172.188,277.079 172.188,285.205L172.188,317.95L153.154,317.95L153.154,245.391L170.785,245.391L170.785,256.016C177.13,247.981 185.091,244.012 194.698,244.012C198.968,244.012 202.83,244.792 206.352,246.251C209.87,247.823 212.55,249.711 214.314,252.103C216.106,254.473 217.362,257.153 218.074,260.121C218.781,263.079 219.149,267.421 219.149,272.991L219.149,317.95ZM360.892,250.356C358.155,250.356 355.424,251.063 352.67,252.725C349.917,254.359 347.678,257.153 345.976,261.168C344.285,265.261 343.431,270.441 343.431,276.797C343.431,287.071 345.506,295.83 349.566,303.333C353.671,310.707 359.049,314.467 365.721,314.467C370.754,314.467 374.853,312.364 378.065,308.304C381.328,304.21 382.956,297.17 382.956,287.145C382.956,274.614 380.253,264.826 374.853,257.628C371.195,252.737 366.541,250.356 360.892,250.356ZM238.782,281.874C238.782,289.118 240.478,294.654 243.922,298.408C247.354,302.282 251.561,304.21 256.594,304.21C261.626,304.21 265.839,302.282 269.265,298.408C272.636,294.654 274.332,289.056 274.332,281.784C274.332,274.614 272.636,269.135 269.265,265.341C265.839,261.546 261.626,259.579 256.594,259.579C251.561,259.579 247.354,261.546 243.922,265.341C240.478,269.135 238.782,274.676 238.782,281.874ZM467.243,247.218L500.294,247.218L500.294,250.045L498.693,250.045C496.358,250.045 494.628,250.588 493.463,251.544C492.309,252.578 491.75,253.822 491.75,255.276C491.75,257.322 492.57,260.076 494.3,263.61L511.529,299.358L527.3,260.302C528.171,258.154 528.612,256.095 528.612,253.964C528.612,253.048 528.391,252.375 528.069,251.922C527.645,251.374 527.006,250.888 526.129,250.588C525.27,250.243 523.709,250.045 521.521,250.045L521.521,247.218L544.382,247.218L544.382,250.045C542.482,250.243 541.012,250.678 539.989,251.283C538.942,251.922 537.817,253.048 536.596,254.704C536.121,255.451 535.205,257.39 533.95,260.636L505.315,331.092C502.522,337.962 498.874,343.096 494.339,346.596C489.816,350.125 485.456,351.81 481.266,351.81C478.218,351.81 475.725,350.996 473.734,349.197C471.783,347.473 470.805,345.477 470.805,343.187C470.805,341.049 471.506,339.381 472.931,338.041C474.351,336.678 476.341,336.073 478.806,336.073C480.52,336.073 482.872,336.627 485.807,337.719C487.865,338.426 489.177,338.878 489.708,338.878C491.258,338.878 492.914,338.041 494.775,336.458C496.596,334.886 498.439,331.81 500.282,327.28L505.275,314.976L479.841,261.823C479.067,260.212 477.823,258.244 476.143,255.858C474.848,254.077 473.791,252.855 472.971,252.194C471.783,251.425 469.867,250.678 467.243,250.045L467.243,247.218ZM78.572,245.391L98.826,245.391L116.129,296.899L132.991,245.391L152.731,245.391L127.359,315.146L122.711,327.874C121.032,332.121 119.448,335.338 117.933,337.566C116.417,339.839 114.67,341.671 112.702,343.034C110.695,344.385 108.269,345.477 105.442,346.251C102.547,347.037 99.301,347.473 95.671,347.473C92.012,347.473 88.399,347.037 84.842,346.251L83.259,331.182C86.228,331.81 88.925,332.121 91.317,332.121C95.727,332.121 99.013,330.82 101.122,328.225C103.254,325.556 104.882,322.186 106.007,318.148L78.572,245.391ZM426.287,249.056C422.493,249.056 419.36,250.639 416.782,253.653C414.237,256.661 412.976,261.179 412.976,267.433C412.976,275.485 414.706,281.727 418.173,286.195C420.847,289.553 424.189,291.233 428.255,291.233C432.134,291.233 435.346,289.746 437.822,286.839C440.322,283.927 441.56,279.392 441.56,273.195C441.56,265.041 439.83,258.719 436.313,254.139C433.666,250.808 430.347,249.056 426.287,249.056ZM317.516,208.19L317.516,301.869C317.516,306.336 317.844,309.293 318.472,310.707C319.128,312.188 320.106,313.28 321.435,314.021C322.786,314.761 325.286,315.146 328.893,315.146L328.893,317.95L294.276,317.95L294.276,315.146C297.522,315.146 299.727,314.812 300.971,314.105C302.113,313.41 303.041,312.352 303.713,310.786C304.392,309.254 304.703,306.285 304.703,301.869L304.703,237.944C304.703,229.898 304.539,224.978 304.194,223.118C303.866,221.275 303.278,220.042 302.515,219.386C301.729,218.691 300.75,218.306 299.557,218.306C298.268,218.306 296.606,218.781 294.621,219.567L293.303,216.825L314.095,208.19L317.516,208.19Z" style="fill:white;"/>
    </g>
</svg>
