<svg width="110" height="110" viewBox="0 0 110 110" fill="none" xmlns="http://www.w3.org/2000/svg">
<g clip-path="url(#clip0_6660_133)">
<rect width="110" height="110" fill="white"/>
<path d="M0 0H110V110H0V0Z" fill="#191A1C"/>
<path d="M82.9498 44.8387C81.6467 41.7031 79.0032 38.3175 76.9332 37.2473C78.4093 40.1058 79.4339 43.1756 79.9705 46.3477L79.9759 46.398C76.5849 37.9476 70.8368 34.5349 66.1395 27.1137C65.9019 26.7384 65.6644 26.3623 65.433 25.9653C65.3007 25.7386 65.1946 25.5343 65.1026 25.3463C64.9078 24.9691 64.7577 24.5704 64.6553 24.1584C64.6554 24.1394 64.6485 24.121 64.636 24.1067C64.6234 24.0925 64.6061 24.0833 64.5872 24.081C64.5687 24.0759 64.5492 24.0759 64.5307 24.081C64.5268 24.081 64.5206 24.088 64.516 24.0895C64.5113 24.0911 64.5013 24.098 64.4943 24.1011L64.5059 24.081C56.9725 28.492 54.4149 36.6561 54.1828 40.742C51.1733 40.9483 48.2958 42.0569 45.9258 43.9233C45.6787 43.7139 45.4203 43.5181 45.152 43.3367C44.4687 40.9447 44.4395 38.4131 45.0676 36.006C42.301 37.3462 39.8427 39.2461 37.8484 41.5855H37.8345C36.6458 40.0788 36.7294 35.1107 36.7975 34.0729C36.4459 34.2143 36.1102 34.3925 35.7962 34.6046C34.7468 35.3535 33.7659 36.1938 32.8648 37.1157C31.838 38.1568 30.9002 39.282 30.0612 40.4796V40.4843V40.4789C28.1332 43.2118 26.7655 46.2995 26.0372 49.5638L25.9969 49.7619C25.9404 50.0258 25.7369 51.3476 25.7021 51.6347C25.7021 51.6571 25.6974 51.678 25.6951 51.7004C25.4326 53.065 25.2699 54.4469 25.2084 55.8351V55.9899C25.2216 63.4951 28.0481 70.7226 33.1298 76.2457C38.2114 81.7688 45.1791 85.1861 52.6572 85.823C60.1353 86.46 67.5805 84.2702 73.5231 79.6861C79.4656 75.1019 83.4737 68.4565 84.756 61.0617C84.8063 60.6747 84.8473 60.2917 84.8922 59.9009C85.5099 54.795 84.8412 49.6156 82.9467 44.8341L82.9498 44.8387ZM48.382 68.3173C48.5221 68.3846 48.6536 68.4573 48.7976 68.5216L48.8185 68.5347C48.673 68.4651 48.5275 68.3926 48.382 68.3173ZM79.9767 46.4065V46.3779L79.9821 46.4096L79.9767 46.4065Z" fill="url(#paint0_linear_6660_133)"/>
<path d="M82.9497 44.8387C81.6466 41.7031 79.0031 38.3175 76.9331 37.2473C78.4092 40.1058 79.4338 43.1756 79.9704 46.3477V46.3763L79.9758 46.4081C82.288 53.0237 81.9536 60.277 79.0426 66.6519C75.6051 74.0275 67.2878 81.5872 54.264 81.2157C40.1954 80.8172 27.7984 70.3741 25.4846 56.7002C25.0628 54.5435 25.4846 53.4501 25.6966 51.6973C25.4074 53.0588 25.246 54.4443 25.2145 55.8359V55.9906C25.2277 63.4958 28.0542 70.7234 33.1359 76.2465C38.2175 81.7696 45.1852 85.1869 52.6633 85.8238C60.1414 86.4607 67.5866 84.271 73.5292 79.6868C79.4717 75.1027 83.4798 68.4573 84.7621 61.0624C84.8124 60.6755 84.8534 60.2924 84.8983 59.9017C85.5161 54.7957 84.8473 49.6164 82.9528 44.8348L82.9497 44.8387Z" fill="url(#paint1_radial_6660_133)"/>
<path d="M82.9497 44.8387C81.6466 41.7031 79.0031 38.3175 76.9331 37.2473C78.4092 40.1058 79.4338 43.1756 79.9704 46.3477V46.3763L79.9758 46.4081C82.288 53.0237 81.9536 60.277 79.0426 66.6519C75.6051 74.0275 67.2878 81.5872 54.264 81.2157C40.1954 80.8172 27.7984 70.3741 25.4846 56.7002C25.0628 54.5435 25.4846 53.4501 25.6966 51.6973C25.4074 53.0588 25.246 54.4443 25.2145 55.8359V55.9906C25.2277 63.4958 28.0542 70.7234 33.1359 76.2465C38.2175 81.7696 45.1852 85.1869 52.6633 85.8238C60.1414 86.4607 67.5866 84.271 73.5292 79.6868C79.4717 75.1027 83.4798 68.4573 84.7621 61.0624C84.8124 60.6755 84.8534 60.2924 84.8983 59.9017C85.5161 54.7957 84.8473 49.6164 82.9528 44.8348L82.9497 44.8387Z" fill="url(#paint2_radial_6660_133)"/>
<path d="M68.3704 48.3597C68.4354 48.4054 68.4958 48.451 68.5569 48.4967C67.8036 47.1608 66.8657 45.9377 65.7711 44.8635C56.4462 35.5386 63.328 24.6506 64.488 24.0934L64.4996 24.0764C56.9662 28.4873 54.4087 36.6514 54.1765 40.7373C54.5263 40.7133 54.873 40.6839 55.2305 40.6839C57.9032 40.6891 60.527 41.4019 62.8349 42.7498C65.1429 44.0978 67.0528 46.0328 68.3704 48.3582V48.3597Z" fill="url(#paint3_radial_6660_133)"/>
<path d="M55.246 50.2247C55.1964 50.9707 52.5607 53.5437 51.6391 53.5437C43.1113 53.5437 41.7261 58.703 41.7261 58.703C42.1037 63.0474 45.131 66.6272 48.7905 68.5154C48.9577 68.602 49.1272 68.6802 49.2966 68.7568C49.5902 68.8868 49.8837 69.007 50.1773 69.1174C51.4332 69.5618 52.7486 69.8156 54.0798 69.8704C69.0305 70.5715 71.9247 51.9945 61.1365 46.6008C63.6813 46.2696 66.2585 46.8954 68.3681 48.3566C67.0505 46.0312 65.1406 44.0962 62.8326 42.7483C60.5247 41.4003 57.9009 40.6875 55.2282 40.6824C54.8722 40.6824 54.524 40.7118 54.1742 40.7358C51.1647 40.9421 48.2872 42.0507 45.9172 43.9171C46.3746 44.304 46.8907 44.8209 47.978 45.8927C50.0132 47.8977 55.2328 49.9747 55.2444 50.2185L55.246 50.2247Z" fill="url(#paint4_radial_6660_133)"/>
<path d="M55.246 50.2247C55.1964 50.9707 52.5607 53.5437 51.6391 53.5437C43.1113 53.5437 41.7261 58.703 41.7261 58.703C42.1037 63.0474 45.131 66.6272 48.7905 68.5154C48.9577 68.602 49.1272 68.6802 49.2966 68.7568C49.5902 68.8868 49.8837 69.007 50.1773 69.1174C51.4332 69.5618 52.7486 69.8156 54.0798 69.8704C69.0305 70.5715 71.9247 51.9945 61.1365 46.6008C63.6813 46.2696 66.2585 46.8954 68.3681 48.3566C67.0505 46.0312 65.1406 44.0962 62.8326 42.7483C60.5247 41.4003 57.9009 40.6875 55.2282 40.6824C54.8722 40.6824 54.524 40.7118 54.1742 40.7358C51.1647 40.9421 48.2872 42.0507 45.9172 43.9171C46.3746 44.304 46.8907 44.8209 47.978 45.8927C50.0132 47.8977 55.2328 49.9747 55.2444 50.2185L55.246 50.2247Z" fill="url(#paint5_radial_6660_133)"/>
<path d="M44.5204 42.9273C44.7634 43.0821 44.9639 43.2167 45.1395 43.3382C44.4562 40.9462 44.4271 38.4147 45.0552 36.0076C42.2885 37.3477 39.8303 39.2476 37.8359 41.587C37.9822 41.5831 42.3328 41.505 44.5204 42.9273Z" fill="url(#paint6_radial_6660_133)"/>
<path d="M25.4792 56.7018C27.7937 70.3757 40.19 80.8226 54.2586 81.2173C67.2824 81.5856 75.6013 74.0251 79.0372 66.6535C81.9482 60.2786 82.2826 53.0253 79.9704 46.4096V46.381C79.9704 46.3585 79.9658 46.3454 79.9704 46.3523L79.9759 46.4026C81.0399 53.3495 77.5065 60.0765 71.982 64.6345L71.965 64.6732C61.2008 73.4409 50.9008 69.9617 48.8192 68.5424C48.6737 68.4728 48.5282 68.4003 48.3827 68.325C42.1076 65.3256 39.5144 59.6115 40.0716 54.7053C38.582 54.7272 37.1181 54.3168 35.857 53.5236C34.596 52.7304 33.5921 51.5885 32.9669 50.2363C34.6143 49.2271 36.4926 48.6567 38.4229 48.5792C40.3533 48.5017 42.2713 48.9198 43.9943 49.7936C47.5457 51.4057 51.5867 51.5645 55.2537 50.2363C55.2421 49.9925 50.0225 47.9147 47.9873 45.9105C46.9001 44.8387 46.3839 44.3225 45.9265 43.9348C45.6794 43.7255 45.4211 43.5297 45.1527 43.3483C44.9747 43.2268 44.7743 43.0952 44.5336 42.9374C42.346 41.515 37.9954 41.5932 37.8514 41.5971H37.8375C36.6489 40.0904 36.7325 35.1223 36.8006 34.0845C36.4489 34.2259 36.1133 34.4041 35.7992 34.6162C34.7499 35.3651 33.7689 36.2054 32.8679 37.1273C31.8374 38.1654 30.8956 39.2881 30.0526 40.4835C28.1246 43.2164 26.7569 46.3034 26.0286 49.5677C26.0139 49.6288 24.9483 54.2874 25.4737 56.7033L25.4792 56.7018Z" fill="url(#paint7_radial_6660_133)"/>
<path d="M65.7703 44.8619C66.8653 45.9373 67.8031 47.1617 68.5562 48.499C68.721 48.6236 68.875 48.7474 69.0058 48.8674C75.8056 55.1355 72.2428 63.9961 71.9774 64.6229C77.5011 60.0719 81.0314 53.3402 79.9712 46.391C76.5787 37.9329 70.8243 34.5202 66.1348 27.099C65.8972 26.7237 65.6597 26.3476 65.4283 25.9506C65.296 25.7239 65.1899 25.5196 65.0979 25.3315C64.9031 24.9543 64.753 24.5557 64.6506 24.1437C64.6507 24.1247 64.6438 24.1063 64.6313 24.092C64.6187 24.0777 64.6014 24.0686 64.5825 24.0663C64.564 24.0612 64.5445 24.0612 64.526 24.0663C64.5221 24.0663 64.5159 24.0733 64.5113 24.0748C64.5066 24.0764 64.4966 24.0833 64.4896 24.0864C63.3296 24.6366 56.4493 35.5316 65.7742 44.8488L65.7703 44.8619Z" fill="url(#paint8_radial_6660_133)"/>
<path d="M69.0051 48.8705C68.8743 48.7505 68.7203 48.6267 68.5555 48.5021C68.4943 48.4564 68.434 48.4108 68.369 48.3651C66.2593 46.9039 63.6822 46.2781 61.1374 46.6093C71.9248 52.003 69.0306 70.5753 54.0806 69.8789C52.7495 69.8242 51.4341 69.5704 50.1781 69.1259C49.8846 69.016 49.591 68.8958 49.2975 68.7653C49.128 68.6879 48.9585 68.6105 48.7914 68.5239L48.8123 68.537C50.897 69.9601 61.1938 73.437 71.9581 64.6678L71.9751 64.6291C72.2436 64.0023 75.8064 55.1417 69.0035 48.8735L69.0051 48.8705Z" fill="url(#paint9_radial_6660_133)"/>
<path d="M41.7269 58.6983C41.7269 58.6983 43.1113 53.5391 51.6399 53.5391C52.5615 53.5391 55.1996 50.966 55.2468 50.2201C51.5798 51.5483 47.5387 51.3894 43.9873 49.7774C42.2643 48.9036 40.3463 48.4855 38.416 48.5629C36.4857 48.6404 34.6073 49.2109 32.96 50.2201C33.5852 51.5723 34.5891 52.7141 35.8501 53.5073C37.1111 54.3005 38.5751 54.711 40.0647 54.689C39.509 59.5929 42.1014 65.3062 48.3758 68.3087C48.5159 68.3761 48.6474 68.4488 48.7913 68.513C45.1287 66.621 42.1045 63.0427 41.7269 58.7007V58.6983Z" fill="url(#paint10_radial_6660_133)"/>
<path d="M82.9499 44.8387C81.6467 41.7031 79.0032 38.3175 76.9332 37.2473C78.4093 40.1058 79.4339 43.1756 79.9705 46.3477L79.976 46.398C76.585 37.9476 70.8368 34.5349 66.1396 27.1137C65.902 26.7384 65.6644 26.3623 65.433 25.9653C65.3007 25.7386 65.1947 25.5343 65.1026 25.3463C64.9078 24.9691 64.7577 24.5704 64.6553 24.1584C64.6555 24.1394 64.6486 24.121 64.636 24.1067C64.6235 24.0925 64.6061 24.0833 64.5872 24.081C64.5687 24.0759 64.5492 24.0759 64.5307 24.081C64.5269 24.081 64.5207 24.088 64.516 24.0895C64.5114 24.0911 64.5013 24.098 64.4944 24.1011L64.506 24.081C56.9726 28.492 54.415 36.6561 54.1828 40.742C54.5326 40.718 54.8793 40.6886 55.2368 40.6886C57.9096 40.6937 60.5333 41.4065 62.8413 42.7545C65.1492 44.1024 67.0591 46.0374 68.3768 48.3628C66.2671 46.9016 63.69 46.2758 61.1451 46.607C71.9326 52.0007 69.0384 70.573 54.0884 69.8766C52.7573 69.8219 51.4419 69.5681 50.1859 69.1236C49.8924 69.0137 49.5988 68.8935 49.3053 68.763C49.1358 68.6856 48.9663 68.6082 48.7992 68.5216L48.8201 68.5347C48.6746 68.4651 48.5291 68.3926 48.3836 68.3173C48.5237 68.3846 48.6552 68.4573 48.7992 68.5216C45.1365 66.6287 42.1124 63.0505 41.7347 58.7092C41.7347 58.7092 43.1191 53.5499 51.6477 53.5499C52.5694 53.5499 55.2074 50.9769 55.2546 50.2309C55.243 49.9871 50.0234 47.9093 47.9882 45.9051C46.9009 44.8333 46.3848 44.3171 45.9274 43.9294C45.6803 43.7201 45.4219 43.5243 45.1536 43.3429C44.4703 40.9509 44.4411 38.4193 45.0692 36.0122C42.3026 37.3524 39.8443 39.2523 37.85 41.5917H37.8361C36.6474 40.085 36.731 35.1169 36.7991 34.0791C36.4475 34.2205 36.1118 34.3987 35.7978 34.6108C34.7484 35.3597 33.7675 36.2 32.8664 37.1219C31.8396 38.163 30.9018 39.2882 30.0628 40.4858C28.1347 43.2188 26.7671 46.3057 26.0388 49.57L25.9985 49.7681C25.942 50.032 25.689 51.3723 25.6526 51.6602C25.4211 53.0437 25.2733 54.44 25.21 55.8413V55.9961C25.2232 63.5013 28.0497 70.7288 33.1313 76.2519C38.213 81.775 45.1807 85.1923 52.6588 85.8292C60.1369 86.4662 67.5821 84.2764 73.5247 79.6923C79.4672 75.1081 83.4753 68.4627 84.7576 61.0679C84.8079 60.6809 84.8489 60.2979 84.8938 59.9071C85.5115 54.8012 84.8428 49.6218 82.9483 44.8403L82.9499 44.8387Z" fill="url(#paint11_linear_6660_133)"/>
</g>
<defs>
<linearGradient id="paint0_linear_6660_133" x1="78.98" y1="33.6612" x2="29.1883" y2="81.7017" gradientUnits="userSpaceOnUse">
<stop offset="0.048" stop-color="#FFF44F"/>
<stop offset="0.111" stop-color="#FFE847"/>
<stop offset="0.225" stop-color="#FFC830"/>
<stop offset="0.368" stop-color="#FF980E"/>
<stop offset="0.401" stop-color="#FF8B16"/>
<stop offset="0.462" stop-color="#FF672A"/>
<stop offset="0.534" stop-color="#FF3647"/>
<stop offset="0.705" stop-color="#E31587"/>
</linearGradient>
<radialGradient id="paint1_radial_6660_133" cx="0" cy="0" r="1" gradientUnits="userSpaceOnUse" gradientTransform="translate(77.053 31.041) scale(62.5269 62.5269)">
<stop offset="0.129" stop-color="#FFBD4F"/>
<stop offset="0.186" stop-color="#FFAC31"/>
<stop offset="0.247" stop-color="#FF9D17"/>
<stop offset="0.283" stop-color="#FF980E"/>
<stop offset="0.403" stop-color="#FF563B"/>
<stop offset="0.467" stop-color="#FF3750"/>
<stop offset="0.71" stop-color="#F5156C"/>
<stop offset="0.782" stop-color="#EB0878"/>
<stop offset="0.86" stop-color="#E50080"/>
</radialGradient>
<radialGradient id="paint2_radial_6660_133" cx="0" cy="0" r="1" gradientUnits="userSpaceOnUse" gradientTransform="translate(53.8376 56.578) scale(62.5269 62.5269)">
<stop offset="0.3" stop-color="#960E18"/>
<stop offset="0.351" stop-color="#B11927" stop-opacity="0.74"/>
<stop offset="0.435" stop-color="#DB293D" stop-opacity="0.343"/>
<stop offset="0.497" stop-color="#F5334B" stop-opacity="0.094"/>
<stop offset="0.53" stop-color="#FF3750" stop-opacity="0"/>
</radialGradient>
<radialGradient id="paint3_radial_6660_133" cx="0" cy="0" r="1" gradientUnits="userSpaceOnUse" gradientTransform="translate(61.576 17.1117) scale(45.2933 45.2933)">
<stop offset="0.132" stop-color="#FFF44F"/>
<stop offset="0.252" stop-color="#FFDC3E"/>
<stop offset="0.506" stop-color="#FF9D12"/>
<stop offset="0.526" stop-color="#FF980E"/>
</radialGradient>
<radialGradient id="paint4_radial_6660_133" cx="0" cy="0" r="1" gradientUnits="userSpaceOnUse" gradientTransform="translate(46.8729 72.8288) scale(29.7699 29.7699)">
<stop offset="0.353" stop-color="#3A8EE6"/>
<stop offset="0.472" stop-color="#5C79F0"/>
<stop offset="0.669" stop-color="#9059FF"/>
<stop offset="1" stop-color="#C139E6"/>
</radialGradient>
<radialGradient id="paint5_radial_6660_133" cx="0" cy="0" r="1" gradientUnits="userSpaceOnUse" gradientTransform="translate(56.8618 51.2106) rotate(-13.5916) scale(15.7866 18.4821)">
<stop offset="0.206" stop-color="#9059FF" stop-opacity="0"/>
<stop offset="0.278" stop-color="#8C4FF3" stop-opacity="0.064"/>
<stop offset="0.747" stop-color="#7716A8" stop-opacity="0.45"/>
<stop offset="0.975" stop-color="#6E008B" stop-opacity="0.6"/>
</radialGradient>
<radialGradient id="paint6_radial_6660_133" cx="0" cy="0" r="1" gradientUnits="userSpaceOnUse" gradientTransform="translate(53.0637 28.7195) scale(21.4201)">
<stop stop-color="#FFE226"/>
<stop offset="0.121" stop-color="#FFDB27"/>
<stop offset="0.295" stop-color="#FFC82A"/>
<stop offset="0.502" stop-color="#FFA930"/>
<stop offset="0.732" stop-color="#FF7E37"/>
<stop offset="0.792" stop-color="#FF7139"/>
</radialGradient>
<radialGradient id="paint7_radial_6660_133" cx="0" cy="0" r="1" gradientUnits="userSpaceOnUse" gradientTransform="translate(70.0884 14.7902) scale(91.3915 91.3914)">
<stop offset="0.113" stop-color="#FFF44F"/>
<stop offset="0.456" stop-color="#FF980E"/>
<stop offset="0.622" stop-color="#FF5634"/>
<stop offset="0.716" stop-color="#FF3647"/>
<stop offset="0.904" stop-color="#E31587"/>
</radialGradient>
<radialGradient id="paint8_radial_6660_133" cx="0" cy="0" r="1" gradientUnits="userSpaceOnUse" gradientTransform="translate(62.4923 19.8573) rotate(83.976) scale(66.973 43.9538)">
<stop stop-color="#FFF44F"/>
<stop offset="0.06" stop-color="#FFE847"/>
<stop offset="0.168" stop-color="#FFC830"/>
<stop offset="0.304" stop-color="#FF980E"/>
<stop offset="0.356" stop-color="#FF8B16"/>
<stop offset="0.455" stop-color="#FF672A"/>
<stop offset="0.57" stop-color="#FF3647"/>
<stop offset="0.737" stop-color="#E31587"/>
</radialGradient>
<radialGradient id="paint9_radial_6660_133" cx="0" cy="0" r="1" gradientUnits="userSpaceOnUse" gradientTransform="translate(53.0638 36.4579) scale(57.0481 57.0481)">
<stop offset="0.137" stop-color="#FFF44F"/>
<stop offset="0.48" stop-color="#FF980E"/>
<stop offset="0.592" stop-color="#FF5634"/>
<stop offset="0.655" stop-color="#FF3647"/>
<stop offset="0.904" stop-color="#E31587"/>
</radialGradient>
<radialGradient id="paint10_radial_6660_133" cx="0" cy="0" r="1" gradientUnits="userSpaceOnUse" gradientTransform="translate(67.7669 39.5533) scale(62.4418 62.4418)">
<stop offset="0.094" stop-color="#FFF44F"/>
<stop offset="0.231" stop-color="#FFE141"/>
<stop offset="0.509" stop-color="#FFAF1E"/>
<stop offset="0.626" stop-color="#FF980E"/>
</radialGradient>
<linearGradient id="paint11_linear_6660_133" x1="78.3764" y1="33.4058" x2="36.016" y2="75.774" gradientUnits="userSpaceOnUse">
<stop offset="0.167" stop-color="#FFF44F" stop-opacity="0.8"/>
<stop offset="0.266" stop-color="#FFF44F" stop-opacity="0.634"/>
<stop offset="0.489" stop-color="#FFF44F" stop-opacity="0.217"/>
<stop offset="0.6" stop-color="#FFF44F" stop-opacity="0"/>
</linearGradient>
<clipPath id="clip0_6660_133">
<rect width="110" height="110" fill="white"/>
</clipPath>
</defs>
</svg>
