<?xml version="1.0" standalone="no"?>
<!DOCTYPE svg PUBLIC "-//W3C//DTD SVG 1.1//EN" "http://www.w3.org/Graphics/SVG/1.1/DTD/svg11.dtd">
<svg width="100%" height="100%" viewBox="0 0 560 560" version="1.1" xmlns="http://www.w3.org/2000/svg" xmlns:xlink="http://www.w3.org/1999/xlink" xml:space="preserve" style="fill-rule:evenodd;clip-rule:evenodd;stroke-linejoin:round;stroke-miterlimit:1.41421;">
    <g transform="matrix(0.676063,0,0,0.676063,0,210.219)">
        <g id="Layer1">
            <path d="M277.842,76.942C284.083,73.3 291.367,73.3 298.133,74.862C301.775,75.383 304.896,77.983 307.5,80.583C305.417,82.667 303.338,84.746 300.733,86.829C296.571,81.104 287.725,80.067 282.004,83.708C278.363,86.308 277.321,92.033 279.921,95.675C282.525,98.796 286.688,99.837 290.85,101.396C295.529,102.437 300.733,104 304.375,108.162C308.017,111.804 308.538,117.008 308.017,121.687C307.5,126.892 304.375,131.575 299.692,134.175C295.013,136.779 289.808,137.817 284.604,137.3C278.363,136.779 272.117,134.175 268.475,128.975C270.558,126.892 273.158,124.812 275.238,123.25C279.921,130.012 290.329,132.096 296.571,126.892C300.213,124.292 301.254,118.567 298.133,114.925C295.013,111.804 290.329,110.762 286.167,109.721C281.483,108.162 276.8,106.079 273.679,101.917C271.075,98.796 270.558,94.112 270.558,89.95C271.075,84.746 273.702,79.511 277.864,76.911L277.842,76.942ZM628.967,128.339C628.168,130.499 627.357,132.647 626.446,134.696C623.325,135.217 620.204,134.696 617.079,134.696C625.925,114.925 634.771,94.633 643.617,74.862L650.379,74.862C658.704,94.633 667.55,114.404 675.875,134.696C672.754,134.696 669.633,135.217 666.508,134.696C663.908,130.012 662.346,124.812 660.267,120.129C650.9,120.129 641.538,120.129 632.171,120.129C631.259,122.178 630.448,124.326 629.65,126.486L628.967,128.339ZM788.263,74.862C801.271,74.862 813.754,74.862 826.763,74.862C826.763,77.462 826.763,80.067 826.763,82.667C816.879,82.667 806.471,82.667 796.588,82.667C796.588,88.392 796.588,94.633 796.588,100.358C805.95,100.358 815.317,100.358 825.204,100.358C825.204,102.958 825.204,105.558 825.204,108.162C815.838,108.162 806.471,108.162 796.588,108.162C796.588,114.404 796.588,120.65 796.588,126.892C806.992,126.892 817.917,126.892 828.325,126.892C828.325,129.492 828.325,132.096 828.325,134.696C814.796,134.696 801.788,134.696 788.263,134.696C788.263,114.925 788.263,94.633 788.263,74.862ZM700.85,74.862C716.458,74.862 732.067,74.862 747.679,74.862C747.679,77.462 747.679,80.067 747.679,82.667C741.433,82.667 734.671,82.667 728.425,82.667C728.425,99.837 728.425,117.525 728.425,134.696C725.825,134.696 723.225,134.696 720.1,134.696C720.1,117.525 720.1,99.837 720.1,82.667C713.858,82.667 707.096,82.667 700.85,82.667C700.85,80.067 700.85,77.462 700.85,74.862ZM480.712,134.927C479.688,134.925 478.663,134.867 477.638,134.696C475.558,130.012 473.479,124.812 471.396,120.129C462.029,120.129 452.667,120.129 443.3,120.129C442.389,122.178 441.578,124.326 440.779,126.486L440.096,128.339C439.297,130.499 438.486,132.647 437.575,134.696C434.454,134.696 431.333,134.696 428.213,134.696C431.855,126.046 435.695,117.297 439.561,108.535L442.876,101.023C446.742,92.262 450.583,83.512 454.225,74.862C456.829,74.862 459.429,74.862 461.508,74.862C469.833,94.633 478.679,114.404 487.004,134.696C484.956,134.696 482.908,134.92 480.859,134.927L480.712,134.927ZM539.554,76.942C546.321,73.3 554.646,72.779 561.929,74.342C567.654,75.383 572.854,77.462 576.496,81.625C574.417,83.708 572.854,85.787 570.775,87.871C562.45,80.067 547.879,79.025 539.554,87.35C530.713,95.154 529.671,109.721 535.913,119.087C539.554,124.292 544.758,127.933 551.004,128.975C557.246,129.492 563.492,128.975 569.213,126.371C569.213,120.65 569.213,115.446 569.213,109.721C565.05,109.721 560.367,109.721 556.204,109.721C556.204,107.121 556.204,104.521 556.204,101.917C563.492,101.917 570.254,101.917 577.538,101.917C577.538,111.283 577.538,121.171 577.538,130.533C577.538,131.575 576.496,132.096 575.458,132.617C567.654,136.258 559.329,137.3 551.004,136.779C542.158,136.258 533.829,131.575 529.15,124.292C523.946,117.008 522.388,107.642 523.946,99.317C525.508,89.95 530.752,81.105 539.598,76.943L539.554,76.942ZM351.204,134.696C351.204,114.925 351.204,94.633 351.204,74.862L390.225,74.862C390.225,77.462 390.225,80.067 390.225,82.667C379.821,82.667 369.933,82.667 359.529,82.667C359.529,88.392 359.529,94.633 359.529,100.358C368.896,100.358 378.258,100.358 387.625,100.358C387.625,102.958 387.625,105.558 387.625,108.162C378.258,108.162 368.896,108.162 359.529,108.162C359.529,114.404 359.008,120.65 359.529,126.892C361.608,127.412 364.213,126.892 366.292,126.892C374.617,126.892 382.942,126.892 391.267,126.892C391.267,129.492 391.267,132.096 391.267,134.696L351.204,134.696ZM635.292,112.846C638.933,104 642.575,94.633 646.738,85.787C650.379,94.633 654.021,104 657.667,112.846C650.379,112.846 642.575,112.846 635.292,112.846ZM446.421,112.846C450.063,104 453.704,94.633 457.867,85.787C461.508,94.633 465.154,104 468.796,112.846C461.508,112.846 453.704,112.846 446.421,112.846ZM78.042,6.7C80.646,5.142 83.246,3.579 85.85,2.537C86.888,5.142 88.45,7.742 89.492,10.346C83.767,13.467 78.042,16.067 72.842,19.708C58.271,28.554 44.746,38.962 33.296,51.967C24.454,62.375 17.167,74.862 15.608,88.908C15.088,97.233 16.646,106.079 21.85,112.846C26.533,118.567 33.817,122.729 41.1,123.771C49.425,125.329 58.271,124.292 66.075,122.208C82.204,118.046 96.775,110.242 110.825,101.917C119.146,96.712 127.471,91.512 134.238,84.229C136.838,81.104 138.921,77.462 138.921,73.3C138.921,70.179 136.838,67.058 134.238,66.017C131.633,64.454 127.992,63.933 124.871,64.454C120.708,65.496 116.546,67.579 112.383,69.658C100.417,75.904 90.013,84.229 78.042,90.471C70.758,94.112 62.954,97.754 54.629,97.754C49.425,97.754 44.225,95.675 41.1,91.512C38.5,88.392 37.458,84.746 37.979,80.583C38.5,74.342 41.1,68.096 44.746,63.417C51.508,54.05 60.875,47.287 70.758,41.562C87.408,30.637 105.621,21.792 124.871,16.587C135.279,13.987 145.683,12.425 156.088,12.946C171.179,13.467 186.267,18.15 198.754,26.996C213.325,37.4 224.25,54.05 225.292,72.258C226.85,87.35 222.167,102.437 215.404,115.967C210.2,126.371 202.917,135.737 195.113,144.062C188.867,150.825 182.104,157.071 175.342,162.792C166.496,170.596 156.608,177.362 146.725,183.604C136.838,189.85 125.913,195.05 114.988,199.733C111.863,201.296 108.221,202.858 105.1,203.896C103.017,194.533 99.896,185.167 97.817,175.8C106.663,171.637 115.504,167.996 124.35,163.312C134.238,158.112 143.604,151.346 152.446,144.583C160.25,138.337 167.538,132.096 174.3,124.812C185.746,112.846 195.113,97.233 197.192,80.583C197.713,74.342 197.713,68.617 196.154,62.375C192.513,49.887 183.667,38.962 171.7,32.717C161.813,27.512 150.367,25.433 139.442,26.475C123.308,27.512 108.221,33.758 94.175,41.042C87.408,44.683 81.167,48.325 74.921,52.487C68.679,56.129 62.954,60.292 58.271,66.017C56.192,68.617 54.629,71.742 54.629,74.862C54.629,76.942 56.192,79.546 58.271,80.067C61.913,81.625 66.075,80.067 69.721,78.504C86.888,70.179 101.458,57.171 119.667,50.929C128.513,47.804 138.921,47.287 147.767,50.929C155.05,54.05 160.771,60.812 162.333,68.617C162.854,73.3 162.854,77.983 161.292,82.146C158.692,88.908 154.529,94.633 149.325,99.837C143.083,106.079 135.796,111.283 128.513,115.967C118.108,121.687 108.221,128.454 97.296,133.137C87.929,137.3 77.525,140.942 67.638,143.542C56.192,146.662 44.225,147.183 32.779,144.583C21.329,141.979 11.967,135.737 6.763,126.892C2.079,119.608 0,110.762 0,102.437C0.517,92.55 2.6,82.667 6.763,73.821C14.046,58.733 24.971,45.204 37.979,34.279C50.467,23.35 63.996,13.987 78.563,6.183L78.042,6.7Z" style="fill:white;"/>
        </g>
    </g>
</svg>
