<svg viewBox="0 0 221 66" version="1.1" xmlns="http://www.w3.org/2000/svg" style="stroke-miterlimit:1.41421;clip-rule:evenodd;fill-rule:evenodd;stroke-linejoin:round">
 <path d="m33 63.56c-16.851 0-30.562-13.709-30.562-30.564 0-16.852 13.711-30.561 30.562-30.561 16.85 0 30.563 13.709 30.563 30.561 0 16.855-13.713 30.564-30.563 30.564" style="fill:#fff"/>
 <path d="m66 33c0-18.2-14.803-33-33-33-18.2 0-33 14.803-33 33 0 18.2 14.802 33 33 33 18.2 0 33-14.804 33-33m-33 29.17c-16.09 0-29.17-13.09-29.17-29.17 0-16.09 13.09-29.17 29.17-29.17 16.09 0 29.17 13.08 29.17 29.17 0 16.09-13.09 29.17-29.17 29.17m26.832-29.17c0 14.82-12.01 26.834-26.832 26.834-14.821 0-26.832-12.01-26.832-26.834 0-14.817 12.01-26.832 26.832-26.832 14.818 0 26.832 12.02 26.832 26.832" style="fill:#d33339"/>
 <g style="fill:#fff">
  <path d="m43.44 48.09c0 2.419-4.572 4.377-10.21 4.377-5.638 0-10.206-1.959-10.206-4.377 0-2.417 4.567-4.375 10.206-4.375 5.638 0 10.21 1.959 10.21 4.375m1.458-18.224c0 6.443-5.226 11.668-11.668 11.668-6.441 0-11.664-5.225-11.664-11.668 0-6.442 5.223-11.666 11.664-11.666 6.442 0 11.668 5.224 11.668 11.666m2.919-10.946c0 1.614-1.308 2.918-2.917 2.918-1.609 0-2.918-1.304-2.918-2.918 0-1.609 1.309-2.916 2.918-2.916 1.609 0 2.917 1.307 2.917 2.916"/>
  <path d="m77.65 44.957c.514 2.531 2.973 2.992 5.306 2.992 4.104 0 5.95-1.371 5.95-4.971v-.955c-1.47 1.867-3.819 2.512-6.106 2.512-4.327 0-8.275-2.532-8.275-7.61 0-4.623 3.856-7.547 8.344-7.547 2.259 0 4.567.731 6.04 2.553v-2.24h2.305v12.801c0 5.722-3.152 7.547-8.123 7.547-3.443 0-7.119-.805-7.832-5.08h2.394l.001-.002m27.02-10.429h-2.331c.4-3.151 2.062-5.149 6.942-5.149 4.752 0 6.723 1.598 6.723 4.413v10.455h-2.324v-2.02c-1.49 1.885-3.955 2.309-6.281 2.309-2.422 0-5.59-1.09-5.59-4.375 0-3.836 3.838-4.504 7.231-4.504h4.612v-1.594c0-1.779-1.127-2.596-4.412-2.596-3.106 0-4.282.951-4.57 3.061m113.26 4.787c-.926 3-2.902 5.221-7.828 5.221-5.149 0-7.815-3.352-7.815-7.549 0-3.967 2.6-7.608 7.925-7.608 3.678 0 7.918 2.02 7.918 8.412h-13.398c.111 2.574 2.039 4.679 5.369 4.679 3.189 0 4.838-1.265 5.435-3.153h2.393l.001-.002m-29.483-13.242h2.334v3.615h7.656v1.973h-7.656v7.219c0 2.637 1.152 3.592 3.816 3.592 2.842 0 4.126-1.086 4.613-3.153h2.264c-.75 3.153-2.417 5.22-6.877 5.22-4.104 0-6.15-1.753-6.15-5.304v-13.16-.002m-54.686 13.246c-.906 3.178-3.102 5.221-7.852 5.221-5.703 0-7.92-3.93-7.92-7.571 0-3.945 2.595-7.586 7.92-7.586 1.907 0 3.64.422 5.064 1.352 1.414.957 2.457 2.422 2.836 4.797h-2.375c-.645-2.912-2.531-4.061-5.525-4.061-2.976 0-5.503 1.925-5.503 5.323 0 3.02 1.55 5.679 5.503 5.679 3.352 0 4.636-1.152 5.458-3.154h2.394m44.505 5.221c-6.309-.005-8.424-4.2-8.424-7.524 0-4.416 3.246-7.633 8.41-7.633 4.883 0 8.414 2.618 8.414 7.633 0 3.678-2.419 7.52-8.4 7.524h.013-.026.013m-26.851-5.221c-.935 3-2.935 5.221-7.857 5.221-5.125 0-7.812-3.351-7.812-7.549 0-3.967 2.617-7.608 7.944-7.608 3.662 0 7.927 2.02 7.927 8.412h-13.402c.085 2.574 2.036 4.68 5.343 4.68 3.197 0 4.858-1.266 5.459-3.154h2.399l-.001-.002m66.824 3.674c0 .814.629 1.369 1.328 1.369.707 0 1.332-.555 1.332-1.369 0-.815-.625-1.369-1.332-1.369-.699 0-1.328.554-1.328 1.369m-62.41-13.296v2.105c.937-1.285 3.03-2.419 5.683-2.419 3.906 0 6.437 1.799 6.437 5.946v8.923h-2.308v-9.235c0-2.834-1.905-3.545-4.436-3.545-3.751 0-5.349 1.815-5.349 4.768v8.01h-2.305v-14.556h2.278m-59.42 0v2.037c.776-1.244 2.306-2.35 5.04-2.35v2.129c-3.684 0-5.04 1.754-5.04 4.727v8.01h-2.328v-14.556h2.328v.001m122.15 13.295c0-.625.45-1.07 1.01-1.07.555 0 1.019.445 1.019 1.07 0 .627-.464 1.07-1.019 1.07-.559 0-1.01-.443-1.01-1.07m1.056-.717c.364 0 .564.125.564.436 0 .269-.169.375-.374.396l.399.649h-.3l-.374-.641h-.203v.641h-.275v-1.481h.563m-.024.211h-.264v.426h.257c.177 0 .317-.028.317-.227 0-.17-.168-.199-.31-.199m-105.94-4.846h-5.03c-2.684 0-4.415.798-4.415 2.351 0 1.929 1.643 2.484 3.793 2.484 2.793 0 5.655-1.086 5.655-4.285v-.55m-30.854-6.168c3.703 0 6.193 2.062 6.193 5.46 0 3.282-2.312 5.544-6.193 5.544-3.617 0-5.879-2.286-5.879-5.544 0-3.375 2.572-5.46 5.879-5.46m95.47 0h.013-.026.013c-3.589.005-6.07 2.065-6.07 5.544 0 2.667 1.692 5.458 6.06 5.458 4.151 0 6.125-2.617 6.125-5.458 0-3.48-2.148-5.539-6.112-5.544m-29.19 4.323c-.506-2.973-2.75-4.323-5.39-4.323-2.395 0-4.949 1.199-5.457 4.323h10.848-.001m66.54 0c-.509-2.973-2.779-4.323-5.39-4.323-2.416 0-4.973 1.199-5.459 4.323h10.849m-123.18-12.747h-.714l-1.26-.112-.743-.266-.896-.533-.869-.924-.699-1.345-.168-.882-.042-1.01.069-1.163.267-.924.657-1.204.49-.546.771-.589 1.079-.448 1.372-.168 1.302.14 1.01.378.772.477.475.448.434.56.379.771.28 1.01.098 1.261-.028.7-.182.967-.448 1.106-.827 1.079-.701.574-.784.364-1.093.281m-14.06-.126h-1.33v-9.891h3.935l1.093.154.727.322.673.589.35.588.168.519.07.784-.112.924-.35.827-.616.687-.729.363-.798.155-.827.013h-2.255v3.965l.001.001m25.381-.001h-1.303l-3.165-9.89h1.372l2.424 7.985 2.144-7.985h1.288l2.227 7.97 2.339-7.97h1.317l-2.998 9.89h-1.316l-2.241-7.97-2.088 7.97m18.665 0h-6.962v-9.89h6.794v1.233h-5.478v3.01h5.169v1.176h-5.169v3.292h5.646v1.177m4.616 0h-1.303v-9.89h3.208l1.877.084.868.265.743.589.42.687.211 1.148-.141.98-.336.659-.448.448-.449.21-.448.14.714.238.448.491.267.616.224 1.302.266 1.149.252.575.267.308h-1.639l-.14-.308-.253-.743-.167-1.065-.155-.825-.196-.532-.435-.365-.491-.182-1.567-.084h-1.597v4.105m16.816-.001h-6.96v-9.89h6.792v1.233h-5.477v3.01h5.17v1.176h-5.17v3.292h5.645v1.177m5.457 0h-2.143v-9.89l3.03-.015 1.877.155.868.309.66.405.756.799.575 1.233.195.882.07 1.079-.139 1.442-.281 1.023-.533.981-.406.49-.741.518-.701.337-.799.168-2.283.084m18.19 0h-2.689v-9.89h4.03l.938.084.897.336.616.518.322.603.14.91-.126.882-.238.504-.281.294-.517.394-.365.112.84.336.673.714.252.602.099.77-.113.785-.168.519-.308.504-.504.476-.953.378-1.036.154-1.513.015m12.194 0h-1.288v-3.993l-3.67-5.897h1.555l2.802 4.553 2.801-4.553h1.569l-3.769 5.897v3.993m-84.85-6.571l-.406-.952-.84-.812-1.092-.42-.757-.098-.77.112-.686.21-.631.461-.603.701-.448 1.037-.182 1.331.168 1.429.239.657.336.604.644.685.939.477.994.14.728-.084.561-.154.741-.434.59-.63.532-1.318.21-1.358-.267-1.584m71.3 5.407h1.317l1.526-.055.981-.252.49-.463.196-.435.113-.546-.056-.391-.196-.547-.505-.448-.56-.224-1.275-.112-.965.014h-1.065v3.459m-16.728-7.577h-.925v7.55h1.654l1.358-.112.645-.21.574-.364.63-.842.322-.98.168-1.414-.224-1.5-.42-.924-.574-.63-.617-.308-.63-.168-1.961-.098m-69.45.041h-1.583v3.558h1.751l.953-.027.911-.252.505-.52.126-.378.096-.587-.138-.659-.211-.448-.378-.393-.798-.223-1.234-.071m48.45-.027h-1.372v3.516h2.633l1.093-.196.602-.463.21-.449.126-.685-.084-.519-.363-.686-.604-.365-.909-.111-1.332-.042m37.73 2.941h2.563l.813-.141.35-.168.322-.265.155-.35.111-.533-.182-.756-.293-.392-.547-.267-2.059-.097h-1.233v2.969"/>
 </g>
</svg>
