<?xml version="1.0" standalone="no"?>
<!DOCTYPE svg PUBLIC "-//W3C//DTD SVG 1.1//EN" "http://www.w3.org/Graphics/SVG/1.1/DTD/svg11.dtd">
<svg width="100%" height="100%" viewBox="0 0 414 137" version="1.1" xmlns="http://www.w3.org/2000/svg" xmlns:xlink="http://www.w3.org/1999/xlink" xml:space="preserve" style="fill:#a8a8a8;fill-rule:evenodd;clip-rule:evenodd;stroke-linejoin:round;stroke-miterlimit:1.41421;">
    <g transform="matrix(1,0,0,1,-5.62921,-5.368)">
        <g id="Fill-1" transform="matrix(1,0,0,1,5,30)">
            <path d="M267.447,68.675c-4.384,0 -7.279,-1.285 -10.307,-6.011c-2.951,-4.697 -7.897,-12.6 -7.897,-12.6l21.511,-29.973l-18.682,0l-17.078,23.784l0,-42.907l-15.612,0l0,82.38l15.612,0l0,-26.149c0,0 8.742,13.732 11.397,17.965c4.281,6.529 9.988,8.255 19.461,8.255l4.563,-0.011l0,-14.727c-1.658,0 -1.656,-0.006 -2.968,-0.006ZM410.735,68.675c-4.383,0 -7.278,-1.285 -10.305,-6.011c-2.952,-4.697 -7.899,-12.6 -7.899,-12.6l21.512,-29.973l-18.682,0l-17.08,23.784l0,-42.907l-15.61,0l0,82.38l15.61,0l0,-26.149c0,0 8.744,13.732 11.399,17.965c4.281,6.529 9.987,8.255 19.461,8.255l4.563,-0.011l0,-14.727c-1.658,0 -1.657,-0.006 -2.969,-0.006ZM24.711,84.032c-9.722,0 -17.661,-1.784 -24.082,-8.383l9.991,-9.99c3.299,3.299 9.097,4.459 14.18,4.459c6.155,0 9.099,-2.05 9.099,-5.707c0,-1.518 -0.355,-2.77 -1.248,-3.755c-0.802,-0.802 -2.142,-1.43 -4.194,-1.696l-7.669,-1.068c-5.62,-0.804 -9.901,-2.677 -12.756,-5.621c-2.945,-3.031 -4.369,-7.313 -4.369,-12.752c0,-11.596 8.741,-20.072 23.188,-20.072c9.099,0 15.968,2.141 21.408,7.582l-9.811,9.811c-4.016,-4.014 -9.278,-3.746 -12.043,-3.746c-5.44,0 -7.668,3.124 -7.668,5.887c0,0.804 0.266,1.962 1.248,2.944c0.803,0.804 2.138,1.606 4.372,1.874l7.667,1.071c5.709,0.8 9.812,2.584 12.489,5.262c3.389,3.299 4.725,8.024 4.725,13.923c0,12.934 -11.147,19.977 -24.527,19.977ZM96.489,76.897c-4.639,4.639 -9.992,7.135 -17.751,7.135c-7.761,0 -13.112,-2.496 -17.749,-7.135c-6.69,-6.689 -6.423,-15.613 -6.423,-25.162c0,-9.542 -0.267,-18.463 6.423,-25.152c4.637,-4.639 9.988,-7.136 17.749,-7.136c7.759,0 13.112,2.497 17.751,7.136c6.688,6.689 6.421,15.61 6.421,25.152c0,9.549 0.267,18.473 -6.421,25.162ZM78.738,33.362c-2.854,0 -5.085,1.25 -6.242,2.766c-1.426,1.872 -2.32,4.013 -2.32,15.607c0,11.608 0.894,13.658 2.32,15.531c1.157,1.516 3.388,2.852 6.242,2.852c2.855,0 5.084,-1.336 6.244,-2.852c1.426,-1.873 2.318,-3.923 2.318,-15.531c0,-11.594 -0.892,-13.735 -2.318,-15.607c-1.16,-1.516 -3.389,-2.766 -6.244,-2.766ZM332.758,84.105c-7.402,0 -13.022,-2.498 -17.66,-7.137c-6.683,-6.687 -6.417,-15.615 -6.417,-25.159c0,-9.549 -0.266,-18.466 6.417,-25.153c4.638,-4.639 10.258,-7.138 17.66,-7.138c12.044,0 21.765,6.691 24.084,20.694l-15.875,0c-0.982,-3.569 -2.944,-6.778 -8.119,-6.778c-2.854,0 -4.993,1.159 -6.155,2.675c-1.426,1.874 -2.407,4.103 -2.407,15.7c0,11.601 0.981,13.833 2.407,15.704c1.162,1.518 3.301,2.678 6.155,2.678c5.175,0 7.137,-3.212 8.119,-6.781l15.875,0c-2.319,14.002 -12.04,20.695 -24.084,20.695ZM196.18,88.174c0,8.361 -5.774,9.839 -9.508,9.839l-5.676,0.037l0,13.926l6.923,0.024c15.535,-0.099 24.008,-8.216 24.008,-23.797l-0.055,-46.889c0,-7.313 -3.367,-13.114 -8.293,-16.857c-4.394,-3.337 -10.036,-5.014 -15.66,-5.014c-7.403,0 -13.022,2.499 -17.657,7.139c-6.693,6.687 -6.423,15.603 -6.423,25.152c0,9.544 -0.27,18.472 6.423,25.159c4.635,4.639 10.254,7.137 17.657,7.137c2.873,0 5.464,-0.573 8.261,-1.917l0,6.061ZM188.009,70.116c-2.855,0 -4.995,-1.16 -6.155,-2.677c-1.427,-1.872 -2.408,-4.104 -2.408,-15.705c0,-11.597 0.981,-13.826 2.408,-15.7c1.16,-1.516 3.3,-2.675 6.155,-2.675c5.086,0 7.064,3.1 8.063,6.599l0,23.561c-0.999,3.492 -2.977,6.597 -8.063,6.597ZM157.543,47.51c0,-6.481 0.259,-14.266 -6.423,-20.945c-4.637,-4.64 -9.988,-7.137 -17.75,-7.137c-7.759,0 -13.113,2.497 -17.75,7.137c-6.689,6.689 -6.423,14.873 -6.423,20.942l-0.004,35.97l15.598,-0.004l0.016,-35.966c0,-8.117 0.891,-9.309 2.319,-11.181c1.16,-1.515 3.388,-2.983 6.244,-2.983c2.855,0 5.084,1.468 6.242,2.983c1.427,1.872 2.32,2.852 2.32,11.22l-0.029,35.901l15.601,0.025l0.039,-35.962ZM292.21,12.338l0,-11.355l-15.55,-0.002l-0.002,11.33l15.552,0.027ZM276.241,20.099l15.872,0.009l0.002,38.791c0.025,6.529 4.435,9.771 9.618,9.771l1.834,0.003l0,14.757l-3.299,0.036c-15.841,-0.099 -24.007,-8.778 -24.007,-24.043l-0.02,-39.324Z" />
        </g>
        <path id="concerts-by" d="M24.452,28.732l-3.996,-3.996c-0.756,0.756 -1.404,1.152 -2.376,1.152c-0.792,0 -1.332,-0.252 -1.836,-0.756c-0.684,-0.72 -0.972,-1.98 -0.972,-3.816c0,-1.836 0.288,-3.096 0.972,-3.816c0.504,-0.504 1.044,-0.756 1.836,-0.756c0.972,0 1.62,0.396 2.376,1.152l3.996,-3.996c-1.584,-1.584 -3.672,-2.484 -6.372,-2.484c-3.348,0 -8.712,1.44 -8.712,9.9c0,8.46 5.364,9.9 8.712,9.9c2.7,0 4.788,-0.9 6.372,-2.484ZM43.352,21.316c0,-3.78 -0.504,-5.652 -2.124,-7.416c-1.152,-1.224 -3.096,-2.484 -6.228,-2.484c-3.132,0 -5.076,1.26 -6.228,2.484c-1.62,1.764 -2.124,3.636 -2.124,7.416c0,3.816 0.504,5.652 2.124,7.416c1.152,1.224 3.096,2.484 6.228,2.484c3.132,0 5.076,-1.26 6.228,-2.484c1.62,-1.764 2.124,-3.6 2.124,-7.416ZM37.448,21.316c0,1.908 -0.108,3.276 -0.864,4.032c-0.36,0.36 -0.864,0.54 -1.584,0.54c-0.72,0 -1.224,-0.18 -1.584,-0.54c-0.756,-0.756 -0.864,-2.124 -0.864,-4.032c0,-1.908 0.108,-3.276 0.864,-4.032c0.36,-0.36 0.864,-0.54 1.584,-0.54c0.72,0 1.224,0.18 1.584,0.54c0.756,0.756 0.864,2.124 0.864,4.032ZM63.692,31l0,-12.384c0,-2.052 -0.288,-3.888 -1.944,-5.544c-1.044,-1.044 -2.52,-1.656 -4.356,-1.656c-1.548,0 -3.312,0.612 -4.5,1.8l0,-1.584l-5.76,0l0,19.368l5.904,0l0,-11.592c0,-2.232 1.584,-2.664 2.376,-2.664c0.792,0 2.376,0.432 2.376,2.664l0,11.592l5.904,0ZM82.196,28.732l-3.996,-3.996c-0.756,0.756 -1.404,1.152 -2.376,1.152c-0.792,0 -1.332,-0.252 -1.836,-0.756c-0.684,-0.72 -0.972,-1.98 -0.972,-3.816c0,-1.836 0.288,-3.096 0.972,-3.816c0.504,-0.504 1.044,-0.756 1.836,-0.756c0.972,0 1.62,0.396 2.376,1.152l3.996,-3.996c-1.584,-1.584 -3.672,-2.484 -6.372,-2.484c-3.348,0 -8.712,1.44 -8.712,9.9c0,8.46 5.364,9.9 8.712,9.9c2.7,0 4.788,-0.9 6.372,-2.484ZM101.6,23.224l0,-2.628c0,-5.076 -3.096,-9.18 -8.712,-9.18c-5.076,0 -8.676,3.564 -8.676,9.9c0,8.352 4.932,9.9 9.216,9.9c3.6,0 5.544,-1.08 7.524,-3.06l-3.528,-3.528c-1.044,1.044 -1.944,1.62 -3.996,1.62c-2.196,0 -3.42,-1.44 -3.42,-3.024l11.592,0ZM95.768,19.3l-5.76,0c0,-0.468 0.072,-1.008 0.324,-1.512c0.36,-0.828 1.152,-1.512 2.556,-1.512c1.404,0 2.196,0.684 2.556,1.512c0.252,0.504 0.324,1.044 0.324,1.512ZM120.068,13.216c-1.332,-1.332 -2.628,-1.8 -4.536,-1.8c-2.016,0 -3.708,0.936 -4.572,1.8l0,-1.584l-5.76,0l0,19.368l5.904,0l0,-11.592c0,-2.196 1.584,-2.664 2.376,-2.664c1.008,0 1.548,0.432 2.124,1.008l4.464,-4.536ZM131.696,31l0,-4.968l-1.872,0c-0.792,0 -1.188,-0.432 -1.188,-1.188l0,-7.92l3.06,0l0,-4.536l-3.06,0l0,-5.544l-5.904,0l0,5.544l-1.764,0l0,4.536l1.764,0l0,8.352c0,2.664 1.728,5.724 6.012,5.724l2.952,0ZM150.308,24.664c0,-3.096 -1.764,-5.508 -5.832,-5.904l-2.988,-0.288c-1.332,-0.144 -1.26,-0.864 -1.26,-1.08c0,-0.432 0.468,-1.116 1.908,-1.116c1.512,0 3.132,0.18 4.104,1.152l3.636,-3.636c-1.908,-1.908 -4.464,-2.376 -7.632,-2.376c-3.852,0 -7.704,2.124 -7.704,6.408c0,3.78 2.268,5.292 5.616,5.616l2.988,0.288c1.152,0.108 1.404,0.684 1.404,1.224c0,1.008 -1.656,1.26 -2.52,1.26c-1.008,0 -3.096,0 -4.716,-1.62l-3.816,3.816c2.664,2.664 5.508,2.808 8.424,2.808c4.5,0 8.388,-1.98 8.388,-6.552ZM178.208,21.316c0,-2.844 0.108,-6.228 -1.8,-8.136c-1.116,-1.116 -2.808,-1.764 -4.68,-1.764c-1.908,0 -3.24,0.54 -4.32,1.62l0,-7.668l-5.904,0l0,25.632l5.724,0l0,-1.584c1.188,1.188 2.448,1.8 4.464,1.8c1.872,0 3.6,-0.648 4.716,-1.764c1.908,-1.908 1.8,-5.292 1.8,-8.136ZM172.304,21.316c0,2.808 -0.252,4.572 -2.448,4.572c-2.196,0 -2.448,-1.764 -2.448,-4.572c0,-2.808 0.252,-4.572 2.448,-4.572c2.196,0 2.448,1.764 2.448,4.572ZM198.548,11.632l-6.192,0l-3.132,10.044l-3.276,-10.044l-6.192,0l6.444,17.46l-0.54,1.62c-0.396,1.188 -0.936,1.44 -1.98,1.44l-1.26,0l0,5.328l2.232,0c1.728,0 3.204,-0.396 4.356,-1.62c0.612,-0.612 1.116,-1.44 1.512,-2.556l8.028,-21.672Z" />
    </g>
</svg>
