/* XPM */
static char * closedfolder_dis_xpm[] = {
"16 16 4 1",
" 	c None",
".	c #808080",
"X	c #c0c0c0",
"o	c Black",
"                ",
"  .....         ",
" .XXXXX.        ",
".XXXXXXX......  ",
".XXXXXXXXXXXX.o ",
".XXXXXXXXXXXX.o ",
".XXXXXXXXXXXX.o ",
".XXXXXXXXXXXX.o ",
".XXXXXXXXXXXX.o ",
".XXXXXXXXXXXX.o ",
".XXXXXXXXXXXX.o ",
".XXXXXXXXXXXX.o ",
"..............o ",
" oooooooooooooo ",
"                ",
"                "};
