/* XPM */
static char *configtool_xpm[] = {
"32 32 4 1",
" 	c None",
".	c Black",
"X	c Yellow",
"o	c #800000",
"                                ",
"                                ",
"                                ",
"             ........           ",
"             .XXXXXX.           ",
"             .XXXXXX.           ",
"             .XXXXXX.           ",
"             .XXXXXX.           ",
"             .XXXXXX.           ",
"             .XXXXXX.           ",
"........     ........           ",
".XXXXXX.                        ",
".XXXXXX.                .       ",
".XXXXXX.               .X.      ",
".XXXXXX.              .XXX.     ",
".XXXXXX.             .XXXXX.    ",
".XXXXXX.            .XXXXXXX.   ",
".oooooo........    .XXXXXXXXX.  ",
".XXXXXXoXXXXXX.     .XXXXXXX.   ",
".XXXXXXoXXXXXX.      .XXXXX.    ",
".XXXXXXoXXXXXX.       .XXX.     ",
".XXXXXXoXXXXXX.        .X.      ",
".XXXXXXoXXXXXX.         .       ",
".XXXXXXoXXXXXX.                 ",
"..ooooo.oooooo........          ",
".XXXXXXoXXXXXXoXXXXXX.          ",
".XXXXXXoXXXXXXoXXXXXX.          ",
".XXXXXXoXXXXXXoXXXXXX.          ",
".XXXXXXoXXXXXXoXXXXXX.          ",
".XXXXXXoXXXXXXoXXXXXX.          ",
".XXXXXXoXXXXXXoXXXXXX.          ",
"......................          "
};
