/* XPM */
static char * enumerated_xpm[] = {
"16 16 4 1",
" 	c None",
".	c Black",
"X	c #c0c0c0",
"o	c #808080",
"                ",
"................",
".        ..XXX..",
".        ...X...",
".        .......",
"................",
".        .     .",
".        . X.Xo.",
". ....   . ...o.",
".        .ooooo.",
". ...... .......",
".        .     .",
". .....  . ...o.",
".        . X.Xo.",
".        .ooooo.",
"................"};
