/* XPM */
static char * enumerated_dis_xpm[] = {
"16 16 4 1",
" 	c None",
".	c Black",
"X	c #c0c0c0",
"o	c #808080",
"                ",
"................",
".XXXXXXXX..XXX..",
".XXXXXXXX...X...",
".XXXXXXXX.......",
"................",
".XXXXXXXX.XXXXX.",
".XXXXXXXX.XX.Xo.",
".X....XXX.X...o.",
".XXXXXXXX.ooooo.",
".X......X.......",
".XXXXXXXX.     .",
".X.....XX. ...o.",
".XXXXXXXX. X.Xo.",
".XXXXXXXX.ooooo.",
"................"};
