/* XPM */
static char * package_open_xpm[] = {
"16 16 9 1",
" 	c None",
".	c Black",
"X	c Red",
"o	c Blue",
"O	c #008000",
"+	c #c0c0c0",
"@	c Gray100",
"#	c Yellow",
"$	c #808000",
"                ",
"            ....",
"  .      .  .XX.",
" .o.    .O. .XX.",
".ooo.  .OO. ....",
" .o.    .O.     ",
"         .      ",
"  ..            ",
"  .+..........  ",
"   .++++++.++.  ",
"   ..........   ",
"   .@#@#@#.$.   ",
"   .#@#@#@.$.   ",
"   .@#@#@#...   ",
"   .........    ",
"                "};
