/* XPM */
static char * package_closed_xpm[] = {
"16 16 6 1",
" 	c None",
".	c Black",
"X	c #c0c0c0",
"o	c #808000",
"O	c Gray100",
"+	c Yellow",
"                ",
"                ",
"                ",
"                ",
"                ",
"                ",
"                ",
"                ",
"    .........   ",
"   .XXXXXXX..   ",
"   ........o.   ",
"   .O+O+O+.o.   ",
"   .+O+O+O.o.   ",
"   .O+O+O+...   ",
"   .........    ",
"                "};
