/* XPM */
static char * package_version_xpm[] = {
"16 16 7 1",
" 	c None",
".	c Black",
"X	c Magenta",
"o	c #c0c0c0",
"O	c Gray100",
"+	c #800080",
"@	c #808080",
"                ",
"     .          ",
"    .X.         ",
"   .XXX.        ",
"  .XXXXX.       ",
" .XXXXXXX.      ",
" ..XXXXXXX.     ",
" .X.XXXXX..     ",
" .XX.XXX....... ",
"  .XX.X..oOOOOo.",
"   .XX.+.O.@.OO.",
"    .X.+.O.@O.O.",
"     ....O.OO.O.",
"      . .O.OO.O.",
"        .oOOOOo.",
"         ...... "};
