<svg width="110" height="110" xmlns="http://www.w3.org/2000/svg">
    <defs>
        <radialGradient cx="86.849%" cy="30.027%" fx="86.849%" fy="30.027%" r=".535%" gradientTransform="matrix(1 0 0 .36288 0 .191)" id="a">
            <stop stop-color="#FFEA00" offset="0%"/>
            <stop stop-color="#FFEA00" offset="5%"/>
            <stop stop-color="#FFDE00" offset="12%"/>
            <stop stop-color="#FFBF00" offset="25%"/>
            <stop stop-color="#FF8E00" offset="43%"/>
            <stop stop-color="#FF272D" offset="77%"/>
            <stop stop-color="#E0255A" offset="87%"/>
            <stop stop-color="#CC2477" offset="95%"/>
            <stop stop-color="#C42482" offset="100%"/>
        </radialGradient>
        <radialGradient cx="70.828%" cy="12.393%" fx="70.828%" fy="12.393%" r="109.234%" gradientTransform="matrix(1 0 0 .9947 0 0)" id="b">
            <stop stop-color="#00CCDA" offset="0%"/>
            <stop stop-color="#0083FF" offset="22%"/>
            <stop stop-color="#007AF9" offset="26%"/>
            <stop stop-color="#0060E8" offset="33%"/>
            <stop stop-color="#005FE7" offset="33%"/>
            <stop stop-color="#2639AD" offset="44%"/>
            <stop stop-color="#401E84" offset="52%"/>
            <stop stop-color="#4A1475" offset="57%"/>
            <stop stop-color="#4A1475" offset="100%"/>
        </radialGradient>
        <linearGradient x1="57.339%" y1="75.22%" x2="35.146%" y2="6.805%" id="c">
            <stop stop-color="#000F43" stop-opacity=".4" offset="0%"/>
            <stop stop-color="#001962" stop-opacity=".173" offset="49%"/>
            <stop stop-color="#002079" stop-opacity="0" offset="100%"/>
        </linearGradient>
        <radialGradient cx="147.729%" cy="-21.664%" fx="147.729%" fy="-21.664%" r=".525%" gradientTransform="matrix(.92332 0 0 1 .113 0)" id="d">
            <stop stop-color="#FFEA00" offset="0%"/>
            <stop stop-color="#FF272D" offset="50%"/>
            <stop stop-color="#C42482" offset="100%"/>
        </radialGradient>
        <radialGradient cx="135.979%" cy="-52.131%" fx="135.979%" fy="-52.131%" r=".831%" gradientTransform="matrix(1 0 0 .54148 0 -.239)" id="e">
            <stop stop-color="#FFE900" offset="0%"/>
            <stop stop-color="#FFAF0E" offset="16%"/>
            <stop stop-color="#FF7A1B" offset="32%"/>
            <stop stop-color="#FF4E26" offset="47%"/>
            <stop stop-color="#FF2C2E" offset="62%"/>
            <stop stop-color="#FF1434" offset="76%"/>
            <stop stop-color="#FF0538" offset="89%"/>
            <stop stop-color="#FF0039" offset="100%"/>
        </radialGradient>
        <radialGradient cx="211.882%" cy="2.145%" fx="211.882%" fy="2.145%" r=".754%" gradientTransform="matrix(.53347 0 0 1 .989 0)" id="f">
            <stop stop-color="#FF272D" offset="0%"/>
            <stop stop-color="#C42482" offset="50%"/>
            <stop stop-color="#620700" offset="99%"/>
            <stop stop-color="#620700" offset="100%"/>
        </radialGradient>
        <radialGradient cx="76.845%" cy="39.179%" fx="76.845%" fy="39.179%" r="84.043%" gradientTransform="matrix(1 0 0 .95947 0 .016)" id="g">
            <stop stop-color="#FFEA00" offset="0%"/>
            <stop stop-color="#FFEA00" offset="16%"/>
            <stop stop-color="#FFDE00" offset="23%"/>
            <stop stop-color="#FFBF00" offset="37%"/>
            <stop stop-color="#FF8E00" offset="54%"/>
            <stop stop-color="#FF272D" offset="76%"/>
            <stop stop-color="#F92433" offset="80%"/>
            <stop stop-color="#E91C45" offset="84%"/>
            <stop stop-color="#CF0E62" offset="89%"/>
            <stop stop-color="#B5007F" offset="94%"/>
            <stop stop-color="#B5007F" offset="100%"/>
        </radialGradient>
        <radialGradient cx="24.953%" cy=".138%" fx="24.953%" fy=".138%" r="249.815%" gradientTransform="matrix(1 0 0 .39648 0 0)" id="h">
            <stop stop-color="#FFEA00" offset="0%"/>
            <stop stop-color="#FFEA00" offset="28%"/>
            <stop stop-color="#FD0" offset="40%"/>
            <stop stop-color="#FFBA00" offset="63%"/>
            <stop stop-color="#FF9100" offset="86%"/>
            <stop stop-color="#FF6711" offset="93%"/>
            <stop stop-color="#FF4A1D" offset="99%"/>
            <stop stop-color="#FF4A1D" offset="100%"/>
        </radialGradient>
        <linearGradient x1="-121.602%" y1="64.456%" x2="142.343%" y2="29.666%" id="i">
            <stop stop-color="#C42482" stop-opacity=".498" offset="0%"/>
            <stop stop-color="#FF272D" stop-opacity=".498" offset="47%"/>
            <stop stop-color="#FF2C2C" stop-opacity=".51" offset="49%"/>
            <stop stop-color="#FF7A1A" stop-opacity=".718" offset="68%"/>
            <stop stop-color="#FFB20D" stop-opacity=".871" offset="83%"/>
            <stop stop-color="#FFD605" stop-opacity=".961" offset="94%"/>
            <stop stop-color="#FFE302" offset="100%"/>
        </linearGradient>
        <linearGradient x1="56.497%" y1="94.893%" x2="19.49%" y2="5.478%" id="j">
            <stop stop-color="#891551" stop-opacity=".6" offset="0%"/>
            <stop stop-color="#C42482" stop-opacity="0" offset="100%"/>
        </linearGradient>
        <linearGradient x1="8.04%" y1="6.686%" x2="47.914%" y2="47.886%" id="k">
            <stop stop-color="#891551" stop-opacity=".498" offset="0%"/>
            <stop stop-color="#891551" stop-opacity=".498" offset="1%"/>
            <stop stop-color="#FF272D" stop-opacity=".498" offset="48%"/>
            <stop stop-color="#FF272D" stop-opacity="0" offset="100%"/>
        </linearGradient>
        <linearGradient x1="47.509%" y1="102.675%" x2="50.009%" y2="31.749%" id="l">
            <stop stop-color="#C42482" offset="0%"/>
            <stop stop-color="#C42482" stop-opacity=".808" offset="8%"/>
            <stop stop-color="#C42482" stop-opacity=".565" offset="21%"/>
            <stop stop-color="#C42482" stop-opacity=".361" offset="33%"/>
            <stop stop-color="#C42482" stop-opacity=".204" offset="45%"/>
            <stop stop-color="#C42482" stop-opacity=".09" offset="56%"/>
            <stop stop-color="#C42482" stop-opacity=".02" offset="67%"/>
            <stop stop-color="#C42482" stop-opacity="0" offset="77%"/>
            <stop stop-color="#C42482" stop-opacity="0" offset="100%"/>
        </linearGradient>
        <linearGradient x1="6.334%" y1="1.647%" x2="92.351%" y2="89.461%" id="m">
            <stop stop-color="#FFF14F" offset="0%"/>
            <stop stop-color="#FFEE4C" offset="27%"/>
            <stop stop-color="#FFE643" offset="45%"/>
            <stop stop-color="#FFD834" offset="61%"/>
            <stop stop-color="#FFC41E" offset="76%"/>
            <stop stop-color="#FFAB02" offset="89%"/>
            <stop stop-color="#FFA900" offset="90%"/>
            <stop stop-color="#FFA000" offset="95%"/>
            <stop stop-color="#FF9100" offset="100%"/>
        </linearGradient>
        <linearGradient x1="71.789%" y1="7.159%" x2="42.746%" y2="81.948%" id="n">
            <stop stop-color="#FF8E00" offset="0%"/>
            <stop stop-color="#FF8E00" stop-opacity=".855" offset="4%"/>
            <stop stop-color="#FF8E00" stop-opacity=".725" offset="8%"/>
            <stop stop-color="#FF8E00" stop-opacity=".627" offset="13%"/>
            <stop stop-color="#FF8E00" stop-opacity=".557" offset="18%"/>
            <stop stop-color="#FF8E00" stop-opacity=".514" offset="23%"/>
            <stop stop-color="#FF8E00" stop-opacity=".498" offset="28%"/>
            <stop stop-color="#FF8E00" stop-opacity=".475" offset="39%"/>
            <stop stop-color="#FF8E00" stop-opacity=".416" offset="52%"/>
            <stop stop-color="#FF8E00" stop-opacity=".314" offset="68%"/>
            <stop stop-color="#FF8E00" stop-opacity=".169" offset="84%"/>
            <stop stop-color="#FF8E00" stop-opacity="0" offset="100%"/>
        </linearGradient>
    </defs>
    <g fill="none" fill-rule="evenodd">
        <path fill="#191A1C" fill-rule="nonzero" d="M0 0h110v110H0z"/>
        <path d="M50.06 5.95c-1.556 1.812-2.28 5.89-.703 10.025 1.578 4.135 3.997 3.237 5.505 7.453 1.99 5.563 1.064 13.036 1.064 13.036s2.392 6.929 4.06-.431C63.676 22.21 50.06 9.354 50.06 5.95z" fill="url(#a)" transform="translate(24 22.5)"/>
        <path d="M31.07 63.341c15.937 0 28.849-12.98 28.849-28.987 0-16.006-12.912-28.987-28.834-28.987-15.922 0-28.833 12.981-28.833 28.987C2.22 50.376 15.147 63.341 31.07 63.341z" fill="url(#b)" transform="translate(24 22.5)"/>
        <path d="M52.685 52.228c-.623.44-1.277.835-1.957 1.182.9-1.32 1.731-2.686 2.489-4.092.615-.68 1.178-1.342 1.637-2.057.223-.352.475-.785.742-1.288 1.62-2.918 3.405-7.64 3.456-12.491v-.012c0-.12.002-.239 0-.358a16.74 16.74 0 0 0-.37-3.623l.036.278c-.015-.071-.027-.143-.042-.215.024.132.043.26.063.389.331 2.809.095 5.548-1.084 7.568l-.056.086c.611-3.07.816-6.46.135-9.853 0 0-.272-1.65-2.299-6.657-1.167-2.883-3.238-5.246-5.069-6.967-1.605-1.986-3.062-3.318-3.865-4.164C44.823 8.187 44.119 6.863 43.83 6c-.25-.126-3.454-3.237-3.708-3.356-1.398 2.168-5.795 8.948-3.703 15.282.947 2.87 3.344 5.85 5.853 7.522.11.126 1.493 1.627 2.15 5.014.68 3.5.322 6.23-1.075 10.267-1.643 3.543-5.853 7.044-9.795 7.403-8.428.765-11.513-4.232-11.513-4.232 3.011 1.204 6.34.952 8.365-.296 2.041-1.262 3.275-2.198 4.277-1.829.988.367 1.775-.7 1.069-1.805a5.11 5.11 0 0 0-5.16-2.246c-2.043.332-3.914 1.95-6.591.383a5.56 5.56 0 0 1-.502-.33c-.177-.115.573.177.398.045-.52-.283-1.442-.9-1.682-1.119-.04-.036.405.142.365.105-2.503-2.06-2.19-3.453-2.112-4.326.063-.699.518-1.594 1.284-1.957.37.202.6.356.6.356s-.157-.322-.243-.492c.03-.013.059-.01.088-.022.304.146.974.526 1.327.758.46.324.606.613.606.613s.12-.066.031-.35c-.032-.115-.172-.484-.627-.855l.028.003c.273.155.531.334.772.535.128-.466.359-.954.308-1.825-.03-.613-.017-.772-.125-1.009-.096-.203.055-.282.223-.071a2.13 2.13 0 0 0-.144-.481l.002-.016c.21-.73 4.435-2.63 4.743-2.851.505-.358.929-.819 1.243-1.352.235-.375.412-.9.455-1.697.023-.575-.244-.958-4.517-1.405-1.169-.115-1.855-.962-2.244-1.743-.071-.169-.144-.321-.216-.474a3.773 3.773 0 0 1-.167-.547c.699-2.007 1.873-3.703 3.599-4.985.094-.086-.376.022-.282-.064.11-.1.826-.388.96-.453.166-.078-.706-.449-1.476-.359-.785.089-.951.182-1.37.36.174-.173.726-.4.597-.398-.846.13-1.897.621-2.795 1.178a.697.697 0 0 1 .054-.283c-.418.178-1.446.896-1.746 1.504a2.89 2.89 0 0 0 .018-.35 5.49 5.49 0 0 0-.858.897l-.015.014c-2.428-.978-4.565-1.041-6.373-.602-.395-.398-.589-.107-1.489-2.085-.06-.119.047.118 0 0-.148-.383.09.512 0 0-1.513 1.194-3.504 2.548-4.46 3.503-.011.038 1.115-.319 0 0-.39.111-.364.343-.423 2.437-.014.159-.001.336-.014.48-.764.972-1.284 1.796-1.48 2.223-.988 1.701-2.075 4.353-3.13 8.55a21.728 21.728 0 0 1 1.676-3.276C4.011 28.117 3.163 31.614 2.994 37a31.44 31.44 0 0 1 .814-3.293 30.743 30.743 0 0 0 2.258 13.067c.606 1.483 1.61 3.734 3.316 6.2 5.364 5.643 12.93 9.157 21.307 9.157 8.746 0 16.6-3.827 21.996-9.903z" fill="url(#c)" transform="translate(24 22.5)"/>
        <path d="M46.214 56.327c10.585-1.226 15.27-12.134 9.253-12.348-5.435-.174-14.267 12.926-9.253 12.348z" fill="url(#d)" transform="translate(24 22.5)"/>
        <path d="M56.23 41.75c7.282-4.237 5.383-13.392 5.383-13.392s-2.81 3.265-4.72 8.47c-1.886 5.153-5.042 7.483-.664 4.923z" fill="url(#e)" transform="translate(24 22.5)"/>
        <path d="M33.11 61.744c10.154 3.24 18.88-4.758 13.5-7.43-4.89-2.408-18.319 5.898-13.5 7.43z" fill="url(#f)" transform="translate(24 22.5)"/>
        <path d="M56.986 45.638c.247-.349.581-1.465.876-1.964 1.793-2.893 1.805-5.2 1.805-5.253 1.083-5.408.985-7.617.319-11.7-.537-3.29-2.88-8-4.912-10.27-2.092-2.337-.618-1.575-2.644-3.282-1.776-1.97-3.498-3.919-4.436-4.703-6.777-5.665-6.624-6.869-6.493-7.074a7.86 7.86 0 0 0-.096.107c-.08-.32-.137-.59-.137-.59s-3.704 3.705-4.484 9.88c-.51 4.03 1 8.232 3.185 10.917a24.784 24.784 0 0 0 3.834 3.77v-.002c1.65 2.37 2.56 5.296 2.56 8.443 0 7.88-6.392 14.267-14.276 14.267-1.074 0-2.145-.12-3.193-.359-3.72-.708-5.868-2.585-6.94-3.859-.613-.73-.874-1.262-.874-1.262 3.333 1.194 7.018.944 9.259-.294 2.258-1.252 3.625-2.18 4.733-1.814 1.094.364 1.964-.693 1.183-1.79-.765-1.094-2.755-2.662-5.71-2.228-2.262.33-4.333 1.934-7.295.38-.191-.099-.377-.208-.556-.326-.196-.115.635.175.44.044-.576-.28-1.596-.892-1.86-1.11-.045-.036.447.141.402.105-2.77-2.044-2.424-3.425-2.337-4.29.07-.694.573-1.581 1.42-1.941.41.2.666.353.666.353s-.175-.32-.27-.489c.033-.012.065-.009.098-.022.335.145 1.077.522 1.468.752.508.322.67.608.67.608s.134-.066.035-.346c-.036-.115-.19-.48-.694-.849l.032.003c.299.153.584.33.853.531.142-.462.398-.946.342-1.81-.035-.608-.019-.765-.138-1-.107-.202.06-.28.245-.07a1.953 1.953 0 0 0-.158-.478l.001-.016c.232-.724 4.91-2.607 5.25-2.828a4.57 4.57 0 0 0 1.376-1.34c.26-.372.456-.893.503-1.683.016-.356-.093-.638-1.332-.908-.743-.162-1.894-.32-3.668-.486-1.293-.114-2.052-.953-2.483-1.728a10.657 10.657 0 0 0-.24-.47 3.451 3.451 0 0 1-.183-.543 10.3 10.3 0 0 1 3.982-4.943c.104-.085-.416.021-.312-.063.122-.1.914-.386 1.064-.45.183-.077-.783-.445-1.635-.355-.868.087-1.052.18-1.516.356.193-.171.804-.396.66-.395-.935.129-2.098.616-3.093 1.168a.629.629 0 0 1 .06-.28c-.463.176-1.6.889-1.932 1.492.014-.116.02-.232.019-.348-.349.26-.667.558-.949.89l-.017.014c-2.687-.97-5.052-1.032-7.053-.598-.438-.394-1.142-.99-2.138-2.95-.067-.118-.104.244-.156.127-.387-.897-.62-2.368-.582-3.382 0 0-.8.365-1.463 1.888-.123.274-.202.425-.281.577-.036.044.082-.5.063-.471-.115.195-.413.467-.544.82-.09.261-.216.407-.296.733l-.02.03c-.006-.096.025-.395.003-.334-.311.628-.578 1.276-.8 1.94-.357 1.173-.772 2.769-.838 4.846-.016.157-.002.334-.016.475-.845.965-1.42 1.782-1.638 2.205-1.093 1.688-2.296 4.318-3.463 8.48a20.736 20.736 0 0 1 1.855-3.25C1.126 27.054.187 30.52 0 35.862c.236-1.105.537-2.195.902-3.265-.168 3.562.247 7.977 2.498 12.959 1.337 2.93 4.414 8.88 11.934 13.524h-.001s2.558 1.905 6.955 3.332c.325.118.654.234.99.346a6.532 6.532 0 0 1-.306-.133 31.51 31.51 0 0 0 9.02 1.326c11.385.01 14.743-4.563 14.743-4.563l-.034.025c.161-.151.316-.309.465-.472-1.797 1.697-5.896 1.81-7.429 1.687 2.614-.768 4.335-1.417 7.68-2.699.392-.145.792-.31 1.202-.496l.133-.06c.081-.039.162-.075.244-.114a22.696 22.696 0 0 0 4.566-2.859c3.36-2.684 4.09-5.3 4.473-7.025-.053.165-.22.55-.336.8-.865 1.851-2.784 2.987-4.868 3.961a44.776 44.776 0 0 0 2.755-4.058c.68-.674.892-1.73 1.4-2.44z" fill="url(#g)" transform="translate(24 22.5)"/>
        <path d="M52.896 52.055c1.37-1.51 2.6-3.238 3.532-5.197 2.399-5.042 6.106-13.425 3.186-22.181-2.308-6.92-5.477-10.704-9.5-14.4C43.58 4.272 41.754 1.593 41.754 0c0 0-7.544 8.41-4.272 17.182 3.272 8.772 9.973 8.45 14.407 17.604 5.217 10.772-4.221 22.526-12.026 25.816.478-.106 17.35-3.924 18.237-13.575-.02.178-.4 2.847-5.204 5.028z" fill="url(#h)" transform="translate(24 22.5)"/>
        <path d="M31.038 20.756c.026-.57-.27-.953-4.983-1.395-1.94-.179-2.682-1.971-2.908-2.726-.69 1.792-.974 3.672-.821 5.945.104 1.49 1.105 3.089 1.583 4.027 0 0 .107-.138.156-.189.9-.938 4.675-2.367 5.03-2.57.39-.246 1.878-1.333 1.943-3.092z" fill="url(#i)" transform="translate(24 22.5)"/>
        <path d="M10.289 10.169c-.068-.118-.104.244-.156.127-.387-.897-.623-2.352-.567-3.38 0 0-.8.364-1.463 1.888-.123.274-.202.425-.28.576-.037.044.081-.5.063-.47-.116.194-.414.467-.543.804-.107.275-.218.423-.3.765-.025.093.026-.411.004-.35-1.541 2.978-1.835 7.481-1.673 7.291 3.28-3.503 7.04-4.334 7.04-4.334-.4-.294-1.27-1.145-2.125-2.917z" fill="url(#j)" transform="translate(24 22.5)"/>
        <path d="M22.736 46.799c-4.531-1.935-9.683-4.663-9.488-10.862.265-8.164 7.613-6.55 7.613-6.55-.277.067-1.019.595-1.282 1.157-.277.704-.784 2.293.751 3.958 2.41 2.612-4.952 6.197 6.412 12.97.287.156-2.664-.093-4.006-.673z" fill="url(#k)" transform="translate(24 22.5)"/>
        <path d="M21.126 42.73c3.214 1.119 6.957.923 9.198-.315 1.5-.835 3.425-2.173 4.61-1.843-1.026-.405-1.803-.594-2.737-.64-.16 0-.35-.004-.523-.021a8.852 8.852 0 0 0-1.024.056c-.578.053-1.22.418-1.803.36-.031-.004.566-.246.517-.235-.308.064-.644.078-.999.122-.225.025-.419.053-.642.063-6.693.567-12.35-3.628-12.35-3.628-.48 1.622 2.156 4.83 5.753 6.082z" fill="url(#l)" transform="translate(24 22.5)"/>
        <path d="M52.884 52.099c6.77-6.647 10.195-14.726 8.747-23.788 0 0 .578 4.647-1.615 9.4 1.054-4.64 1.176-10.406-1.623-16.377-3.736-7.97-9.882-12.163-12.228-13.913-3.554-2.65-5.028-5.35-5.054-5.907-1.062 2.176-4.274 9.632-.345 16.053 3.68 6.015 9.48 7.8 13.539 13.32 7.478 10.165-1.42 21.212-1.42 21.212z" fill="url(#m)" transform="translate(24 22.5)"/>
        <path d="M51.915 34.805c-2.366-4.887-5.319-7.019-8.112-9.33.325.456.405.617.585.91 2.458 2.62 6.083 9.012 3.451 17.035-4.954 15.102-24.77 7.99-26.847 5.993.84 8.74 15.47 12.923 24.995 7.255 5.42-5.131 9.804-13.854 5.928-21.863z" fill="url(#n)" transform="translate(24 22.5)"/>
    </g>
</svg>
