<?xml version="1.0" encoding="UTF-8" standalone="no"?>
<svg
   xmlns:dc="http://purl.org/dc/elements/1.1/"
   xmlns:cc="http://creativecommons.org/ns#"
   xmlns:rdf="http://www.w3.org/1999/02/22-rdf-syntax-ns#"
   xmlns:svg="http://www.w3.org/2000/svg"
   xmlns="http://www.w3.org/2000/svg"
   xmlns:xlink="http://www.w3.org/1999/xlink"
   xmlns:sodipodi="http://sodipodi.sourceforge.net/DTD/sodipodi-0.dtd"
   xmlns:inkscape="http://www.inkscape.org/namespaces/inkscape"
   width="512"
   height="256"
   id="svg3053"
   version="1.1"
   inkscape:version="1.0.1 (3bc2e813f5, 2020-09-07)"
   sodipodi:docname="network-s6a.svg">
  <defs
     id="defs3055" />
  <sodipodi:namedview
     id="base"
     pagecolor="#ffffff"
     bordercolor="#666666"
     borderopacity="1.0"
     inkscape:pageopacity="0.0"
     inkscape:pageshadow="2"
     inkscape:zoom="2.5761719"
     inkscape:cx="256"
     inkscape:cy="128"
     inkscape:document-units="px"
     inkscape:current-layer="layer1"
     showgrid="true"
     inkscape:snap-bbox="false"
     inkscape:snap-bbox-midpoints="true"
     inkscape:window-width="1920"
     inkscape:window-height="1043"
     inkscape:window-x="0"
     inkscape:window-y="0"
     inkscape:window-maximized="1"
     inkscape:document-rotation="0"
     inkscape:snap-nodes="true"
     inkscape:snap-text-baseline="true"
     inkscape:snap-object-midpoints="true">
    <inkscape:grid
       type="xygrid"
       id="grid3061"
       empspacing="8"
       visible="true"
       enabled="true"
       snapvisiblegridlinesonly="true"
       spacingx="16"
       spacingy="16"
       originx="0"
       originy="0" />
  </sodipodi:namedview>
  <metadata
     id="metadata3058">
    <rdf:RDF>
      <cc:Work
         rdf:about="">
        <dc:format>image/svg+xml</dc:format>
        <dc:type
           rdf:resource="http://purl.org/dc/dcmitype/StillImage" />
        <dc:title />
      </cc:Work>
    </rdf:RDF>
  </metadata>
  <g
     inkscape:label="network"
     inkscape:groupmode="layer"
     id="layer1"
     transform="translate(0,-668.36218)"
     style="display:inline">
    <path
       style="display:inline;fill:none;stroke:#000000;stroke-width:1px;stroke-linecap:butt;stroke-linejoin:miter;stroke-opacity:1"
       d="m 100,828.36218 h 108 v -64 H 100"
       id="path3142"
       inkscape:connector-curvature="0"
       sodipodi:nodetypes="cccc" />
    <path
       style="display:inline;fill:none;stroke:#000000;stroke-width:1px;stroke-linecap:butt;stroke-linejoin:miter;stroke-opacity:1"
       d="M 454,732.36218 H 208 v 128 h 52"
       id="path3104"
       inkscape:connector-curvature="0"
       sodipodi:nodetypes="cccc" />
    <path
       style="display:inline;fill:none;stroke:#aa0000;stroke-width:1;stroke-linejoin:bevel;stroke-miterlimit:4;stroke-dasharray:8, 8;stroke-dashoffset:0;stroke-opacity:0.501961"
       d="m 272,876.36218 v 16 H 16 v -192 h 256 v 144"
       id="rect3025"
       inkscape:connector-curvature="0"
       sodipodi:nodetypes="cccccc" />
    <path
       style="display:inline;fill:#eef4d7;fill-opacity:1;stroke:#000000;stroke-width:1;stroke-miterlimit:4;stroke-dasharray:none"
       d="m 352,685.36218 c -9.07414,0 -16.4507,7.1098 -16.9375,16.0625 -8.95262,0.4868 -16.0625,7.8633 -16.0625,16.9375 0,5.788 2.89402,10.9299 7.3125,14 -4.41848,3.0701 -7.3125,8.2119 -7.3125,14 0,9.3888 7.61116,17 17,17 2.49392,0 4.86628,-0.5353 7,-1.5 -0.004,0.1662 0,0.3325 0,0.5 0,9.3888 7.61116,17 17,17 5.77458,0 10.86508,-2.9114 13.9375,-7.3125 2.82074,2.0809 6.28828,3.3125 10.0625,3.3125 9.38884,0 17,-7.6112 17,-17 0,-1.0226 -0.1394,-2.0271 -0.3125,-3 9.07014,-0.3607 16.3125,-7.8414 16.3125,-17 0,-5.0277 -2.21822,-9.5126 -5.6875,-12.625 1.07432,-2.2296 1.6875,-4.7344 1.6875,-7.375 0,-9.3889 -7.61116,-17 -17,-17 -1.02262,0 -2.0271,0.1394 -3,0.3125 -0.36072,-9.0702 -7.8414,-16.3125 -17,-16.3125 -4.69442,0 -8.9236,1.9236 -12,5 -3.0764,-3.0764 -7.30558,-5 -12,-5 z"
       id="use3436"
       inkscape:connector-curvature="0" />
    <text
       id="text3438"
       y="739.41443"
       x="349.04541"
       style="font-style:normal;font-weight:normal;line-height:0%;font-family:sans-serif;letter-spacing:0px;word-spacing:0px;display:inline;fill:#000000;fill-opacity:1;stroke:none"
       xml:space="preserve"><tspan
         y="739.41443"
         x="349.04541"
         id="tspan3440"
         sodipodi:role="line"
         style="font-size:18px;line-height:1.25;font-family:sans-serif">IPv6</tspan></text>
    <path
       style="display:inline;fill:#eef4d7;fill-opacity:1;stroke:#000000;stroke-width:1;stroke-miterlimit:4;stroke-dasharray:none"
       d="m 192,749.36218 c -9.07414,0 -16.4507,7.1098 -16.9375,16.0625 -8.95262,0.4868 -16.0625,7.8633 -16.0625,16.9375 0,5.788 2.89402,10.9299 7.3125,14 -4.41848,3.0701 -7.3125,8.2119 -7.3125,14 0,9.3888 7.61116,17 17,17 2.49392,0 4.86628,-0.5353 7,-1.5 -0.004,0.1662 0,0.3325 0,0.5 0,9.3888 7.61116,17 17,17 5.77458,0 10.86508,-2.9114 13.9375,-7.3125 2.82074,2.0809 6.28828,3.3125 10.0625,3.3125 9.38884,0 17,-7.6112 17,-17 0,-1.0226 -0.1394,-2.0271 -0.3125,-3 9.07014,-0.3607 16.3125,-7.8414 16.3125,-17 0,-5.0277 -2.21822,-9.5126 -5.6875,-12.625 1.07432,-2.2296 1.6875,-4.7344 1.6875,-7.375 0,-9.3889 -7.61116,-17 -17,-17 -1.02262,0 -2.0271,0.1394 -3,0.3125 -0.36072,-9.0702 -7.8414,-16.3125 -17,-16.3125 -4.69442,0 -8.9236,1.9236 -12,5 -3.0764,-3.0764 -7.30558,-5 -12,-5 z"
       id="use3098"
       inkscape:connector-curvature="0" />
    <text
       xml:space="preserve"
       style="font-style:normal;font-weight:normal;font-size:12px;line-height:0%;font-family:sans-serif;text-align:center;letter-spacing:0px;word-spacing:0px;text-anchor:middle;fill:#000000;fill-opacity:1;stroke:none"
       x="84.222656"
       y="764.73035"
       id="text3023-4"><tspan
         sodipodi:role="line"
         id="tspan3025-9"
         x="84.222656"
         y="764.73035"
         style="font-size:12px;line-height:1.25;font-family:sans-serif">s6a</tspan></text>
    <text
       xml:space="preserve"
       style="font-style:normal;font-weight:normal;line-height:0%;font-family:sans-serif;text-align:center;letter-spacing:0px;word-spacing:0px;text-anchor:middle;display:inline;fill:#aa0000;fill-opacity:0.501961;stroke:none"
       x="111.41699"
       y="720.73035"
       id="text3144"><tspan
         sodipodi:role="line"
         id="tspan3146"
         x="111.41699"
         y="720.73035"
         style="font-size:12px;line-height:1.25;font-family:sans-serif;text-align:center;text-anchor:middle;fill:#aa0000;fill-opacity:0.501961">Data Center</tspan></text>
    <text
       xml:space="preserve"
       style="font-style:normal;font-weight:normal;line-height:0%;font-family:sans-serif;text-align:center;letter-spacing:0px;word-spacing:0px;text-anchor:middle;display:inline;fill:#000000;fill-opacity:1;stroke:none"
       x="80"
       y="792.36218"
       id="text3052-9"><tspan
         sodipodi:role="line"
         id="tspan3054-6"
         x="80"
         y="792.36218"
         style="font-size:10px;line-height:1.25;font-family:sans-serif;text-align:center;text-anchor:middle">2001:db8:12:34::6a</tspan></text>
    <text
       id="text3869"
       y="760.36218"
       x="464"
       style="font-style:normal;font-weight:normal;line-height:0%;font-family:sans-serif;text-align:center;letter-spacing:0px;word-spacing:0px;text-anchor:middle;display:inline;fill:#0000ff;fill-opacity:1;stroke:none"
       xml:space="preserve"><tspan
         y="760.36218"
         x="464"
         id="tspan3871"
         sodipodi:role="line"
         style="font-size:10px;line-height:1.25;font-family:sans-serif;fill:#0000ff">2001:db8::ab:cd</tspan></text>
    <text
       xml:space="preserve"
       style="font-style:normal;font-weight:normal;font-size:12px;line-height:0%;font-family:sans-serif;text-align:center;letter-spacing:0px;word-spacing:0px;text-anchor:middle;fill:#0000ff;fill-opacity:1;stroke:none"
       x="468"
       y="733.36182"
       id="text3023"><tspan
         sodipodi:role="line"
         id="tspan3025"
         x="468"
         y="733.36182"
         style="font-size:12px;line-height:1.25;font-family:sans-serif;fill:#0000ff">c6</tspan></text>
    <path
       id="rect3143"
       style="display:inline;fill:#666666;stroke:#000000;stroke-width:1;stroke-miterlimit:4;stroke-dasharray:none"
       d="m 68.353555,748.36218 v 24 l -8,8 h 31.999997 l 7.999998,-8 v -24 z m 2,2 h 27.999997 v 20 H 70.353555 Z" />
    <use
       x="0"
       y="0"
       xlink:href="#rect3143"
       id="use911"
       transform="translate(0,64)"
       width="100%"
       height="100%" />
    <use
       x="0"
       y="0"
       xlink:href="#rect3143"
       id="use913"
       transform="translate(384,-32)"
       width="100%"
       height="100%" />
    <text
       xml:space="preserve"
       style="font-style:normal;font-weight:normal;font-size:12px;line-height:0%;font-family:sans-serif;text-align:center;letter-spacing:0px;word-spacing:0px;text-anchor:middle;fill:#ff6600;fill-opacity:1;stroke:none"
       x="84.00293"
       y="828.83582"
       id="text919"><tspan
         sodipodi:role="line"
         id="tspan917"
         x="84.00293"
         y="828.83582"
         style="font-size:12px;line-height:1.25;font-family:sans-serif;fill:#ff6600;fill-opacity:1">s6b</tspan></text>
    <text
       xml:space="preserve"
       style="font-style:normal;font-weight:normal;line-height:0%;font-family:sans-serif;text-align:center;letter-spacing:0px;word-spacing:0px;text-anchor:middle;display:inline;fill:#ff6600;fill-opacity:1;stroke:none"
       x="80"
       y="856.36218"
       id="text923"><tspan
         sodipodi:role="line"
         id="tspan921"
         x="80"
         y="856.36218"
         style="font-size:10px;line-height:1.25;font-family:sans-serif;text-align:center;text-anchor:middle;fill:#ff6600;fill-opacity:1">2001:db8:12:34::6b</tspan></text>
    <g
       transform="translate(-24.03125,-41.234375)"
       id="use3161"
       style="display:inline">
      <path
         style="fill:#008080;stroke:#000000;stroke-width:1;stroke-miterlimit:4;stroke-dasharray:none;stroke-opacity:1"
         d="m 272.5,764.42468 v 19.84375 c 0,9.52811 12.85831,14.5 23.59375,14.5 10.73544,0 23.46875,-6.29616 23.46875,-16.15625 v -18.1875 z"
         id="path3124"
         inkscape:connector-curvature="0"
         sodipodi:nodetypes="cczccc" />
      <circle
         style="fill:#008080;stroke:#000000;stroke-width:2.62553;stroke-miterlimit:4;stroke-dasharray:none;stroke-opacity:1"
         id="path3126"
         transform="matrix(0.48595445,0,0,0.29851852,260.00403,694.04082)"
         cx="74.285713"
         cy="235.21933"
         r="48.57143" />
      <path
         style="fill:none;stroke:#ffffff;stroke-width:1px;stroke-linecap:butt;stroke-linejoin:miter;stroke-opacity:1"
         d="m 283,757.36218 25,10"
         id="path3128"
         inkscape:connector-curvature="0"
         sodipodi:nodetypes="cc" />
      <path
         style="fill:none;stroke:#ffffff;stroke-width:1px;stroke-linecap:butt;stroke-linejoin:miter;stroke-opacity:1"
         d="m 308,757.36218 -25,10"
         id="path3130"
         inkscape:connector-curvature="0"
         sodipodi:nodetypes="cc" />
    </g>
    <use
       x="0"
       y="0"
       xlink:href="#rect3143"
       id="use860"
       transform="translate(192,96)"
       width="100%"
       height="100%" />
    <text
       xml:space="preserve"
       style="font-size:12px;line-height:1.25;font-family:sans-serif;text-align:center;letter-spacing:0px;text-anchor:middle"
       x="276"
       y="860.36218"
       id="text864"><tspan
         sodipodi:role="line"
         id="tspan862"
         x="276"
         y="860.36218">BR</tspan></text>
  </g>
</svg>
