<svg width="110" height="110" xmlns="http://www.w3.org/2000/svg">
    <defs>
        <linearGradient x1="50%" y1="75%" x2="50%" y2="0%" id="a">
            <stop stop-color="#BBB" offset="0%"/>
            <stop stop-color="#FFF" offset="100%"/>
        </linearGradient>
        <radialGradient fx="50%" fy="50%" id="b">
            <stop stop-color="#2FC0D6" offset="0%"/>
            <stop stop-color="#439BD3" offset="56.63%"/>
            <stop stop-color="#366DF0" offset="100%"/>
        </radialGradient>
        <linearGradient x1="100%" y1="0%" x2="0%" y2="100%" id="c">
            <stop stop-opacity="0" offset="0%"/>
            <stop stop-opacity="0" offset="49.968%"/>
            <stop stop-opacity=".25" offset="100%"/>
        </linearGradient>
    </defs>
    <g fill="none" fill-rule="nonzero">
        <path fill="#191A1C" d="M0 0h110v110H0z"/>
        <g transform="translate(24 24)">
            <circle fill="url(#a)" cx="31" cy="31" r="31"/>
            <circle fill="url(#b)" cx="31" cy="31" r="28.5"/>
            <path d="M31.048 9.695c-.19 0-.357-.143-.357-.333v-4.97c0-.19.166-.333.357-.333.19 0 .356.143.356.333v4.97c-.024.19-.166.333-.356.333zm2.377-2.664c-.19-.023-.332-.166-.332-.356l.166-2.212a.346.346 0 0 1 .38-.309c.19.024.333.167.333.357l-.166 2.211a.346.346 0 0 1-.38.31zm1.784 3.092a.366.366 0 0 1-.286-.405l.975-4.874c.048-.19.214-.31.405-.262.19.048.309.214.285.404l-.975 4.875c-.024.166-.214.285-.404.262zm2.853-2.14a.354.354 0 0 1-.261-.429l.594-2.14c.048-.19.238-.285.428-.237.19.047.31.237.262.428l-.595 2.14c-.047.19-.238.285-.428.237zm1.165 3.352a.34.34 0 0 1-.19-.452l1.902-4.589c.072-.166.286-.261.452-.166.19.071.262.285.19.452l-1.902 4.589c-.071.166-.285.261-.452.166zm3.21-1.522c-.166-.095-.237-.285-.166-.451l.999-1.974a.348.348 0 0 1 .475-.143c.167.095.238.286.167.452l-.999 1.974a.348.348 0 0 1-.476.142zm.476 3.52c-.166-.12-.214-.333-.095-.476l2.758-4.114c.095-.166.31-.19.476-.095.166.12.214.333.095.476l-2.758 4.114a.322.322 0 0 1-.476.095zm3.472-.88c-.143-.12-.19-.333-.072-.476l1.38-1.736a.34.34 0 0 1 .475-.047c.143.119.19.333.071.475l-1.379 1.736a.34.34 0 0 1-.475.048zm-.238 3.567c-.143-.143-.143-.357 0-.476l3.52-3.495a.337.337 0 0 1 .475 0c.119.119.142.356 0 .475l-3.496 3.496a.345.345 0 0 1-.5 0zm3.567-.19c-.12-.143-.12-.357.023-.476l1.689-1.427a.34.34 0 0 1 .475.048c.12.142.12.356-.024.475l-1.688 1.427a.34.34 0 0 1-.475-.048zm-.952 3.423a.322.322 0 0 1 .096-.475l4.137-2.758c.166-.096.38-.048.476.095a.322.322 0 0 1-.096.475l-4.137 2.759c-.143.095-.357.047-.476-.096zm3.543.5a.346.346 0 0 1 .12-.476l1.925-1.094c.167-.095.38-.023.476.143a.346.346 0 0 1-.119.476l-1.926 1.093c-.166.096-.38.024-.476-.142zm-1.593 3.162c-.071-.19 0-.38.19-.451l4.59-1.903c.166-.071.38.024.452.19.07.19 0 .381-.19.452l-4.59 1.903a.34.34 0 0 1-.452-.19zm3.353 1.19c-.071-.191.024-.381.214-.453l2.093-.69c.166-.07.38.048.428.215.07.19-.024.38-.214.452l-2.093.69c-.166.07-.357-.025-.428-.215zm-2.14 2.829c-.048-.19.071-.38.262-.404l4.874-.951c.19-.048.357.095.404.285.048.19-.071.38-.261.404l-4.875.951c-.19.024-.38-.095-.404-.285zm3.044 1.83c-.024-.19.095-.356.285-.38l2.188-.261a.346.346 0 0 1 .38.309c.024.19-.095.357-.285.38l-2.188.262c-.166.024-.357-.119-.38-.31zm-2.664 2.307c0-.19.143-.356.333-.356h4.97c.19 0 .333.166.333.356 0 .19-.143.357-.333.357h-4.97c-.19 0-.333-.166-.333-.357zm2.64 2.402c.024-.19.166-.333.357-.333l2.21.167c.191.023.334.19.31.38-.024.19-.166.333-.357.333l-2.211-.167c-.166-.023-.31-.19-.31-.38zm-3.068 1.736a.366.366 0 0 1 .405-.286l4.874.975c.19.048.31.214.262.405a.366.366 0 0 1-.404.285l-4.875-.975c-.166-.024-.285-.214-.262-.404zm2.14 2.853a.354.354 0 0 1 .429-.261l2.14.594c.19.048.285.238.237.428a.354.354 0 0 1-.428.262l-2.14-.595c-.19-.047-.285-.238-.238-.428zm-3.352 1.142c.071-.19.285-.262.452-.19l4.589 1.902c.166.07.261.285.19.451a.34.34 0 0 1-.452.19l-4.589-1.902c-.19-.071-.262-.285-.19-.451zm1.545 3.21c.095-.167.286-.238.452-.167l1.974.999c.166.071.238.285.142.475-.095.167-.285.238-.451.167l-1.974-.999c-.166-.095-.238-.309-.143-.475zm-3.495.451c.119-.166.309-.214.475-.095l4.138 2.759c.166.095.19.309.095.475-.119.167-.31.214-.476.095l-4.137-2.758c-.166-.119-.214-.333-.095-.476zm.88 3.448c.119-.142.333-.19.475-.071l1.736 1.355a.34.34 0 0 1 .048.476c-.12.143-.333.19-.476.071l-1.736-1.355a.34.34 0 0 1-.047-.476zm-3.543-.237c.142-.143.356-.143.475 0l3.52 3.495a.337.337 0 0 1 0 .476c-.143.142-.357.142-.476 0l-3.52-3.496a.362.362 0 0 1 0-.475zm.214 3.542c.142-.118.356-.118.475.024l1.45 1.665a.34.34 0 0 1-.047.475c-.142.12-.356.12-.475-.023l-1.45-1.665c-.12-.119-.096-.333.047-.476zm-3.424-.903a.322.322 0 0 1 .475.095l2.759 4.114c.095.166.047.38-.096.475a.322.322 0 0 1-.475-.095l-2.758-4.114c-.096-.166-.048-.38.095-.475zm-.5 3.52a.346.346 0 0 1 .476.118l1.094 1.926c.095.167.023.38-.143.476a.346.346 0 0 1-.476-.12L42.2 52.71c-.072-.167-.024-.38.142-.476zm-3.162-1.57c.19-.072.38 0 .452.166l1.926 4.59c.07.166-.024.38-.19.451-.167.072-.381 0-.452-.166l-1.926-4.59c-.072-.166.023-.38.19-.451zm-1.165 3.376c.19-.071.38.024.451.214l.69 2.093c.071.166-.048.38-.214.428-.19.071-.38-.024-.452-.214l-.69-2.093c-.07-.166.024-.356.215-.428zm-2.806-2.164c.19-.047.38.072.404.262l.999 4.875c.047.19-.095.356-.286.404-.19.047-.38-.072-.404-.262l-.999-4.874a.38.38 0 0 1 .286-.405zm-1.807 3.092a.366.366 0 0 1 .404.285l.285 2.188a.346.346 0 0 1-.309.38.366.366 0 0 1-.404-.285l-.285-2.188a.346.346 0 0 1 .309-.38zm-2.45-2.664c.19 0 .357.143.357.333v4.97c0 .19-.166.333-.357.333-.19 0-.356-.143-.356-.333v-4.97c.024-.19.166-.333.356-.333zm-2.377 2.664c.19.023.332.166.332.356l-.166 2.212a.346.346 0 0 1-.38.309c-.19-.024-.333-.167-.333-.357l.166-2.211a.346.346 0 0 1 .38-.31zm-1.784-3.092c.19.048.31.214.286.405l-.975 4.874c-.048.19-.214.31-.405.262a.366.366 0 0 1-.285-.404l.975-4.875c.024-.166.214-.285.404-.262zm-2.853 2.14c.19.048.309.238.261.429l-.594 2.14c-.048.19-.238.285-.428.237a.354.354 0 0 1-.262-.428l.595-2.14c.047-.19.238-.285.428-.238zm-1.165-3.352a.34.34 0 0 1 .19.452l-1.902 4.589c-.072.166-.286.261-.452.166-.167-.095-.262-.285-.19-.452l1.902-4.589c.071-.166.285-.261.452-.166zm-3.21 1.522c.166.095.237.285.166.451l-.999 1.974a.348.348 0 0 1-.475.143c-.167-.095-.238-.286-.167-.452l.999-1.974a.348.348 0 0 1 .476-.142zm-.476-3.52c.166.12.214.333.095.476l-2.758 4.114c-.095.166-.31.19-.476.095-.166-.12-.214-.333-.095-.476l2.758-4.114a.322.322 0 0 1 .476-.095zm-3.472.88c.143.12.19.333.072.476l-1.38 1.736a.34.34 0 0 1-.475.047c-.143-.119-.19-.333-.071-.475l1.379-1.736a.34.34 0 0 1 .475-.048zm.238-3.567c.143.143.143.357 0 .476l-3.52 3.495a.337.337 0 0 1-.475 0c-.119-.118-.142-.356 0-.475l3.496-3.496a.345.345 0 0 1 .5 0zm-3.567.19c.12.143.12.357-.023.476l-1.689 1.427a.34.34 0 0 1-.475-.048c-.12-.142-.12-.356.024-.475l1.688-1.427a.34.34 0 0 1 .475.048zm.952-3.423a.322.322 0 0 1-.096.475L9.005 45.98c-.166.096-.38.048-.476-.095a.322.322 0 0 1 .096-.475l4.137-2.759c.143-.095.357-.047.476.096zm-3.543-.5a.346.346 0 0 1-.12.476L7.65 43.817c-.167.095-.38.023-.476-.143a.346.346 0 0 1 .119-.476l1.926-1.093c.166-.096.38-.024.476.142zm1.593-3.162c.071.19 0 .38-.19.451l-4.59 1.903c-.166.071-.38-.024-.452-.19-.07-.19 0-.381.19-.452l4.59-1.903a.34.34 0 0 1 .452.19zm-3.353-1.19c.071.191-.024.381-.214.453l-2.093.69c-.166.07-.38-.048-.428-.215-.07-.19.024-.38.214-.452l2.093-.69c.166-.07.357.025.428.215zm2.14-2.829c.048.19-.071.38-.262.404l-4.874.951c-.19.048-.357-.095-.404-.285-.048-.19.071-.38.261-.404l4.875-.951c.19-.024.38.095.404.285zm-3.044-1.83c.024.19-.095.356-.285.38l-2.188.261a.346.346 0 0 1-.38-.309c-.024-.19.095-.357.285-.38l2.188-.262c.166-.024.357.119.38.31zm2.664-2.307c0 .19-.143.356-.333.356h-4.97c-.19 0-.333-.166-.333-.356 0-.19.143-.357.333-.357h4.97c.19 0 .333.166.333.357zm-2.64-2.402c-.024.19-.166.333-.357.333l-2.21-.167a.346.346 0 0 1-.31-.38c.024-.19.166-.333.357-.333l2.211.167c.166.023.31.19.31.38zm3.068-1.736a.366.366 0 0 1-.405.286l-4.874-1c-.19-.047-.31-.213-.262-.403a.366.366 0 0 1 .404-.286l4.875.975c.166.048.285.238.262.428zm-2.14-2.853a.354.354 0 0 1-.429.261l-2.14-.594c-.19-.048-.285-.238-.237-.428a.354.354 0 0 1 .428-.262l2.14.595c.19.047.285.238.237.428zm3.352-1.142a.34.34 0 0 1-.452.19l-4.589-1.902c-.166-.07-.261-.285-.19-.451a.34.34 0 0 1 .452-.19l4.589 1.902c.19.071.262.285.19.451zm-1.545-3.21c-.095.167-.286.238-.452.167l-1.974-.999c-.166-.071-.238-.285-.142-.475.095-.167.285-.238.451-.167l1.974.999c.166.095.238.309.143.475zm3.495-.451c-.119.166-.309.214-.475.095l-4.114-2.735c-.167-.095-.19-.309-.095-.475a.322.322 0 0 1 .475-.096l4.138 2.759c.142.095.19.309.071.452zm-.88-3.448c-.119.142-.333.19-.475.071l-1.736-1.355a.34.34 0 0 1-.048-.476c.12-.143.333-.19.476-.071l1.736 1.355a.34.34 0 0 1 .047.476zm3.543.237c-.142.143-.356.143-.475 0L11.93 12.43a.337.337 0 0 1 0-.476c.142-.142.356-.142.475 0l3.52 3.496a.338.338 0 0 1 .023.475zm-.214-3.542c-.142.118-.356.118-.475-.024l-1.45-1.665a.34.34 0 0 1 .047-.475c.142-.12.356-.12.475.023l1.45 1.665c.12.119.096.333-.047.476zm3.424.903a.322.322 0 0 1-.475-.095L15.9 9.076c-.095-.166-.048-.38.095-.475a.322.322 0 0 1 .475.095l2.759 4.114a.336.336 0 0 1-.072.475zm.5-3.52a.346.346 0 0 1-.476-.118l-1.094-1.926c-.095-.167-.023-.38.143-.476a.346.346 0 0 1 .476.12L19.8 9.29c.072.167.024.38-.142.476zm3.162 1.57c-.19.072-.38 0-.452-.166l-1.926-4.59c-.07-.166.024-.38.19-.451.19-.072.381 0 .452.166l1.926 4.59c.072.166-.023.38-.19.451zm1.165-3.376c-.19.071-.38-.024-.451-.214l-.69-2.093c-.071-.166.048-.38.214-.428.166-.047.38.024.452.214l.69 2.093c.07.166-.024.356-.215.428zm2.806 2.164c-.19.047-.38-.072-.404-.262l-.999-4.875c-.047-.19.095-.356.286-.404.19-.047.38.072.404.262l.999 4.874a.38.38 0 0 1-.286.405zm1.807-3.092a.366.366 0 0 1-.404-.285l-.285-2.188a.346.346 0 0 1 .309-.38.366.366 0 0 1 .404.285l.285 2.188a.346.346 0 0 1-.309.38z" fill="#F0F0F0"/>
            <circle fill="url(#c)" cx="31" cy="31" r="28.5"/>
            <path d="M34.656 34.65L12.382 51.62l16.97-22.273L51.45 12.553 34.656 34.65z" fill-opacity=".35" fill="#000"/>
            <path fill="#BE2E24" d="M27.645 27.64l6.718 6.717 16.086-22.804z"/>
            <path fill="#EB5F57" d="M27.645 27.64l3.359 3.358 19.445-19.445z"/>
            <path fill="#ACACAC" d="M27.645 27.64l6.718 6.717-22.981 16.264z"/>
            <path fill="#EFEFEF" d="M11.382 50.62l19.622-19.622-3.359-3.358z"/>
        </g>
    </g>
</svg>
