/* XPM */
static char *cshelp_xpm[] = {
"16 15 3 1",
" 	c None",
".	c Black",
"X	c #000080",
"                ",
".        XXXXX  ",
"..      XX   XX ",
"...    XX    XX ",
"....   XX    XX ",
".....   XX   XX ",
"......      XX  ",
".......    XX   ",
"........  XX    ",
".....     XX    ",
".. ..           ",
".   ..    XXX   ",
"    ..    XXX   ",
"     ..         ",
"     ..         "};
