/* XPM */
static char *newregion_xpm[] = {
"16 15 3 1",
" 	c None",
".	c Black",
"X	c Gray100",
" .............. ",
" .XXXXXXXXXXXX. ",
" .XXXXXXXXXXXX. ",
" .............. ",
"                ",
" .............. ",
" .XXXXXXXXXXXX. ",
" .XXXXXXXXXXXX. ",
" .............. ",
"                ",
"           .    ",
"           .    ",
"         .....  ",
"           .    ",
"           .    "};
