<?xml version="1.0" encoding="UTF-8" standalone="no"?>
<!DOCTYPE svg PUBLIC "-//W3C//DTD SVG 1.1//EN"
 "http://www.w3.org/Graphics/SVG/1.1/DTD/svg11.dtd">
<!-- Generated by graphviz version 2.34.0 (20140110.0949)
 -->
<!-- Title: GradleSetup Pages: 1 -->
<svg width="1028pt" height="752pt"
 viewBox="0.00 0.00 1028.00 752.00" xmlns="http://www.w3.org/2000/svg" xmlns:xlink="http://www.w3.org/1999/xlink">
<g id="graph0" class="graph" transform="scale(1 1) rotate(0) translate(4 748)">
<title>GradleSetup</title>
<polygon fill="white" stroke="white" points="-4,4 -4,-748 1024,-748 1024,4 -4,4"/>
<text text-anchor="middle" x="61" y="-728.8" font-family="Times,serif" font-size="14.00">Gradle Build Setup</text>
<g id="clust1" class="cluster"><title>cluster1</title>
<polygon fill="lightgrey" stroke="black" points="8,-8 8,-713 706,-713 706,-8 8,-8"/>
<text text-anchor="middle" x="92.5" y="-15.8" font-family="Times,serif" font-size="14.00">Java Projects / Bnd Projects</text>
</g>
<g id="clust2" class="cluster"><title>cluster101</title>
</g>
<g id="clust3" class="cluster"><title>cluster102</title>
</g>
<g id="clust4" class="cluster"><title>cluster103</title>
</g>
<g id="clust5" class="cluster"><title>cluster104</title>
</g>
<g id="clust6" class="cluster"><title>cluster105</title>
</g>
<g id="clust7" class="cluster"><title>cluster106</title>
</g>
<g id="clust8" class="cluster"><title>cluster107</title>
</g>
<g id="clust9" class="cluster"><title>cluster108</title>
</g>
<g id="clust10" class="cluster"><title>cluster109</title>
</g>
<g id="clust11" class="cluster"><title>cluster110</title>
</g>
<g id="clust12" class="cluster"><title>cluster2</title>
<polygon fill="lightgrey" stroke="black" points="714,-387 714,-622 1012,-622 1012,-387 714,-387"/>
<text text-anchor="middle" x="754.5" y="-394.8" font-family="Times,serif" font-size="14.00">All Projects</text>
</g>
<g id="clust13" class="cluster"><title>cluster201</title>
</g>
<g id="clust14" class="cluster"><title>cluster202</title>
</g>
<g id="clust15" class="cluster"><title>cluster3</title>
<polygon fill="lightgrey" stroke="black" points="788,-630 788,-705 938,-705 938,-630 788,-630"/>
<text text-anchor="middle" x="830.5" y="-637.8" font-family="Times,serif" font-size="14.00">Root Project</text>
</g>
<!-- compileJava -->
<g id="node1" class="node"><title>compileJava</title>
<polygon fill="lightcyan" stroke="black" points="484.25,-697 399.75,-697 399.75,-661 484.25,-661 484.25,-697"/>
<text text-anchor="middle" x="442" y="-675.3" font-family="Times,serif" font-size="14.00">compileJava</text>
</g>
<!-- classes -->
<g id="node3" class="node"><title>classes</title>
<polygon fill="lightcyan" stroke="black" points="352,-606 298,-606 298,-570 352,-570 352,-606"/>
<text text-anchor="middle" x="325" y="-584.3" font-family="Times,serif" font-size="14.00">classes</text>
</g>
<!-- compileJava&#45;&gt;classes -->
<g id="edge1" class="edge"><title>compileJava&#45;&gt;classes</title>
<path fill="none" stroke="black" d="M424.895,-660.724C415.074,-651.194 402.285,-639.419 390,-630 380.92,-623.039 370.631,-616.141 360.96,-610.045"/>
<polygon fill="black" stroke="black" points="362.651,-606.976 352.305,-604.694 358.97,-612.93 362.651,-606.976"/>
</g>
<!-- processResources -->
<g id="node2" class="node"><title>processResources</title>
<polygon fill="lightcyan" stroke="black" points="381.25,-697 268.75,-697 268.75,-661 381.25,-661 381.25,-697"/>
<text text-anchor="middle" x="325" y="-675.3" font-family="Times,serif" font-size="14.00">processResources</text>
</g>
<!-- processResources&#45;&gt;classes -->
<g id="edge2" class="edge"><title>processResources&#45;&gt;classes</title>
<path fill="none" stroke="black" d="M325,-660.84C325,-648.281 325,-630.979 325,-616.502"/>
<polygon fill="black" stroke="black" points="328.5,-616.107 325,-606.107 321.5,-616.107 328.5,-616.107"/>
</g>
<!-- jar -->
<g id="node4" class="node"><title>jar</title>
<polygon fill="cyan" stroke="black" points="409,-534 355,-534 355,-498 409,-498 409,-534"/>
<text text-anchor="middle" x="382" y="-512.3" font-family="Times,serif" font-size="14.00">jar</text>
</g>
<!-- classes&#45;&gt;jar -->
<g id="edge4" class="edge"><title>classes&#45;&gt;jar</title>
<path fill="none" stroke="black" d="M339.09,-569.697C345.923,-561.305 354.257,-551.07 361.756,-541.861"/>
<polygon fill="black" stroke="black" points="364.472,-544.069 368.072,-534.104 359.044,-539.649 364.472,-544.069"/>
</g>
<!-- compileTestJava -->
<g id="node5" class="node"><title>compileTestJava</title>
<polygon fill="lightcyan" stroke="black" points="307,-534 199,-534 199,-498 307,-498 307,-534"/>
<text text-anchor="middle" x="253" y="-512.3" font-family="Times,serif" font-size="14.00">compileTestJava</text>
</g>
<!-- classes&#45;&gt;compileTestJava -->
<g id="edge3" class="edge"><title>classes&#45;&gt;compileTestJava</title>
<path fill="none" stroke="black" d="M307.202,-569.697C298.396,-561.135 287.618,-550.656 277.999,-541.304"/>
<polygon fill="black" stroke="black" points="280.203,-538.566 270.593,-534.104 275.323,-543.585 280.203,-538.566"/>
</g>
<!-- test -->
<g id="node8" class="node"><title>test</title>
<polygon fill="lightcyan" stroke="black" points="78,-371 24,-371 24,-335 78,-335 78,-371"/>
<text text-anchor="middle" x="51" y="-349.3" font-family="Times,serif" font-size="14.00">test</text>
</g>
<!-- classes&#45;&gt;test -->
<g id="edge5" class="edge"><title>classes&#45;&gt;test</title>
<path fill="none" stroke="black" d="M297.967,-587.1C232.26,-586.709 67.0613,-581.713 33,-542 -11.849,-489.71 15.9784,-453.753 33,-387 33.5634,-384.791 34.3082,-382.57 35.1745,-380.382"/>
<polygon fill="black" stroke="black" points="38.4373,-381.67 39.5639,-371.135 32.1136,-378.668 38.4373,-381.67"/>
</g>
<!-- uploadArchives -->
<g id="node9" class="node"><title>uploadArchives</title>
<polygon fill="lightcyan" stroke="black" points="433,-462 331,-462 331,-426 433,-426 433,-462"/>
<text text-anchor="middle" x="382" y="-440.3" font-family="Times,serif" font-size="14.00">uploadArchives</text>
</g>
<!-- jar&#45;&gt;uploadArchives -->
<g id="edge8" class="edge"><title>jar&#45;&gt;uploadArchives</title>
<path fill="none" stroke="black" d="M382,-497.697C382,-489.983 382,-480.712 382,-472.112"/>
<polygon fill="black" stroke="black" points="385.5,-472.104 382,-462.104 378.5,-472.104 385.5,-472.104"/>
</g>
<!-- assemble -->
<g id="node10" class="node"><title>assemble</title>
<polygon fill="lightcyan" stroke="black" points="518.25,-462 451.75,-462 451.75,-426 518.25,-426 518.25,-462"/>
<text text-anchor="middle" x="485" y="-440.3" font-family="Times,serif" font-size="14.00">assemble</text>
</g>
<!-- jar&#45;&gt;assemble -->
<g id="edge9" class="edge"><title>jar&#45;&gt;assemble</title>
<path fill="none" stroke="black" d="M407.197,-497.876C420.414,-488.893 436.792,-477.763 451.107,-468.034"/>
<polygon fill="black" stroke="black" points="453.403,-470.705 459.707,-462.19 449.468,-464.916 453.403,-470.705"/>
</g>
<!-- testClasses -->
<g id="node7" class="node"><title>testClasses</title>
<polygon fill="lightcyan" stroke="black" points="151,-462 75,-462 75,-426 151,-426 151,-462"/>
<text text-anchor="middle" x="113" y="-440.3" font-family="Times,serif" font-size="14.00">testClasses</text>
</g>
<!-- compileTestJava&#45;&gt;testClasses -->
<g id="edge6" class="edge"><title>compileTestJava&#45;&gt;testClasses</title>
<path fill="none" stroke="black" d="M218.752,-497.876C199.939,-488.469 176.415,-476.708 156.334,-466.667"/>
<polygon fill="black" stroke="black" points="157.889,-463.531 147.38,-462.19 154.759,-469.792 157.889,-463.531"/>
</g>
<!-- processTestResources -->
<g id="node6" class="node"><title>processTestResources</title>
<polygon fill="lightcyan" stroke="black" points="181,-534 45,-534 45,-498 181,-498 181,-534"/>
<text text-anchor="middle" x="113" y="-512.3" font-family="Times,serif" font-size="14.00">processTestResources</text>
</g>
<!-- processTestResources&#45;&gt;testClasses -->
<g id="edge7" class="edge"><title>processTestResources&#45;&gt;testClasses</title>
<path fill="none" stroke="black" d="M113,-497.697C113,-489.983 113,-480.712 113,-472.112"/>
<polygon fill="black" stroke="black" points="116.5,-472.104 113,-462.104 109.5,-472.104 116.5,-472.104"/>
</g>
<!-- testClasses&#45;&gt;test -->
<g id="edge10" class="edge"><title>testClasses&#45;&gt;test</title>
<path fill="none" stroke="black" d="M101.046,-425.84C91.8682,-412.666 79.0545,-394.272 68.6905,-379.394"/>
<polygon fill="black" stroke="black" points="71.5055,-377.312 62.9175,-371.107 65.7618,-381.313 71.5055,-377.312"/>
</g>
<!-- check -->
<g id="node11" class="node"><title>check</title>
<polygon fill="cyan" stroke="black" points="227,-227 173,-227 173,-191 227,-191 227,-227"/>
<text text-anchor="middle" x="200" y="-205.3" font-family="Times,serif" font-size="14.00">check</text>
</g>
<!-- test&#45;&gt;check -->
<g id="edge13" class="edge"><title>test&#45;&gt;check</title>
<path fill="none" stroke="black" d="M43.1474,-334.66C34.7942,-313.289 25.157,-277.097 44,-255 80.5056,-212.189 117.597,-257.873 169,-235 170.563,-234.304 172.114,-233.51 173.64,-232.641"/>
<polygon fill="black" stroke="black" points="175.652,-235.507 182.026,-227.043 171.766,-229.685 175.652,-235.507"/>
</g>
<!-- findbugsTest -->
<g id="node23" class="node"><title>findbugsTest</title>
<polygon fill="orange" stroke="black" points="143.25,-299 56.75,-299 56.75,-263 143.25,-263 143.25,-299"/>
<text text-anchor="middle" x="100" y="-277.3" font-family="Times,serif" font-size="14.00">findbugsTest</text>
</g>
<!-- test&#45;&gt;findbugsTest -->
<g id="edge32" class="edge"><title>test&#45;&gt;findbugsTest</title>
<path fill="none" stroke="black" d="M63.1124,-334.697C68.8681,-326.474 75.8617,-316.483 82.2055,-307.421"/>
<polygon fill="black" stroke="black" points="85.1596,-309.304 88.027,-299.104 79.425,-305.29 85.1596,-309.304"/>
</g>
<!-- jacocoTestReport -->
<g id="node29" class="node"><title>jacocoTestReport</title>
<polygon fill="orange" stroke="black" points="133,-155 21,-155 21,-119 133,-119 133,-155"/>
<text text-anchor="middle" x="77" y="-133.3" font-family="Times,serif" font-size="14.00">jacocoTestReport</text>
</g>
<!-- test&#45;&gt;jacocoTestReport -->
<g id="edge35" class="edge"><title>test&#45;&gt;jacocoTestReport</title>
<path fill="none" stroke="magenta" d="M40.749,-334.68C36.5258,-326.568 32.1287,-316.595 30,-307 24.9945,-284.437 25.6128,-277.691 30,-255 36.2903,-222.466 51.5749,-187.499 63.0177,-164.351"/>
<polygon fill="magenta" stroke="magenta" points="66.2581,-165.699 67.6491,-155.196 60.0119,-162.539 66.2581,-165.699"/>
</g>
<!-- assemble&#45;&gt;compileJava -->
<g id="edge21" class="edge"><title>assemble&#45;&gt;compileJava</title>
<path fill="none" stroke="red" d="M479.281,-462.228C472.003,-484.858 459.587,-525.955 453,-562 447.506,-592.063 444.665,-627.042 443.26,-650.664"/>
<polygon fill="red" stroke="red" points="439.748,-650.792 442.695,-660.969 446.737,-651.175 439.748,-650.792"/>
</g>
<!-- assemble&#45;&gt;check -->
<g id="edge12" class="edge"><title>assemble&#45;&gt;check</title>
<path fill="none" stroke="black" d="M476.932,-425.738C469.769,-412.589 457.959,-395.366 442,-387 426.136,-378.685 294.056,-391.261 281,-379 240.571,-341.033 295.794,-302.401 267,-255 259.696,-242.976 247.814,-233.461 236.07,-226.337"/>
<polygon fill="black" stroke="black" points="237.627,-223.198 227.194,-221.354 234.2,-229.302 237.627,-223.198"/>
</g>
<!-- release -->
<g id="node13" class="node"><title>release</title>
<polygon fill="cyan" stroke="black" points="387,-371 333,-371 333,-335 387,-335 387,-371"/>
<text text-anchor="middle" x="360" y="-349.3" font-family="Times,serif" font-size="14.00">release</text>
</g>
<!-- assemble&#45;&gt;release -->
<g id="edge22" class="edge"><title>assemble&#45;&gt;release</title>
<path fill="none" stroke="black" d="M475.569,-425.897C467.963,-413.532 456.211,-397.261 442,-387 433.225,-380.664 429.099,-382.891 419,-379 411.792,-376.223 404.153,-373.113 396.848,-370.055"/>
<polygon fill="black" stroke="black" points="397.738,-366.631 387.165,-365.954 395.008,-373.077 397.738,-366.631"/>
</g>
<!-- exportX -->
<g id="node15" class="node"><title>exportX</title>
<polygon fill="cyan" stroke="black" points="677.25,-371 580.75,-371 576.75,-367 576.75,-335 673.25,-335 677.25,-339 677.25,-371"/>
<polyline fill="none" stroke="black" points="673.25,-367 576.75,-367 "/>
<polyline fill="none" stroke="black" points="673.25,-367 673.25,-335 "/>
<polyline fill="none" stroke="black" points="673.25,-367 677.25,-371 "/>
<text text-anchor="middle" x="627" y="-349.3" font-family="Times,serif" font-size="14.00">export.&lt;name&gt;</text>
</g>
<!-- assemble&#45;&gt;exportX -->
<g id="edge23" class="edge"><title>assemble&#45;&gt;exportX</title>
<path fill="none" stroke="black" d="M512.379,-425.84C534.774,-411.804 566.622,-391.843 591.066,-376.522"/>
<polygon fill="black" stroke="black" points="593.091,-379.384 599.705,-371.107 589.373,-373.453 593.091,-379.384"/>
</g>
<!-- runbundlesX -->
<g id="node17" class="node"><title>runbundlesX</title>
<polygon fill="cyan" stroke="black" points="558.25,-371 435.75,-371 431.75,-367 431.75,-335 554.25,-335 558.25,-339 558.25,-371"/>
<polyline fill="none" stroke="black" points="554.25,-367 431.75,-367 "/>
<polyline fill="none" stroke="black" points="554.25,-367 554.25,-335 "/>
<polyline fill="none" stroke="black" points="554.25,-367 558.25,-371 "/>
<text text-anchor="middle" x="495" y="-349.3" font-family="Times,serif" font-size="14.00">runbundles.&lt;name&gt;</text>
</g>
<!-- assemble&#45;&gt;runbundlesX -->
<g id="edge25" class="edge"><title>assemble&#45;&gt;runbundlesX</title>
<path fill="none" stroke="black" d="M486.928,-425.84C488.353,-413.158 490.321,-395.64 491.958,-381.077"/>
<polygon fill="black" stroke="black" points="495.439,-381.436 493.078,-371.107 488.483,-380.654 495.439,-381.436"/>
</g>
<!-- build -->
<g id="node19" class="node"><title>build</title>
<polygon fill="lightcyan" stroke="black" points="511,-155 457,-155 457,-119 511,-119 511,-155"/>
<text text-anchor="middle" x="484" y="-133.3" font-family="Times,serif" font-size="14.00">build</text>
</g>
<!-- assemble&#45;&gt;build -->
<g id="edge11" class="edge"><title>assemble&#45;&gt;build</title>
<path fill="none" stroke="black" d="M518.356,-443.714C565.516,-442.688 650.35,-432.916 690,-379 722.65,-334.602 717.724,-302.63 690,-255 653.588,-192.444 569.89,-160.604 521.124,-146.812"/>
<polygon fill="black" stroke="black" points="521.846,-143.381 511.278,-144.138 520.011,-150.136 521.846,-143.381"/>
</g>
<!-- findbugsMain -->
<g id="node22" class="node"><title>findbugsMain</title>
<polygon fill="orange" stroke="black" points="254.25,-299 161.75,-299 161.75,-263 254.25,-263 254.25,-299"/>
<text text-anchor="middle" x="208" y="-277.3" font-family="Times,serif" font-size="14.00">findbugsMain</text>
</g>
<!-- assemble&#45;&gt;findbugsMain -->
<g id="edge31" class="edge"><title>assemble&#45;&gt;findbugsMain</title>
<path fill="none" stroke="black" d="M477.085,-425.991C469.941,-412.8 458.082,-395.395 442,-387 407.883,-369.191 302.248,-398.383 269,-379 242.652,-363.639 225.984,-331.887 216.852,-308.886"/>
<polygon fill="black" stroke="black" points="220.062,-307.476 213.286,-299.331 213.504,-309.924 220.062,-307.476"/>
</g>
<!-- checkNeeded -->
<g id="node12" class="node"><title>checkNeeded</title>
<polygon fill="cyan" stroke="black" points="244.25,-155 155.75,-155 155.75,-119 244.25,-119 244.25,-155"/>
<text text-anchor="middle" x="200" y="-133.3" font-family="Times,serif" font-size="14.00">checkNeeded</text>
</g>
<!-- check&#45;&gt;checkNeeded -->
<g id="edge14" class="edge"><title>check&#45;&gt;checkNeeded</title>
<path fill="none" stroke="black" d="M200,-190.697C200,-182.983 200,-173.712 200,-165.112"/>
<polygon fill="black" stroke="black" points="203.5,-165.104 200,-155.104 196.5,-165.104 203.5,-165.104"/>
</g>
<!-- check&#45;&gt;build -->
<g id="edge16" class="edge"><title>check&#45;&gt;build</title>
<path fill="none" stroke="black" d="M227.231,-201.288C278.44,-188.666 389.129,-161.384 447.019,-147.115"/>
<polygon fill="black" stroke="black" points="447.98,-150.483 456.851,-144.692 446.304,-143.687 447.98,-150.483"/>
</g>
<!-- check&#45;&gt;jacocoTestReport -->
<g id="edge36" class="edge"><title>check&#45;&gt;jacocoTestReport</title>
<path fill="none" stroke="magenta" d="M172.702,-192.465C156.037,-182.98 134.459,-170.7 116.011,-160.201"/>
<polygon fill="magenta" stroke="magenta" points="117.664,-157.115 107.242,-155.211 114.202,-163.199 117.664,-157.115"/>
</g>
<!-- checkNeeded&#45;&gt;checkNeeded -->
<g id="edge15" class="edge"><title>checkNeeded&#45;&gt;checkNeeded</title>
<path fill="none" stroke="red" d="M244.306,-150.203C254.507,-149.065 262,-144.664 262,-137 262,-132.09 258.925,-128.52 254.032,-126.288"/>
<polygon fill="red" stroke="red" points="254.862,-122.888 244.306,-123.797 253.125,-129.669 254.862,-122.888"/>
</g>
<!-- releaseNeeded -->
<g id="node14" class="node"><title>releaseNeeded</title>
<polygon fill="cyan" stroke="black" points="388.25,-299 293.75,-299 293.75,-263 388.25,-263 388.25,-299"/>
<text text-anchor="middle" x="341" y="-277.3" font-family="Times,serif" font-size="14.00">releaseNeeded</text>
</g>
<!-- release&#45;&gt;releaseNeeded -->
<g id="edge27" class="edge"><title>release&#45;&gt;releaseNeeded</title>
<path fill="none" stroke="black" d="M355.303,-334.697C353.187,-326.898 350.638,-317.509 348.282,-308.829"/>
<polygon fill="black" stroke="black" points="351.64,-307.838 345.643,-299.104 344.884,-309.672 351.64,-307.838"/>
</g>
<!-- releaseNeeded&#45;&gt;releaseNeeded -->
<g id="edge28" class="edge"><title>releaseNeeded&#45;&gt;releaseNeeded</title>
<path fill="none" stroke="red" d="M388.326,-294.101C398.571,-292.82 406,-288.453 406,-281 406,-276.225 402.951,-272.717 398.066,-270.476"/>
<polygon fill="red" stroke="red" points="398.889,-267.073 388.326,-267.899 397.098,-273.84 398.889,-267.073"/>
</g>
<!-- export -->
<g id="node16" class="node"><title>export</title>
<polygon fill="cyan" stroke="black" points="654,-299 600,-299 600,-263 654,-263 654,-299"/>
<text text-anchor="middle" x="627" y="-277.3" font-family="Times,serif" font-size="14.00">export</text>
</g>
<!-- exportX&#45;&gt;export -->
<g id="edge24" class="edge"><title>exportX&#45;&gt;export</title>
<path fill="none" stroke="black" d="M627,-334.697C627,-326.983 627,-317.712 627,-309.112"/>
<polygon fill="black" stroke="black" points="630.5,-309.104 627,-299.104 623.5,-309.104 630.5,-309.104"/>
</g>
<!-- runbundles -->
<g id="node18" class="node"><title>runbundles</title>
<polygon fill="cyan" stroke="black" points="533.25,-299 456.75,-299 456.75,-263 533.25,-263 533.25,-299"/>
<text text-anchor="middle" x="495" y="-277.3" font-family="Times,serif" font-size="14.00">runbundles</text>
</g>
<!-- runbundlesX&#45;&gt;runbundles -->
<g id="edge26" class="edge"><title>runbundlesX&#45;&gt;runbundles</title>
<path fill="none" stroke="black" d="M495,-334.697C495,-326.983 495,-317.712 495,-309.112"/>
<polygon fill="black" stroke="black" points="498.5,-309.104 495,-299.104 491.5,-309.104 498.5,-309.104"/>
</g>
<!-- buildDependents -->
<g id="node20" class="node"><title>buildDependents</title>
<polygon fill="lightcyan" stroke="black" points="472,-83 364,-83 364,-47 472,-47 472,-83"/>
<text text-anchor="middle" x="418" y="-61.3" font-family="Times,serif" font-size="14.00">buildDependents</text>
</g>
<!-- build&#45;&gt;buildDependents -->
<g id="edge17" class="edge"><title>build&#45;&gt;buildDependents</title>
<path fill="none" stroke="black" d="M467.685,-118.697C459.693,-110.22 449.928,-99.8636 441.178,-90.5826"/>
<polygon fill="black" stroke="black" points="443.534,-87.9792 434.127,-83.1043 438.441,-92.7813 443.534,-87.9792"/>
</g>
<!-- buildNeeded -->
<g id="node21" class="node"><title>buildNeeded</title>
<polygon fill="lightcyan" stroke="black" points="594,-83 508,-83 508,-47 594,-47 594,-83"/>
<text text-anchor="middle" x="551" y="-61.3" font-family="Times,serif" font-size="14.00">buildNeeded</text>
</g>
<!-- build&#45;&gt;buildNeeded -->
<g id="edge19" class="edge"><title>build&#45;&gt;buildNeeded</title>
<path fill="none" stroke="black" d="M500.562,-118.697C508.675,-110.22 518.588,-99.8636 527.471,-90.5826"/>
<polygon fill="black" stroke="black" points="530.243,-92.7486 534.629,-83.1043 525.186,-87.9084 530.243,-92.7486"/>
</g>
<!-- buildDependents&#45;&gt;buildDependents -->
<g id="edge18" class="edge"><title>buildDependents&#45;&gt;buildDependents</title>
<path fill="none" stroke="yellow" d="M472.007,-77.8993C482.529,-76.4013 490,-72.1016 490,-65 490,-60.4506 486.934,-57.051 481.964,-54.8012"/>
<polygon fill="yellow" stroke="yellow" points="482.575,-51.3406 472.007,-52.1007 480.742,-58.0965 482.575,-51.3406"/>
</g>
<!-- buildNeeded&#45;&gt;buildNeeded -->
<g id="edge20" class="edge"><title>buildNeeded&#45;&gt;buildNeeded</title>
<path fill="none" stroke="red" d="M594.036,-78.2619C604.355,-77.2253 612,-72.8047 612,-65 612,-60.0001 608.862,-56.3891 603.894,-54.1668"/>
<polygon fill="red" stroke="red" points="604.583,-50.7319 594.036,-51.7381 602.909,-57.5287 604.583,-50.7319"/>
</g>
<!-- findbugsMain&#45;&gt;check -->
<g id="edge33" class="edge"><title>findbugsMain&#45;&gt;check</title>
<path fill="none" stroke="green" d="M206.022,-262.697C205.141,-254.983 204.081,-245.712 203.099,-237.112"/>
<polygon fill="green" stroke="green" points="206.568,-236.642 201.955,-227.104 199.613,-237.437 206.568,-236.642"/>
</g>
<!-- findbugsTest&#45;&gt;check -->
<g id="edge34" class="edge"><title>findbugsTest&#45;&gt;check</title>
<path fill="none" stroke="green" d="M127.628,-262.882C140.418,-254.729 155.694,-244.667 169,-235 169.734,-234.467 170.475,-233.922 171.219,-233.369"/>
<polygon fill="green" stroke="green" points="173.409,-236.1 179.212,-227.236 169.148,-230.546 173.409,-236.1"/>
</g>
<!-- javadoc -->
<g id="node24" class="node"><title>javadoc</title>
<polygon fill="orange" stroke="black" points="582.25,-697 523.75,-697 523.75,-661 582.25,-661 582.25,-697"/>
<text text-anchor="middle" x="553" y="-675.3" font-family="Times,serif" font-size="14.00">javadoc</text>
</g>
<!-- clean -->
<g id="node25" class="node"><title>clean</title>
<polygon fill="cyan" stroke="black" points="681,-697 627,-697 627,-661 681,-661 681,-697"/>
<text text-anchor="middle" x="654" y="-675.3" font-family="Times,serif" font-size="14.00">clean</text>
</g>
<!-- cleanNeeded -->
<g id="node26" class="node"><title>cleanNeeded</title>
<polygon fill="cyan" stroke="black" points="680,-606 594,-606 594,-570 680,-570 680,-606"/>
<text text-anchor="middle" x="637" y="-584.3" font-family="Times,serif" font-size="14.00">cleanNeeded</text>
</g>
<!-- clean&#45;&gt;cleanNeeded -->
<g id="edge29" class="edge"><title>clean&#45;&gt;cleanNeeded</title>
<path fill="none" stroke="black" d="M650.722,-660.84C648.3,-648.158 644.954,-630.64 642.172,-616.077"/>
<polygon fill="black" stroke="black" points="645.582,-615.273 640.268,-606.107 638.706,-616.587 645.582,-615.273"/>
</g>
<!-- cleanAll -->
<g id="node31" class="node"><title>cleanAll</title>
<polygon fill="orange" stroke="black" points="800,-606 746,-606 746,-570 800,-570 800,-606"/>
<text text-anchor="middle" x="773" y="-584.3" font-family="Times,serif" font-size="14.00">clean</text>
</g>
<!-- clean&#45;&gt;cleanAll -->
<g id="edge37" class="edge"><title>clean&#45;&gt;cleanAll</title>
<path fill="none" stroke="blue" d="M676.944,-660.84C695.465,-646.988 721.7,-627.367 742.074,-612.129"/>
<polygon fill="blue" stroke="blue" points="744.214,-614.9 750.126,-606.107 740.022,-609.294 744.214,-614.9"/>
</g>
<!-- cleanNeeded&#45;&gt;cleanNeeded -->
<g id="edge30" class="edge"><title>cleanNeeded&#45;&gt;cleanNeeded</title>
<path fill="none" stroke="red" d="M680.036,-601.262C690.355,-600.225 698,-595.805 698,-588 698,-583 694.862,-579.389 689.894,-577.167"/>
<polygon fill="red" stroke="red" points="690.583,-573.732 680.036,-574.738 688.909,-580.529 690.583,-573.732"/>
</g>
<!-- cleanAllNeeded -->
<g id="node32" class="node"><title>cleanAllNeeded</title>
<polygon fill="orange" stroke="black" points="816,-534 730,-534 730,-498 816,-498 816,-534"/>
<text text-anchor="middle" x="773" y="-512.3" font-family="Times,serif" font-size="14.00">cleanNeeded</text>
</g>
<!-- cleanNeeded&#45;&gt;cleanAllNeeded -->
<g id="edge38" class="edge"><title>cleanNeeded&#45;&gt;cleanAllNeeded</title>
<path fill="none" stroke="blue" d="M670.269,-569.876C688.463,-560.512 711.191,-548.814 730.64,-538.803"/>
<polygon fill="blue" stroke="blue" points="732.313,-541.878 739.603,-534.19 729.11,-535.654 732.313,-541.878"/>
</g>
<!-- echo -->
<g id="node27" class="node"><title>echo</title>
<polygon fill="cyan" stroke="black" points="238,-697 184,-697 184,-661 238,-661 238,-697"/>
<text text-anchor="middle" x="211" y="-675.3" font-family="Times,serif" font-size="14.00">echo</text>
</g>
<!-- bndproperties -->
<g id="node28" class="node"><title>bndproperties</title>
<polygon fill="cyan" stroke="black" points="142.25,-697 51.75,-697 51.75,-661 142.25,-661 142.25,-697"/>
<text text-anchor="middle" x="97" y="-675.3" font-family="Times,serif" font-size="14.00">bndproperties</text>
</g>
<!-- index -->
<g id="node30" class="node"><title>index</title>
<polygon fill="orange" stroke="black" points="996,-606 942,-606 942,-570 996,-570 996,-606"/>
<text text-anchor="middle" x="969" y="-584.3" font-family="Times,serif" font-size="14.00">index</text>
</g>
<!-- cleanAll&#45;&gt;cleanAllNeeded -->
<g id="edge39" class="edge"><title>cleanAll&#45;&gt;cleanAllNeeded</title>
<path fill="none" stroke="black" d="M773,-569.697C773,-561.983 773,-552.712 773,-544.112"/>
<polygon fill="black" stroke="black" points="776.5,-544.104 773,-534.104 769.5,-544.104 776.5,-544.104"/>
</g>
<!-- distclean -->
<g id="node33" class="node"><title>distclean</title>
<polygon fill="orange" stroke="black" points="917.25,-534 852.75,-534 852.75,-498 917.25,-498 917.25,-534"/>
<text text-anchor="middle" x="885" y="-512.3" font-family="Times,serif" font-size="14.00">distclean</text>
</g>
<!-- cleanAll&#45;&gt;distclean -->
<g id="edge40" class="edge"><title>cleanAll&#45;&gt;distclean</title>
<path fill="none" stroke="black" d="M800.112,-570.055C814.861,-560.837 833.29,-549.319 849.206,-539.371"/>
<polygon fill="black" stroke="black" points="851.124,-542.3 857.749,-534.032 847.414,-536.364 851.124,-542.3"/>
</g>
<!-- cleanAllNeeded&#45;&gt;cleanAllNeeded -->
<g id="edge41" class="edge"><title>cleanAllNeeded&#45;&gt;cleanAllNeeded</title>
<path fill="none" stroke="red" d="M816.036,-529.262C826.355,-528.225 834,-523.805 834,-516 834,-511 830.862,-507.389 825.894,-505.167"/>
<polygon fill="red" stroke="red" points="826.583,-501.732 816.036,-502.738 824.909,-508.529 826.583,-501.732"/>
</g>
<!-- distcleanNeeded -->
<g id="node34" class="node"><title>distcleanNeeded</title>
<polygon fill="orange" stroke="black" points="868,-462 762,-462 762,-426 868,-426 868,-462"/>
<text text-anchor="middle" x="815" y="-440.3" font-family="Times,serif" font-size="14.00">distcleanNeeded</text>
</g>
<!-- cleanAllNeeded&#45;&gt;distcleanNeeded -->
<g id="edge42" class="edge"><title>cleanAllNeeded&#45;&gt;distcleanNeeded</title>
<path fill="none" stroke="black" d="M783.382,-497.697C788.265,-489.559 794.187,-479.689 799.579,-470.701"/>
<polygon fill="black" stroke="black" points="802.594,-472.48 804.737,-462.104 796.591,-468.879 802.594,-472.48"/>
</g>
<!-- distclean&#45;&gt;distcleanNeeded -->
<g id="edge43" class="edge"><title>distclean&#45;&gt;distcleanNeeded</title>
<path fill="none" stroke="black" d="M867.697,-497.697C859.135,-489.135 848.656,-478.656 839.304,-469.304"/>
<polygon fill="black" stroke="black" points="841.65,-466.701 832.104,-462.104 836.701,-471.65 841.65,-466.701"/>
</g>
<!-- distcleanNeeded&#45;&gt;distcleanNeeded -->
<g id="edge44" class="edge"><title>distcleanNeeded&#45;&gt;distcleanNeeded</title>
<path fill="none" stroke="red" d="M868.257,-456.899C878.632,-455.401 886,-451.102 886,-444 886,-439.451 882.976,-436.051 878.075,-433.801"/>
<polygon fill="red" stroke="red" points="878.827,-430.378 868.257,-431.101 876.971,-437.128 878.827,-430.378"/>
</g>
<!-- init -->
<g id="node35" class="node"><title>init</title>
<polygon fill="lightcyan" stroke="black" points="930,-697 876,-697 876,-661 930,-661 930,-697"/>
<text text-anchor="middle" x="903" y="-675.3" font-family="Times,serif" font-size="14.00">init</text>
</g>
<!-- wrapper -->
<g id="node36" class="node"><title>wrapper</title>
<polygon fill="orange" stroke="black" points="857.25,-697 796.75,-697 796.75,-661 857.25,-661 857.25,-697"/>
<text text-anchor="middle" x="827" y="-675.3" font-family="Times,serif" font-size="14.00">wrapper</text>
</g>
</g>
</svg>
