<?xml version="1.0" encoding="UTF-8" standalone="no"?>
<!DOCTYPE svg PUBLIC "-//W3C//DTD SVG 1.1//EN"
 "http://www.w3.org/Graphics/SVG/1.1/DTD/svg11.dtd">
<!-- Generated by graphviz version 2.40.1 (0)
 -->
<!-- Title: GradleSetup Pages: 1 -->
<svg width="1712pt" height="752pt"
 viewBox="0.00 0.00 1712.00 752.00" xmlns="http://www.w3.org/2000/svg" xmlns:xlink="http://www.w3.org/1999/xlink">
<g id="graph0" class="graph" transform="scale(1 1) rotate(0) translate(4 748)">
<title>GradleSetup</title>
<polygon fill="#ffffff" stroke="transparent" points="-4,4 -4,-748 1708,-748 1708,4 -4,4"/>
<text text-anchor="middle" x="76.5" y="-728.8" font-family="Times,serif" font-size="14.00" fill="#000000">Gradle Build Setup</text>
<g id="clust1" class="cluster">
<title>cluster1</title>
<polygon fill="#d3d3d3" stroke="#000000" points="8,-8 8,-713 1428,-713 1428,-8 8,-8"/>
<text text-anchor="middle" x="116.5" y="-15.8" font-family="Times,serif" font-size="14.00" fill="#000000">Java Projects / Bnd Projects</text>
</g>
<g id="clust2" class="cluster">
<title>cluster101</title>
</g>
<g id="clust3" class="cluster">
<title>cluster102</title>
</g>
<g id="clust4" class="cluster">
<title>cluster103</title>
</g>
<g id="clust5" class="cluster">
<title>cluster104</title>
</g>
<g id="clust6" class="cluster">
<title>cluster105</title>
</g>
<g id="clust7" class="cluster">
<title>cluster106</title>
</g>
<g id="clust8" class="cluster">
<title>cluster107</title>
</g>
<g id="clust9" class="cluster">
<title>cluster108</title>
</g>
<g id="clust10" class="cluster">
<title>cluster109</title>
</g>
<g id="clust11" class="cluster">
<title>cluster110</title>
</g>
<g id="clust12" class="cluster">
<title>cluster2</title>
<polygon fill="#d3d3d3" stroke="#000000" points="1436,-387 1436,-622 1696,-622 1696,-387 1436,-387"/>
<text text-anchor="middle" x="1486" y="-394.8" font-family="Times,serif" font-size="14.00" fill="#000000">All Projects</text>
</g>
<g id="clust13" class="cluster">
<title>cluster201</title>
</g>
<g id="clust14" class="cluster">
<title>cluster3</title>
<polygon fill="#d3d3d3" stroke="#000000" points="1483,-630 1483,-705 1649,-705 1649,-630 1483,-630"/>
<text text-anchor="middle" x="1536" y="-637.8" font-family="Times,serif" font-size="14.00" fill="#000000">Root Project</text>
</g>
<!-- compileJava -->
<g id="node1" class="node">
<title>compileJava</title>
<polygon fill="#e0ffff" stroke="#000000" points="698,-697 594,-697 594,-661 698,-661 698,-697"/>
<text text-anchor="middle" x="646" y="-675.3" font-family="Times,serif" font-size="14.00" fill="#000000">compileJava</text>
</g>
<!-- classes -->
<g id="node3" class="node">
<title>classes</title>
<polygon fill="#e0ffff" stroke="#000000" points="537,-606 469,-606 469,-570 537,-570 537,-606"/>
<text text-anchor="middle" x="503" y="-584.3" font-family="Times,serif" font-size="14.00" fill="#000000">classes</text>
</g>
<!-- compileJava&#45;&gt;classes -->
<g id="edge1" class="edge">
<title>compileJava&#45;&gt;classes</title>
<path fill="none" stroke="#000000" d="M625.6214,-660.8935C614.1264,-651.1339 599.2489,-639.2349 585,-630 572.9031,-622.1599 559.1606,-614.6345 546.4304,-608.174"/>
<polygon fill="#000000" stroke="#000000" points="547.8898,-604.9909 537.3778,-603.6687 544.7709,-611.2577 547.8898,-604.9909"/>
</g>
<!-- processResources -->
<g id="node2" class="node">
<title>processResources</title>
<polygon fill="#e0ffff" stroke="#000000" points="576,-697 430,-697 430,-661 576,-661 576,-697"/>
<text text-anchor="middle" x="503" y="-675.3" font-family="Times,serif" font-size="14.00" fill="#000000">processResources</text>
</g>
<!-- processResources&#45;&gt;classes -->
<g id="edge2" class="edge">
<title>processResources&#45;&gt;classes</title>
<path fill="none" stroke="#000000" d="M503,-660.5848C503,-647.9209 503,-630.8558 503,-616.4541"/>
<polygon fill="#000000" stroke="#000000" points="506.5001,-616.0772 503,-606.0773 499.5001,-616.0773 506.5001,-616.0772"/>
</g>
<!-- jar -->
<g id="node4" class="node">
<title>jar</title>
<polygon fill="#00ffff" stroke="#000000" points="634,-534 580,-534 580,-498 634,-498 634,-534"/>
<text text-anchor="middle" x="607" y="-512.3" font-family="Times,serif" font-size="14.00" fill="#000000">jar</text>
</g>
<!-- classes&#45;&gt;jar -->
<g id="edge4" class="edge">
<title>classes&#45;&gt;jar</title>
<path fill="none" stroke="#000000" d="M529.2436,-569.8314C542.2995,-560.7927 558.2535,-549.7476 572.3047,-540.0198"/>
<polygon fill="#000000" stroke="#000000" points="574.5351,-542.7326 580.7648,-534.1628 570.5506,-536.9773 574.5351,-542.7326"/>
</g>
<!-- compileTestJava -->
<g id="node5" class="node">
<title>compileTestJava</title>
<polygon fill="#e0ffff" stroke="#000000" points="504,-534 370,-534 370,-498 504,-498 504,-534"/>
<text text-anchor="middle" x="437" y="-512.3" font-family="Times,serif" font-size="14.00" fill="#000000">compileTestJava</text>
</g>
<!-- classes&#45;&gt;compileTestJava -->
<g id="edge3" class="edge">
<title>classes&#45;&gt;compileTestJava</title>
<path fill="none" stroke="#000000" d="M486.3454,-569.8314C478.5886,-561.3694 469.2198,-551.1489 460.739,-541.8971"/>
<polygon fill="#000000" stroke="#000000" points="463.2162,-539.4198 453.8788,-534.4133 458.0561,-544.1499 463.2162,-539.4198"/>
</g>
<!-- test -->
<g id="node8" class="node">
<title>test</title>
<polygon fill="#e0ffff" stroke="#000000" points="138,-371 84,-371 84,-335 138,-335 138,-371"/>
<text text-anchor="middle" x="111" y="-349.3" font-family="Times,serif" font-size="14.00" fill="#000000">test</text>
</g>
<!-- classes&#45;&gt;test -->
<g id="edge5" class="edge">
<title>classes&#45;&gt;test</title>
<path fill="none" stroke="#000000" d="M468.739,-585.52C386.8442,-579.293 184.8353,-562.0548 162,-542 115.6047,-501.254 109.3756,-423.1475 109.6689,-381.2334"/>
<polygon fill="#000000" stroke="#000000" points="113.1696,-381.2273 109.8715,-371.1589 106.171,-381.0864 113.1696,-381.2273"/>
</g>
<!-- uploadArchives -->
<g id="node9" class="node">
<title>uploadArchives</title>
<polygon fill="#e0ffff" stroke="#000000" points="671,-462 543,-462 543,-426 671,-426 671,-462"/>
<text text-anchor="middle" x="607" y="-440.3" font-family="Times,serif" font-size="14.00" fill="#000000">uploadArchives</text>
</g>
<!-- jar&#45;&gt;uploadArchives -->
<g id="edge8" class="edge">
<title>jar&#45;&gt;uploadArchives</title>
<path fill="none" stroke="#000000" d="M607,-497.8314C607,-490.131 607,-480.9743 607,-472.4166"/>
<polygon fill="#000000" stroke="#000000" points="610.5001,-472.4132 607,-462.4133 603.5001,-472.4133 610.5001,-472.4132"/>
</g>
<!-- assemble -->
<g id="node10" class="node">
<title>assemble</title>
<polygon fill="#e0ffff" stroke="#000000" points="772.5,-462 689.5,-462 689.5,-426 772.5,-426 772.5,-462"/>
<text text-anchor="middle" x="731" y="-440.3" font-family="Times,serif" font-size="14.00" fill="#000000">assemble</text>
</g>
<!-- jar&#45;&gt;assemble -->
<g id="edge9" class="edge">
<title>jar&#45;&gt;assemble</title>
<path fill="none" stroke="#000000" d="M634.2123,-500.1993C650.8768,-490.5231 672.4988,-477.9685 691.0782,-467.1804"/>
<polygon fill="#000000" stroke="#000000" points="693.0292,-470.0949 699.9196,-462.0467 689.5142,-464.0413 693.0292,-470.0949"/>
</g>
<!-- testClasses -->
<g id="node7" class="node">
<title>testClasses</title>
<polygon fill="#e0ffff" stroke="#000000" points="312.5,-462 213.5,-462 213.5,-426 312.5,-426 312.5,-462"/>
<text text-anchor="middle" x="263" y="-440.3" font-family="Times,serif" font-size="14.00" fill="#000000">testClasses</text>
</g>
<!-- compileTestJava&#45;&gt;testClasses -->
<g id="edge6" class="edge">
<title>compileTestJava&#45;&gt;testClasses</title>
<path fill="none" stroke="#000000" d="M393.0925,-497.8314C369.7176,-488.159 340.7903,-476.1891 316.1532,-465.9944"/>
<polygon fill="#000000" stroke="#000000" points="317.1702,-462.6275 306.5918,-462.038 314.4937,-469.0956 317.1702,-462.6275"/>
</g>
<!-- processTestResources -->
<g id="node6" class="node">
<title>processTestResources</title>
<polygon fill="#e0ffff" stroke="#000000" points="351.5,-534 174.5,-534 174.5,-498 351.5,-498 351.5,-534"/>
<text text-anchor="middle" x="263" y="-512.3" font-family="Times,serif" font-size="14.00" fill="#000000">processTestResources</text>
</g>
<!-- processTestResources&#45;&gt;testClasses -->
<g id="edge7" class="edge">
<title>processTestResources&#45;&gt;testClasses</title>
<path fill="none" stroke="#000000" d="M263,-497.8314C263,-490.131 263,-480.9743 263,-472.4166"/>
<polygon fill="#000000" stroke="#000000" points="266.5001,-472.4132 263,-462.4133 259.5001,-472.4133 266.5001,-472.4132"/>
</g>
<!-- testClasses&#45;&gt;test -->
<g id="edge10" class="edge">
<title>testClasses&#45;&gt;test</title>
<path fill="none" stroke="#000000" d="M232.6059,-425.8035C207.8839,-411.0029 172.9453,-390.0857 146.8574,-374.4673"/>
<polygon fill="#000000" stroke="#000000" points="148.4079,-371.3163 138.0302,-369.1825 144.8122,-377.3222 148.4079,-371.3163"/>
</g>
<!-- check -->
<g id="node12" class="node">
<title>check</title>
<polygon fill="#00ffff" stroke="#000000" points="383.5,-227 324.5,-227 324.5,-191 383.5,-191 383.5,-227"/>
<text text-anchor="middle" x="354" y="-205.3" font-family="Times,serif" font-size="14.00" fill="#000000">check</text>
</g>
<!-- test&#45;&gt;check -->
<g id="edge14" class="edge">
<title>test&#45;&gt;check</title>
<path fill="none" stroke="#000000" d="M83.8097,-341.9858C69.163,-334.4811 52.413,-322.9811 44,-307 33.2342,-286.5496 28.5046,-272.1469 44,-255 83.3152,-211.4945 244.1627,-241.5817 314.1963,-228.0082"/>
<polygon fill="#000000" stroke="#000000" points="315.3509,-231.3292 324.2351,-225.5568 313.6903,-224.529 315.3509,-231.3292"/>
</g>
<!-- findbugsTest -->
<g id="node28" class="node">
<title>findbugsTest</title>
<polygon fill="#ffa500" stroke="#000000" points="166,-299 56,-299 56,-263 166,-263 166,-299"/>
<text text-anchor="middle" x="111" y="-277.3" font-family="Times,serif" font-size="14.00" fill="#000000">findbugsTest</text>
</g>
<!-- test&#45;&gt;findbugsTest -->
<g id="edge37" class="edge">
<title>test&#45;&gt;findbugsTest</title>
<path fill="none" stroke="#000000" d="M111,-334.8314C111,-327.131 111,-317.9743 111,-309.4166"/>
<polygon fill="#000000" stroke="#000000" points="114.5001,-309.4132 111,-299.4133 107.5001,-309.4133 114.5001,-309.4132"/>
</g>
<!-- jacocoTestReport -->
<g id="node34" class="node">
<title>jacocoTestReport</title>
<polygon fill="#ffa500" stroke="#000000" points="232,-155 90,-155 90,-119 232,-119 232,-155"/>
<text text-anchor="middle" x="161" y="-133.3" font-family="Times,serif" font-size="14.00" fill="#000000">jacocoTestReport</text>
</g>
<!-- test&#45;&gt;jacocoTestReport -->
<g id="edge40" class="edge">
<title>test&#45;&gt;jacocoTestReport</title>
<path fill="none" stroke="#ff00ff" d="M83.9211,-345.3294C65.4321,-338.5221 42.3122,-326.5535 31,-307 19.4268,-286.9954 21.6422,-276.1319 31,-255 49.1625,-213.9852 89.4035,-181.1312 120.3369,-160.6093"/>
<polygon fill="#ff00ff" stroke="#ff00ff" points="122.2867,-163.5165 128.7888,-155.1515 118.4893,-157.636 122.2867,-163.5165"/>
</g>
<!-- assemble&#45;&gt;compileJava -->
<g id="edge22" class="edge">
<title>assemble&#45;&gt;compileJava</title>
<path fill="none" stroke="#ff0000" d="M724.4491,-462.1113C709.6564,-503.0087 673.5892,-602.724 655.9896,-651.3817"/>
<polygon fill="#ff0000" stroke="#ff0000" points="652.6388,-650.3559 652.5287,-660.9502 659.2214,-652.7369 652.6388,-650.3559"/>
</g>
<!-- testOSGi -->
<g id="node11" class="node">
<title>testOSGi</title>
<polygon fill="#00ffff" stroke="#000000" points="432,-299 350,-299 350,-263 432,-263 432,-299"/>
<text text-anchor="middle" x="391" y="-277.3" font-family="Times,serif" font-size="14.00" fill="#000000">testOSGi</text>
</g>
<!-- assemble&#45;&gt;testOSGi -->
<g id="edge12" class="edge">
<title>assemble&#45;&gt;testOSGi</title>
<path fill="none" stroke="#000000" d="M720.3778,-425.7648C711.4718,-412.3906 697.4244,-395.1921 680,-387 637.7374,-367.1301 511.7376,-399.9501 470,-379 439.9593,-363.9211 417.4991,-331.5856 404.3545,-308.1726"/>
<polygon fill="#000000" stroke="#000000" points="407.2777,-306.2188 399.4564,-299.0719 401.1137,-309.5363 407.2777,-306.2188"/>
</g>
<!-- release -->
<g id="node14" class="node">
<title>release</title>
<polygon fill="#00ffff" stroke="#000000" points="601,-371 533,-371 533,-335 601,-335 601,-371"/>
<text text-anchor="middle" x="567" y="-349.3" font-family="Times,serif" font-size="14.00" fill="#000000">release</text>
</g>
<!-- assemble&#45;&gt;release -->
<g id="edge23" class="edge">
<title>assemble&#45;&gt;release</title>
<path fill="none" stroke="#000000" d="M719.6466,-425.9088C710.5404,-412.9745 696.5687,-396.276 680,-387 662.6568,-377.2904 655.1555,-384.3036 636,-379 627.7533,-376.7167 619.1089,-373.8532 610.8368,-370.8681"/>
<polygon fill="#000000" stroke="#000000" points="611.9359,-367.5427 601.3431,-367.3355 609.4947,-374.1032 611.9359,-367.5427"/>
</g>
<!-- testrunX -->
<g id="node16" class="node">
<title>testrunX</title>
<polygon fill="#00ffff" stroke="#000000" points="1399.5,-371 1266.5,-371 1262.5,-367 1262.5,-335 1395.5,-335 1399.5,-339 1399.5,-371"/>
<polyline fill="none" stroke="#000000" points="1395.5,-367 1262.5,-367 "/>
<polyline fill="none" stroke="#000000" points="1395.5,-367 1395.5,-335 "/>
<polyline fill="none" stroke="#000000" points="1395.5,-367 1399.5,-371 "/>
<text text-anchor="middle" x="1331" y="-349.3" font-family="Times,serif" font-size="14.00" fill="#000000">testrun.&lt;name&gt;</text>
</g>
<!-- assemble&#45;&gt;testrunX -->
<g id="edge29" class="edge">
<title>assemble&#45;&gt;testrunX</title>
<path fill="none" stroke="#000000" d="M772.5138,-441.6959C861.6571,-436.1273 1077.6107,-419.3053 1254,-379 1260.1382,-377.5974 1266.4761,-375.8938 1272.7577,-374.0367"/>
<polygon fill="#000000" stroke="#000000" points="1274.024,-377.3088 1282.5455,-371.0132 1271.9579,-370.6206 1274.024,-377.3088"/>
</g>
<!-- runX -->
<g id="node17" class="node">
<title>runX</title>
<polygon fill="#00ffff" stroke="#000000" points="1244.5,-371 1139.5,-371 1135.5,-367 1135.5,-335 1240.5,-335 1244.5,-339 1244.5,-371"/>
<polyline fill="none" stroke="#000000" points="1240.5,-367 1135.5,-367 "/>
<polyline fill="none" stroke="#000000" points="1240.5,-367 1240.5,-335 "/>
<polyline fill="none" stroke="#000000" points="1240.5,-367 1244.5,-371 "/>
<text text-anchor="middle" x="1190" y="-349.3" font-family="Times,serif" font-size="14.00" fill="#000000">run.&lt;name&gt;</text>
</g>
<!-- assemble&#45;&gt;runX -->
<g id="edge28" class="edge">
<title>assemble&#45;&gt;runX</title>
<path fill="none" stroke="#000000" d="M772.6023,-440.2323C845.3408,-432.9674 999.8993,-414.5096 1126,-379 1130.5924,-377.7068 1135.3029,-376.1877 1139.984,-374.5441"/>
<polygon fill="#000000" stroke="#000000" points="1141.336,-377.7759 1149.504,-371.028 1138.9107,-371.2095 1141.336,-377.7759"/>
</g>
<!-- resolveX -->
<g id="node18" class="node">
<title>resolveX</title>
<polygon fill="#00ffff" stroke="#000000" points="1117,-371 985,-371 981,-367 981,-335 1113,-335 1117,-339 1117,-371"/>
<polyline fill="none" stroke="#000000" points="1113,-367 981,-367 "/>
<polyline fill="none" stroke="#000000" points="1113,-367 1113,-335 "/>
<polyline fill="none" stroke="#000000" points="1113,-367 1117,-371 "/>
<text text-anchor="middle" x="1049" y="-349.3" font-family="Times,serif" font-size="14.00" fill="#000000">resolve.&lt;name&gt;</text>
</g>
<!-- assemble&#45;&gt;resolveX -->
<g id="edge26" class="edge">
<title>assemble&#45;&gt;resolveX</title>
<path fill="none" stroke="#000000" d="M772.5883,-433.6214C820.8012,-421.3961 902.5392,-400.072 972,-379 976.9367,-377.5024 982.0338,-375.9022 987.145,-374.2593"/>
<polygon fill="#000000" stroke="#000000" points="988.5295,-377.4894 996.9528,-371.063 986.3604,-370.8339 988.5295,-377.4894"/>
</g>
<!-- exportX -->
<g id="node20" class="node">
<title>exportX</title>
<polygon fill="#00ffff" stroke="#000000" points="962.5,-371 835.5,-371 831.5,-367 831.5,-335 958.5,-335 962.5,-339 962.5,-371"/>
<polyline fill="none" stroke="#000000" points="958.5,-367 831.5,-367 "/>
<polyline fill="none" stroke="#000000" points="958.5,-367 958.5,-335 "/>
<polyline fill="none" stroke="#000000" points="958.5,-367 962.5,-371 "/>
<text text-anchor="middle" x="897" y="-349.3" font-family="Times,serif" font-size="14.00" fill="#000000">export.&lt;name&gt;</text>
</g>
<!-- assemble&#45;&gt;exportX -->
<g id="edge24" class="edge">
<title>assemble&#45;&gt;exportX</title>
<path fill="none" stroke="#000000" d="M764.1936,-425.8035C790.4039,-411.4352 827.1295,-391.3025 855.3189,-375.8493"/>
<polygon fill="#000000" stroke="#000000" points="857.0608,-378.8858 864.1472,-371.0097 853.6959,-372.7476 857.0608,-378.8858"/>
</g>
<!-- runbundlesX -->
<g id="node22" class="node">
<title>runbundlesX</title>
<polygon fill="#00ffff" stroke="#000000" points="813.5,-371 652.5,-371 648.5,-367 648.5,-335 809.5,-335 813.5,-339 813.5,-371"/>
<polyline fill="none" stroke="#000000" points="809.5,-367 648.5,-367 "/>
<polyline fill="none" stroke="#000000" points="809.5,-367 809.5,-335 "/>
<polyline fill="none" stroke="#000000" points="809.5,-367 813.5,-371 "/>
<text text-anchor="middle" x="731" y="-349.3" font-family="Times,serif" font-size="14.00" fill="#000000">runbundles.&lt;name&gt;</text>
</g>
<!-- assemble&#45;&gt;runbundlesX -->
<g id="edge30" class="edge">
<title>assemble&#45;&gt;runbundlesX</title>
<path fill="none" stroke="#000000" d="M731,-425.5848C731,-412.9209 731,-395.8558 731,-381.4541"/>
<polygon fill="#000000" stroke="#000000" points="734.5001,-381.0772 731,-371.0773 727.5001,-381.0773 734.5001,-381.0772"/>
</g>
<!-- build -->
<g id="node24" class="node">
<title>build</title>
<polygon fill="#e0ffff" stroke="#000000" points="973,-155 919,-155 919,-119 973,-119 973,-155"/>
<text text-anchor="middle" x="946" y="-133.3" font-family="Times,serif" font-size="14.00" fill="#000000">build</text>
</g>
<!-- assemble&#45;&gt;build -->
<g id="edge11" class="edge">
<title>assemble&#45;&gt;build</title>
<path fill="none" stroke="#000000" d="M772.5225,-443.2109C913.7049,-440.1041 1368.8587,-426.4551 1412,-379 1449.0719,-338.2212 1445.8503,-298.4902 1412,-255 1358.6548,-186.4631 1084.0214,-151.3715 983.1869,-140.645"/>
<polygon fill="#000000" stroke="#000000" points="983.4614,-137.1547 973.152,-139.5974 982.7345,-144.1169 983.4614,-137.1547"/>
</g>
<!-- findbugsMain -->
<g id="node27" class="node">
<title>findbugsMain</title>
<polygon fill="#ffa500" stroke="#000000" points="299.5,-299 184.5,-299 184.5,-263 299.5,-263 299.5,-299"/>
<text text-anchor="middle" x="242" y="-277.3" font-family="Times,serif" font-size="14.00" fill="#000000">findbugsMain</text>
</g>
<!-- assemble&#45;&gt;findbugsMain -->
<g id="edge36" class="edge">
<title>assemble&#45;&gt;findbugsMain</title>
<path fill="none" stroke="#000000" d="M720.3964,-425.7249C711.5006,-412.3292 697.4575,-395.1213 680,-387 653.0894,-374.4811 441.5633,-387.0646 413,-379 359.9488,-364.0214 305.9475,-329.0841 273.2019,-305.2405"/>
<polygon fill="#000000" stroke="#000000" points="275.0696,-302.2686 264.9484,-299.1363 270.9072,-307.8966 275.0696,-302.2686"/>
</g>
<!-- testOSGi&#45;&gt;check -->
<g id="edge13" class="edge">
<title>testOSGi&#45;&gt;check</title>
<path fill="none" stroke="#000000" d="M381.6633,-262.8314C377.5757,-254.8771 372.6896,-245.369 368.1691,-236.5723"/>
<polygon fill="#000000" stroke="#000000" points="371.1461,-234.7078 363.4624,-227.4133 364.9201,-237.9074 371.1461,-234.7078"/>
</g>
<!-- checkNeeded -->
<g id="node13" class="node">
<title>checkNeeded</title>
<polygon fill="#00ffff" stroke="#000000" points="439.5,-155 324.5,-155 324.5,-119 439.5,-119 439.5,-155"/>
<text text-anchor="middle" x="382" y="-133.3" font-family="Times,serif" font-size="14.00" fill="#000000">checkNeeded</text>
</g>
<!-- check&#45;&gt;checkNeeded -->
<g id="edge15" class="edge">
<title>check&#45;&gt;checkNeeded</title>
<path fill="none" stroke="#000000" d="M361.0656,-190.8314C364.126,-182.9617 367.7779,-173.5712 371.1682,-164.8533"/>
<polygon fill="#000000" stroke="#000000" points="374.4768,-166.0019 374.8393,-155.4133 367.9527,-163.4647 374.4768,-166.0019"/>
</g>
<!-- check&#45;&gt;build -->
<g id="edge17" class="edge">
<title>check&#45;&gt;build</title>
<path fill="none" stroke="#000000" d="M383.7631,-205.3802C482.5831,-193.3615 799.6917,-154.7942 908.7477,-141.5307"/>
<polygon fill="#000000" stroke="#000000" points="909.4302,-144.9736 918.9345,-140.2918 908.585,-138.0248 909.4302,-144.9736"/>
</g>
<!-- check&#45;&gt;jacocoTestReport -->
<g id="edge41" class="edge">
<title>check&#45;&gt;jacocoTestReport</title>
<path fill="none" stroke="#ff00ff" d="M324.4671,-193.0089C322.9667,-192.3087 321.4719,-191.6348 320,-191 291.504,-178.7112 259.2145,-167.3054 231.2134,-158.173"/>
<polygon fill="#ff00ff" stroke="#ff00ff" points="232.0928,-154.7791 221.5012,-155.0398 229.9437,-161.4411 232.0928,-154.7791"/>
</g>
<!-- checkNeeded&#45;&gt;checkNeeded -->
<g id="edge16" class="edge">
<title>checkNeeded&#45;&gt;checkNeeded</title>
<path fill="none" stroke="#ff0000" d="M439.6071,-149.7584C450.1239,-148.1434 457.5,-143.8906 457.5,-137 457.5,-132.5857 454.4728,-129.2539 449.5321,-127.0048"/>
<polygon fill="#ff0000" stroke="#ff0000" points="450.1795,-123.552 439.6071,-124.2416 448.302,-130.2955 450.1795,-123.552"/>
</g>
<!-- releaseNeeded -->
<g id="node15" class="node">
<title>releaseNeeded</title>
<polygon fill="#00ffff" stroke="#000000" points="606,-299 482,-299 482,-263 606,-263 606,-299"/>
<text text-anchor="middle" x="544" y="-277.3" font-family="Times,serif" font-size="14.00" fill="#000000">releaseNeeded</text>
</g>
<!-- release&#45;&gt;releaseNeeded -->
<g id="edge32" class="edge">
<title>release&#45;&gt;releaseNeeded</title>
<path fill="none" stroke="#000000" d="M561.1961,-334.8314C558.7092,-327.0463 555.7469,-317.7729 552.9875,-309.1347"/>
<polygon fill="#000000" stroke="#000000" points="556.2591,-307.874 549.882,-299.4133 549.591,-310.0041 556.2591,-307.874"/>
</g>
<!-- releaseNeeded&#45;&gt;releaseNeeded -->
<g id="edge33" class="edge">
<title>releaseNeeded&#45;&gt;releaseNeeded</title>
<path fill="none" stroke="#ff0000" d="M606.0546,-293.6027C616.6554,-291.8806 624,-287.6797 624,-281 624,-276.7208 620.9858,-273.4589 616.0322,-271.2144"/>
<polygon fill="#ff0000" stroke="#ff0000" points="616.6294,-267.7462 606.0546,-268.3973 614.7273,-274.4829 616.6294,-267.7462"/>
</g>
<!-- resolve -->
<g id="node19" class="node">
<title>resolve</title>
<polygon fill="#00ffff" stroke="#000000" points="1083,-299 1015,-299 1015,-263 1083,-263 1083,-299"/>
<text text-anchor="middle" x="1049" y="-277.3" font-family="Times,serif" font-size="14.00" fill="#000000">resolve</text>
</g>
<!-- resolveX&#45;&gt;resolve -->
<g id="edge27" class="edge">
<title>resolveX&#45;&gt;resolve</title>
<path fill="none" stroke="#000000" d="M1049,-334.8314C1049,-327.131 1049,-317.9743 1049,-309.4166"/>
<polygon fill="#000000" stroke="#000000" points="1052.5001,-309.4132 1049,-299.4133 1045.5001,-309.4133 1052.5001,-309.4132"/>
</g>
<!-- export -->
<g id="node21" class="node">
<title>export</title>
<polygon fill="#00ffff" stroke="#000000" points="928.5,-299 865.5,-299 865.5,-263 928.5,-263 928.5,-299"/>
<text text-anchor="middle" x="897" y="-277.3" font-family="Times,serif" font-size="14.00" fill="#000000">export</text>
</g>
<!-- exportX&#45;&gt;export -->
<g id="edge25" class="edge">
<title>exportX&#45;&gt;export</title>
<path fill="none" stroke="#000000" d="M897,-334.8314C897,-327.131 897,-317.9743 897,-309.4166"/>
<polygon fill="#000000" stroke="#000000" points="900.5001,-309.4132 897,-299.4133 893.5001,-309.4133 900.5001,-309.4132"/>
</g>
<!-- runbundles -->
<g id="node23" class="node">
<title>runbundles</title>
<polygon fill="#00ffff" stroke="#000000" points="780,-299 682,-299 682,-263 780,-263 780,-299"/>
<text text-anchor="middle" x="731" y="-277.3" font-family="Times,serif" font-size="14.00" fill="#000000">runbundles</text>
</g>
<!-- runbundlesX&#45;&gt;runbundles -->
<g id="edge31" class="edge">
<title>runbundlesX&#45;&gt;runbundles</title>
<path fill="none" stroke="#000000" d="M731,-334.8314C731,-327.131 731,-317.9743 731,-309.4166"/>
<polygon fill="#000000" stroke="#000000" points="734.5001,-309.4132 731,-299.4133 727.5001,-309.4133 734.5001,-309.4132"/>
</g>
<!-- buildDependents -->
<g id="node25" class="node">
<title>buildDependents</title>
<polygon fill="#e0ffff" stroke="#000000" points="935,-83 797,-83 797,-47 935,-47 935,-83"/>
<text text-anchor="middle" x="866" y="-61.3" font-family="Times,serif" font-size="14.00" fill="#000000">buildDependents</text>
</g>
<!-- build&#45;&gt;buildDependents -->
<g id="edge18" class="edge">
<title>build&#45;&gt;buildDependents</title>
<path fill="none" stroke="#000000" d="M925.8126,-118.8314C916.1486,-110.1337 904.4204,-99.5783 893.9184,-90.1265"/>
<polygon fill="#000000" stroke="#000000" points="895.9553,-87.251 886.1809,-83.1628 891.2725,-92.454 895.9553,-87.251"/>
</g>
<!-- buildNeeded -->
<g id="node26" class="node">
<title>buildNeeded</title>
<polygon fill="#e0ffff" stroke="#000000" points="1079,-83 971,-83 971,-47 1079,-47 1079,-83"/>
<text text-anchor="middle" x="1025" y="-61.3" font-family="Times,serif" font-size="14.00" fill="#000000">buildNeeded</text>
</g>
<!-- build&#45;&gt;buildNeeded -->
<g id="edge20" class="edge">
<title>build&#45;&gt;buildNeeded</title>
<path fill="none" stroke="#000000" d="M965.935,-118.8314C975.4783,-110.1337 987.0599,-99.5783 997.4306,-90.1265"/>
<polygon fill="#000000" stroke="#000000" points="1000.038,-92.4857 1005.0713,-83.1628 995.3228,-87.3121 1000.038,-92.4857"/>
</g>
<!-- buildDependents&#45;&gt;buildDependents -->
<g id="edge19" class="edge">
<title>buildDependents&#45;&gt;buildDependents</title>
<path fill="none" stroke="#ffff00" d="M935.2746,-77.3102C945.8314,-75.4315 953,-71.3281 953,-65 953,-60.946 950.058,-57.8051 945.1679,-55.5772"/>
<polygon fill="#ffff00" stroke="#ffff00" points="945.8547,-52.1317 935.2746,-52.6898 943.8935,-58.8514 945.8547,-52.1317"/>
</g>
<!-- buildNeeded&#45;&gt;buildNeeded -->
<g id="edge21" class="edge">
<title>buildNeeded&#45;&gt;buildNeeded</title>
<path fill="none" stroke="#ff0000" d="M1079.0073,-77.8993C1089.5286,-76.4013 1097,-72.1016 1097,-65 1097,-60.4506 1093.9337,-57.051 1088.9636,-54.8012"/>
<polygon fill="#ff0000" stroke="#ff0000" points="1089.5748,-51.3406 1079.0073,-52.1007 1087.7423,-58.0965 1089.5748,-51.3406"/>
</g>
<!-- findbugsMain&#45;&gt;check -->
<g id="edge38" class="edge">
<title>findbugsMain&#45;&gt;check</title>
<path fill="none" stroke="#00ff00" d="M270.2623,-262.8314C284.4552,-253.7074 301.8282,-242.539 317.0636,-232.7449"/>
<polygon fill="#00ff00" stroke="#00ff00" points="319.2276,-235.5146 325.7467,-227.1628 315.4422,-229.6263 319.2276,-235.5146"/>
</g>
<!-- findbugsTest&#45;&gt;check -->
<g id="edge39" class="edge">
<title>findbugsTest&#45;&gt;check</title>
<path fill="none" stroke="#00ff00" d="M152.2365,-262.8789C159.7219,-259.9837 167.5263,-257.2166 175,-255 234.7303,-237.285 255.9378,-247.6288 314.4594,-228.6982"/>
<polygon fill="#00ff00" stroke="#00ff00" points="315.8379,-231.9266 324.1838,-225.3999 313.5894,-225.2975 315.8379,-231.9266"/>
</g>
<!-- javadoc -->
<g id="node29" class="node">
<title>javadoc</title>
<polygon fill="#ffa500" stroke="#000000" points="1070.5,-697 999.5,-697 999.5,-661 1070.5,-661 1070.5,-697"/>
<text text-anchor="middle" x="1035" y="-675.3" font-family="Times,serif" font-size="14.00" fill="#000000">javadoc</text>
</g>
<!-- clean -->
<g id="node30" class="node">
<title>clean</title>
<polygon fill="#00ffff" stroke="#000000" points="1396.5,-697 1341.5,-697 1341.5,-661 1396.5,-661 1396.5,-697"/>
<text text-anchor="middle" x="1369" y="-675.3" font-family="Times,serif" font-size="14.00" fill="#000000">clean</text>
</g>
<!-- cleanNeeded -->
<g id="node31" class="node">
<title>cleanNeeded</title>
<polygon fill="#00ffff" stroke="#000000" points="1402,-606 1292,-606 1292,-570 1402,-570 1402,-606"/>
<text text-anchor="middle" x="1347" y="-584.3" font-family="Times,serif" font-size="14.00" fill="#000000">cleanNeeded</text>
</g>
<!-- clean&#45;&gt;cleanNeeded -->
<g id="edge34" class="edge">
<title>clean&#45;&gt;cleanNeeded</title>
<path fill="none" stroke="#000000" d="M1364.548,-660.5848C1361.4564,-647.7967 1357.2797,-630.5207 1353.7768,-616.0313"/>
<polygon fill="#000000" stroke="#000000" points="1357.1223,-614.9748 1351.3703,-606.0773 1350.3183,-616.6197 1357.1223,-614.9748"/>
</g>
<!-- cleanAll -->
<g id="node35" class="node">
<title>cleanAll</title>
<polygon fill="#ffa500" stroke="#000000" points="1534.5,-606 1479.5,-606 1479.5,-570 1534.5,-570 1534.5,-606"/>
<text text-anchor="middle" x="1507" y="-584.3" font-family="Times,serif" font-size="14.00" fill="#000000">clean</text>
</g>
<!-- clean&#45;&gt;cleanAll -->
<g id="edge42" class="edge">
<title>clean&#45;&gt;cleanAll</title>
<path fill="none" stroke="#0000ff" d="M1396.5947,-660.8035C1417.9369,-646.73 1447.6657,-627.1262 1470.8982,-611.8063"/>
<polygon fill="#0000ff" stroke="#0000ff" points="1473.0316,-614.592 1479.4531,-606.165 1469.178,-608.7481 1473.0316,-614.592"/>
</g>
<!-- cleanNeeded&#45;&gt;cleanNeeded -->
<g id="edge35" class="edge">
<title>cleanNeeded&#45;&gt;cleanNeeded</title>
<path fill="none" stroke="#ff0000" d="M1402.0733,-600.854C1412.5741,-599.3159 1420,-595.0313 1420,-588 1420,-583.4956 1416.9524,-580.1184 1412.0011,-577.8684"/>
<polygon fill="#ff0000" stroke="#ff0000" points="1412.6429,-574.4153 1402.0733,-575.146 1410.7917,-581.166 1412.6429,-574.4153"/>
</g>
<!-- cleanAllNeeded -->
<g id="node36" class="node">
<title>cleanAllNeeded</title>
<polygon fill="#ffa500" stroke="#000000" points="1562,-534 1452,-534 1452,-498 1562,-498 1562,-534"/>
<text text-anchor="middle" x="1507" y="-512.3" font-family="Times,serif" font-size="14.00" fill="#000000">cleanNeeded</text>
</g>
<!-- cleanNeeded&#45;&gt;cleanAllNeeded -->
<g id="edge43" class="edge">
<title>cleanNeeded&#45;&gt;cleanAllNeeded</title>
<path fill="none" stroke="#0000ff" d="M1387.3748,-569.8314C1408.6787,-560.2446 1434.9983,-548.4008 1457.5211,-538.2655"/>
<polygon fill="#0000ff" stroke="#0000ff" points="1459.2326,-541.3334 1466.9156,-534.038 1456.3601,-534.95 1459.2326,-541.3334"/>
</g>
<!-- echo -->
<g id="node32" class="node">
<title>echo</title>
<polygon fill="#00ffff" stroke="#000000" points="359,-697 305,-697 305,-661 359,-661 359,-697"/>
<text text-anchor="middle" x="332" y="-675.3" font-family="Times,serif" font-size="14.00" fill="#000000">echo</text>
</g>
<!-- bndproperties -->
<g id="node33" class="node">
<title>bndproperties</title>
<polygon fill="#00ffff" stroke="#000000" points="181,-697 63,-697 63,-661 181,-661 181,-697"/>
<text text-anchor="middle" x="122" y="-675.3" font-family="Times,serif" font-size="14.00" fill="#000000">bndproperties</text>
</g>
<!-- cleanAll&#45;&gt;cleanAllNeeded -->
<g id="edge44" class="edge">
<title>cleanAll&#45;&gt;cleanAllNeeded</title>
<path fill="none" stroke="#000000" d="M1507,-569.8314C1507,-562.131 1507,-552.9743 1507,-544.4166"/>
<polygon fill="#000000" stroke="#000000" points="1510.5001,-544.4132 1507,-534.4133 1503.5001,-544.4133 1510.5001,-544.4132"/>
</g>
<!-- distclean -->
<g id="node37" class="node">
<title>distclean</title>
<polygon fill="#ffa500" stroke="#000000" points="1680,-534 1598,-534 1598,-498 1680,-498 1680,-534"/>
<text text-anchor="middle" x="1639" y="-512.3" font-family="Times,serif" font-size="14.00" fill="#000000">distclean</text>
</g>
<!-- cleanAll&#45;&gt;distclean -->
<g id="edge45" class="edge">
<title>cleanAll&#45;&gt;distclean</title>
<path fill="none" stroke="#000000" d="M1534.6715,-572.9064C1552.7154,-563.0643 1576.6085,-550.0317 1596.976,-538.9222"/>
<polygon fill="#000000" stroke="#000000" points="1598.6531,-541.9943 1605.7561,-534.133 1595.3011,-535.849 1598.6531,-541.9943"/>
</g>
<!-- cleanAllNeeded&#45;&gt;cleanAllNeeded -->
<g id="edge46" class="edge">
<title>cleanAllNeeded&#45;&gt;cleanAllNeeded</title>
<path fill="none" stroke="#ff0000" d="M1562.0733,-528.854C1572.5741,-527.3159 1580,-523.0313 1580,-516 1580,-511.4956 1576.9524,-508.1184 1572.0011,-505.8684"/>
<polygon fill="#ff0000" stroke="#ff0000" points="1572.6429,-502.4153 1562.0733,-503.146 1570.7917,-509.166 1572.6429,-502.4153"/>
</g>
<!-- distcleanNeeded -->
<g id="node38" class="node">
<title>distcleanNeeded</title>
<polygon fill="#ffa500" stroke="#000000" points="1625.5,-462 1488.5,-462 1488.5,-426 1625.5,-426 1625.5,-462"/>
<text text-anchor="middle" x="1557" y="-440.3" font-family="Times,serif" font-size="14.00" fill="#000000">distcleanNeeded</text>
</g>
<!-- cleanAllNeeded&#45;&gt;distcleanNeeded -->
<g id="edge47" class="edge">
<title>cleanAllNeeded&#45;&gt;distcleanNeeded</title>
<path fill="none" stroke="#000000" d="M1519.6171,-497.8314C1525.3172,-489.6232 1532.1663,-479.7606 1538.4359,-470.7323"/>
<polygon fill="#000000" stroke="#000000" points="1541.3838,-472.6234 1544.213,-462.4133 1535.6342,-468.6306 1541.3838,-472.6234"/>
</g>
<!-- distclean&#45;&gt;distcleanNeeded -->
<g id="edge48" class="edge">
<title>distclean&#45;&gt;distcleanNeeded</title>
<path fill="none" stroke="#000000" d="M1618.3079,-497.8314C1608.3052,-489.0485 1596.145,-478.3712 1585.3001,-468.8489"/>
<polygon fill="#000000" stroke="#000000" points="1587.5092,-466.1308 1577.6854,-462.1628 1582.8906,-471.3909 1587.5092,-466.1308"/>
</g>
<!-- distcleanNeeded&#45;&gt;distcleanNeeded -->
<g id="edge49" class="edge">
<title>distcleanNeeded&#45;&gt;distcleanNeeded</title>
<path fill="none" stroke="#ff0000" d="M1625.5253,-456.372C1636.2134,-454.5224 1643.5,-450.3984 1643.5,-444 1643.5,-439.801 1640.3619,-436.5816 1635.1838,-434.3416"/>
<polygon fill="#ff0000" stroke="#ff0000" points="1636.0993,-430.9634 1625.5253,-431.628 1634.2058,-437.7025 1636.0993,-430.9634"/>
</g>
<!-- init -->
<g id="node39" class="node">
<title>init</title>
<polygon fill="#e0ffff" stroke="#000000" points="1641,-697 1587,-697 1587,-661 1641,-661 1641,-697"/>
<text text-anchor="middle" x="1614" y="-675.3" font-family="Times,serif" font-size="14.00" fill="#000000">init</text>
</g>
<!-- wrapper -->
<g id="node40" class="node">
<title>wrapper</title>
<polygon fill="#ffa500" stroke="#000000" points="1568.5,-697 1491.5,-697 1491.5,-661 1568.5,-661 1568.5,-697"/>
<text text-anchor="middle" x="1530" y="-675.3" font-family="Times,serif" font-size="14.00" fill="#000000">wrapper</text>
</g>
</g>
</svg>
