<svg xmlns="http://www.w3.org/2000/svg" width="560" height="560" viewBox="0 0 560 560">
  <g fill="none" transform="translate(70 70)">
    <path fill="#00641E" d="M350.598182,408.087273 L324.545455,413.076364 C324.545455,413.076364 324.876364,410.696364 325.894545,404.129091 C339.334545,406.038182 350.598182,408.087273 350.598182,408.087273 Z M67.3018182,408.087273 C67.3018182,408.087273 78.5527273,406.038182 91.9927273,404.129091 C93.0109091,410.696364 93.3545455,413.076364 93.3545455,413.076364 L67.3018182,408.087273 Z"/>
    <path fill="#0AC855" d="M324.545455,413.076364 L350.598182,408.087273 C351.081818,408.176364 351.552727,407.972727 351.667273,407.641818 C357.598182,390.116364 363.630909,372.654545 369.816364,355.18 C387.710909,361.581818 404.014545,371.649091 417.365455,384.567273 C418.078182,385.241818 418.090909,385.903636 417.416364,385.827273 C404.816364,385.649091 392.98,387.481818 382.276364,390.854545 C382.047273,390.905455 381.907273,391.032727 381.894545,391.210909 C383.867273,408.214545 382.785455,425.090909 378.865455,440.910909 C378.7,441.343636 378.152727,441.356364 377.783636,440.961818 C366.316364,425.74 347.314545,414.501818 324.545455,413.076364 Z M67.3018182,408.087273 L93.3545455,413.076364 C70.5727273,414.501818 51.5963636,425.74 40.1290909,440.961818 C39.76,441.356364 39.2127273,441.343636 39.0472727,440.910909 C35.1272727,425.090909 34.0454545,408.214545 36.0181818,391.210909 C36.0054545,391.032727 35.8654545,390.905455 35.6363636,390.854545 C24.9327273,387.481818 13.0963636,385.649091 0.496363636,385.827273 C-0.178181818,385.903636 -0.165454545,385.241818 0.547272727,384.567273 C13.8854545,371.661818 30.1254545,361.530909 48.0072727,355.129091 C54.2054545,372.590909 60.2890909,390.116364 66.2327273,407.641818 C66.3472727,407.972727 66.8181818,408.176364 67.3018182,408.087273 Z"/>
    <path fill="#00912D" d="M350.598182,408.087273 C257.205455,391.72 160.681818,391.72 67.3018182,408.087273 C66.8181818,408.176364 66.3472727,407.972727 66.2327273,407.641818 C57.5909091,382.149091 48.6818182,356.72 39.4927273,331.354545 C39.3654545,330.998182 39.76,330.590909 40.3581818,330.489091 C151.390909,310.201818 266.496364,310.201818 377.541818,330.489091 C378.14,330.590909 378.534545,330.998182 378.394545,331.354545 C369.218182,356.72 360.309091,382.149091 351.667273,407.641818 C351.552727,407.972727 351.081818,408.176364 350.598182,408.087273 Z M234.945455,100.494545 C247.112727,99.4127273 273.712727,100.023636 286.707273,112.763636 C287.483636,113.54 286.809091,115.296364 285.701818,115.003636 C266.661818,109.874545 236.969091,135.125455 217.725455,118.796364 C217.203636,123.581818 212.889091,146.618182 180.027273,143.207273 C179.250909,143.130909 178.945455,142.265455 179.518182,141.781818 C184.609091,137.454545 190.858182,125.478182 185.5,117.829091 C168.776364,128.927273 160.121818,129.410909 129.283636,116.047273 C128.278182,115.614545 128.876364,113.972727 130.06,113.705455 C136.461818,112.267273 151.696364,106.730909 165.352727,104.147273 C167.961818,103.650909 170.52,103.358182 172.989091,103.332727 C158.849091,99.96 152.689091,97.0327273 143.372727,97.0709091 C142.354545,97.0836364 141.845455,95.8109091 142.583636,95.1109091 C157.156364,81.0981818 183.578182,80.3727273 196.305455,90.8090909 L184.901818,66.9963636 L198.761818,64.9090909 C198.761818,64.9090909 202.376364,77.6109091 205.609091,89.0272727 C220.041818,73.22 242.365455,74.8236364 249.887273,88.6327273 C250.332727,89.4472727 249.594545,90.4145455 248.678182,90.2490909 C241.105455,88.9636364 235.925455,95.2636364 234.830909,100.469091 L234.945455,100.494545 Z"/>
    <path fill="#FA320A" d="M72.8127273,325.309091 C162.132727,312.250909 253.476364,312.110909 342.821818,324.965455 C365.107273,298.645455 377.974545,264.714545 375.518182,225.349091 C371.661818,163.698182 335.630909,126.674545 283.703636,110.434545 C284.721818,111.198182 285.803636,111.898182 286.707273,112.763636 C287.483636,113.54 286.809091,115.296364 285.701818,115.003636 C266.661818,109.874545 236.969091,135.125455 217.725455,118.796364 C217.203636,123.569091 212.889091,146.618182 180.027273,143.207273 C179.250909,143.130909 178.945455,142.265455 179.518182,141.781818 C184.609091,137.454545 190.858182,125.465455 185.5,117.829091 C168.776364,128.927273 160.121818,129.410909 129.283636,116.047273 C129.029091,115.932727 129.130909,115.652727 129.067273,115.423636 C56.9927273,141.043636 38.4872727,191.990909 41.86,246.158182 C43.82,277.441818 55.3,303.978182 72.8127273,325.309091"/>
    <path fill="#FFD700" d="M72.66,325.334545 C55.16,304.029091 43.82,277.416364 41.86,246.158182 C38.4872727,191.990909 56.9927273,141.043636 129.067273,115.423636 C129.130909,115.652727 129.029091,115.932727 129.283636,116.047273 C128.278182,115.614545 128.876364,113.972727 130.06,113.705455 C136.461818,112.267273 151.696364,106.718182 165.352727,104.147273 C167.961818,103.650909 170.52,103.358182 172.989091,103.32 C158.849091,99.96 152.689091,97.0327273 143.372727,97.0709091 C142.354545,97.0836364 141.845455,95.8109091 142.583636,95.0981818 C157.156364,81.0854545 183.578182,80.3727273 196.305455,90.8090909 L184.901818,66.9836364 L198.761818,64.9090909 C198.761818,64.9090909 202.376364,77.5981818 205.609091,89.0272727 C220.041818,73.22 242.365455,74.8236364 249.887273,88.6327273 C250.332727,89.4472727 249.594545,90.4145455 248.678182,90.2490909 C241.105455,88.9636364 235.925455,95.2636364 234.830909,100.469091 L234.945455,100.494545 C247.112727,99.4127273 273.712727,100.023636 286.707273,112.763636 C285.803636,111.898182 284.721818,111.198182 283.703636,110.434545 C335.630909,126.674545 371.661818,163.698182 375.518182,225.349091 C377.974545,264.714545 365.107273,298.645455 342.821818,324.965455 C349.592727,325.932727 356.325455,327.065455 363.070909,328.185455 C391.465455,293.44 407.870909,249.390909 407.870909,202.134545 C407.870909,94.4490909 320.358182,10.0927273 208.650909,10.0927273 C96.9436364,10.0927273 9.43090909,94.4490909 9.43090909,202.134545 C9.43090909,249.467273 25.8363636,293.541818 54.2563636,328.274545 C60.3781818,327.256364 66.5127273,326.250909 72.66,325.334545"/>
    <path fill="#FF6A13" d="M54.2563636,328.274545 C25.8363636,293.541818 9.43090909,249.467273 9.43090909,202.134545 C9.43090909,94.4490909 96.9436364,10.0927273 208.650909,10.0927273 C320.358182,10.0927273 407.870909,94.4490909 407.870909,202.134545 C407.870909,249.390909 391.465455,293.44 363.070909,328.185455 C366.456364,328.745455 369.841818,329.190909 373.227273,329.801818 C400.629091,294.509091 417.021818,250.256364 417.021818,202.134545 C417.021818,87.0418182 323.730909,0.929090909 208.650909,0.929090909 C93.5581818,0.929090909 0.267272727,87.0418182 0.267272727,202.134545 C0.267272727,250.307273 16.6981818,294.585455 44.1509091,329.878182 C47.5109091,329.28 50.8836364,328.834545 54.2563636,328.274545"/>
  </g>
</svg>
