<?xml version="1.0" encoding="UTF-8" standalone="no"?>
<svg width="2192px" height="1006px" viewBox="0 0 2192 1006" version="1.1" xmlns="http://www.w3.org/2000/svg" xmlns:xlink="http://www.w3.org/1999/xlink" xmlns:sketch="http://www.bohemiancoding.com/sketch/ns">
    <!-- Generator: Sketch 3.2.2 (9983) - http://www.bohemiancoding.com/sketch -->
    <title>plex-pass</title>
    <desc>Created with Sketch.</desc>
    <defs>
        <linearGradient x1="0%" y1="50%" x2="100%" y2="50%" id="linearGradient-1">
            <stop stop-color="#CC7C19" offset="0%"></stop>
            <stop stop-color="#F9BE03" offset="100%"></stop>
        </linearGradient>
        <radialGradient cx="89.2670157%" cy="49.76%" fx="89.2670157%" fy="49.76%" r="92.4996161%" id="radialGradient-2">
            <stop stop-color="#F9BE03" offset="0%"></stop>
            <stop stop-color="#CC7C19" offset="100%"></stop>
        </radialGradient>
    </defs>
    <g id="Page-1" stroke="none" stroke-width="1" fill="none" fill-rule="evenodd" sketch:type="MSPage">
        <path d="M581.447242,3 L114.665836,3 C114.665836,65 65.3717026,114 3,114 L3,503 L3,892 C65.3717026,892 114.665836,941 114.665836,1003 L581.447242,1003 L842,1003 L842,3 L581.447242,3 L581.447242,3 Z" id="bg-left" stroke="#4B3F19" stroke-width="5" fill="#1F1F1F" sketch:type="MSShapeGroup"></path>
        <path d="M1415.5,1003 L1617,1003 L2080.99963,1003 C2080.99963,941 2130,892 2192,892 L2192,503 L2192,114 C2130,114 2080.99963,65 2080.99963,3 L1617,3 L1415.5,3 L833,3 L833,1003 L1415.5,1003 L1415.5,1003 Z" id="bg-right" fill="url(#linearGradient-1)" sketch:type="MSShapeGroup"></path>
        <path d="M246,185 L430.459466,185 L634,503 L430.459466,821 L246,821 L449.540534,503 L246,185" id="chevron" fill="url(#radialGradient-2)" sketch:type="MSShapeGroup"></path>
        <g id="PASS-+-PLEX" sketch:type="MSLayerGroup" transform="translate(1109.000000, 261.000000)">
            <g id="PASS" transform="translate(0.000000, 281.000000)" sketch:type="MSShapeGroup">
                <g id="yellow" transform="translate(4.000000, 4.000000)" fill="#F9BE03">
                    <path d="M580.189453,143.276367 C580.189453,160.743251 573.904116,174.504833 561.333252,184.561523 C548.762388,194.618214 531.273712,199.646484 508.866699,199.646484 C488.224018,199.646484 469.963458,195.765013 454.084473,188.001953 L454.084473,149.892578 C467.140528,155.714873 478.189489,159.816883 487.231689,162.19873 C496.27389,164.580578 504.544071,165.771484 512.04248,165.771484 C521.040572,165.771484 527.943417,164.051287 532.751221,160.61084 C537.559025,157.170393 539.962891,152.053908 539.962891,145.26123 C539.962891,141.467917 538.904307,138.093683 536.787109,135.138428 C534.669911,132.183172 531.560323,129.33823 527.458252,126.603516 C523.356181,123.868801 514.997784,119.502146 502.382812,113.503418 C490.56179,107.945773 481.696156,102.60875 475.785645,97.4921875 C469.875133,92.3756255 465.155617,86.4210952 461.626953,79.628418 C458.09829,72.8357408 456.333984,64.896367 456.333984,55.8100586 C456.333984,38.6960407 462.134138,25.243213 473.734619,15.4511719 C485.3351,5.65913073 501.368224,0.763183594 521.834473,0.763183594 C531.891164,0.763183594 541.484573,1.95408965 550.61499,4.3359375 C559.745407,6.71778535 569.294709,10.0699654 579.263184,14.3925781 L566.030762,46.2827148 C555.709421,42.0483187 547.174594,39.0931073 540.426025,37.4169922 C533.677456,35.740877 527.039258,34.902832 520.51123,34.902832 C512.748171,34.902832 506.793641,36.7112449 502.647461,40.328125 C498.501281,43.9450051 496.428223,48.6645217 496.428223,54.4868164 C496.428223,58.1036965 497.266268,61.2573921 498.942383,63.947998 C500.618498,66.6386039 503.28701,69.2409542 506.947998,71.755127 C510.608986,74.2692997 519.276136,78.7903319 532.949707,85.3183594 C551.034107,93.9635849 563.428352,102.630735 570.132812,111.320068 C576.837273,120.009402 580.189453,130.661395 580.189453,143.276367 L580.189453,143.276367 L580.189453,143.276367 Z" id="S"></path>
                    <path d="M790.451172,143.276367 C790.451172,160.743251 784.165834,174.504833 771.594971,184.561523 C759.024107,194.618214 741.535431,199.646484 719.128418,199.646484 C698.485737,199.646484 680.225177,195.765013 664.346191,188.001953 L664.346191,149.892578 C677.402246,155.714873 688.451208,159.816883 697.493408,162.19873 C706.535608,164.580578 714.805789,165.771484 722.304199,165.771484 C731.302291,165.771484 738.205135,164.051287 743.012939,160.61084 C747.820743,157.170393 750.224609,152.053908 750.224609,145.26123 C750.224609,141.467917 749.166026,138.093683 747.048828,135.138428 C744.93163,132.183172 741.822042,129.33823 737.719971,126.603516 C733.617899,123.868801 725.259503,119.502146 712.644531,113.503418 C700.823509,107.945773 691.957875,102.60875 686.047363,97.4921875 C680.136852,92.3756255 675.417335,86.4210952 671.888672,79.628418 C668.360008,72.8357408 666.595703,64.896367 666.595703,55.8100586 C666.595703,38.6960407 672.395857,25.243213 683.996338,15.4511719 C695.596819,5.65913073 711.629943,0.763183594 732.096191,0.763183594 C742.152882,0.763183594 751.746292,1.95408965 760.876709,4.3359375 C770.007126,6.71778535 779.556428,10.0699654 789.524902,14.3925781 L776.29248,46.2827148 C765.97114,42.0483187 757.436313,39.0931073 750.687744,37.4169922 C743.939175,35.740877 737.300977,34.902832 730.772949,34.902832 C723.00989,34.902832 717.055359,36.7112449 712.90918,40.328125 C708.763,43.9450051 706.689941,48.6645217 706.689941,54.4868164 C706.689941,58.1036965 707.527986,61.2573921 709.204102,63.947998 C710.880217,66.6386039 713.548728,69.2409542 717.209717,71.755127 C720.870705,74.2692997 729.537855,78.7903319 743.211426,85.3183594 C761.295826,93.9635849 773.690071,102.630735 780.394531,111.320068 C787.098992,120.009402 790.451172,130.661395 790.451172,143.276367 L790.451172,143.276367 L790.451172,143.276367 Z" id="S"></path>
                    <g id="A" transform="translate(193.000000, 2.000000)">
                        <path d="M143.449707,195 L129.42334,148.951172 L94,31 L58.8945313,148.951172 L44.8681641,195 L0.671875,195 L68.9511719,0.748046875 L119.102051,0.748046875 L187.645996,195 L143.449707,195 L143.449707,195 Z" id="Path"></path>
                        <rect id="Rectangle-7" x="39" y="114.5" width="101" height="34.5"></rect>
                    </g>
                    <g id="P" transform="translate(0.000000, 4.000000)">
                        <path d="M113.549857,107.853032 C100.60247,118.855383 82.1938075,124.354725 58.3215586,124.354725 L40.81233,124.354725 L40.81233,193 L0,193 L0,124.281931 L0,90.7751159 L55.8176556,90.8446017 C89.9940692,90.445161 91.7800988,69.4566407 91.7800988,62.1846024 C91.7800988,55.4337076 91.7800988,33.8609571 61.3994211,33.5240994 L0,33.5247258 L0,0 L61.4810304,0 C84.8268611,0 102.57726,5.038651 114.734346,15.115953 C126.889507,25.193062 132.968049,40.219656 132.968049,60.197086 C132.968049,80.968711 126.494741,96.85319 113.549857,107.853032 L113.549857,107.853032 Z" id="Path"></path>
                        <rect id="Path" x="0" y="21.23" width="40.8431259" height="82.797"></rect>
                    </g>
                </g>
                <g id="grey" fill="#282828">
                    <path d="M580.189453,143.276367 C580.189453,160.743251 573.904116,174.504833 561.333252,184.561523 C548.762388,194.618214 531.273712,199.646484 508.866699,199.646484 C488.224018,199.646484 469.963458,195.765013 454.084473,188.001953 L454.084473,149.892578 C467.140528,155.714873 478.189489,159.816883 487.231689,162.19873 C496.27389,164.580578 504.544071,165.771484 512.04248,165.771484 C521.040572,165.771484 527.943417,164.051287 532.751221,160.61084 C537.559025,157.170393 539.962891,152.053908 539.962891,145.26123 C539.962891,141.467917 538.904307,138.093683 536.787109,135.138428 C534.669911,132.183172 531.560323,129.33823 527.458252,126.603516 C523.356181,123.868801 514.997784,119.502146 502.382812,113.503418 C490.56179,107.945773 481.696156,102.60875 475.785645,97.4921875 C469.875133,92.3756255 465.155617,86.4210952 461.626953,79.628418 C458.09829,72.8357408 456.333984,64.896367 456.333984,55.8100586 C456.333984,38.6960407 462.134138,25.243213 473.734619,15.4511719 C485.3351,5.65913073 501.368224,0.763183594 521.834473,0.763183594 C531.891164,0.763183594 541.484573,1.95408965 550.61499,4.3359375 C559.745407,6.71778535 569.294709,10.0699654 579.263184,14.3925781 L566.030762,46.2827148 C555.709421,42.0483187 547.174594,39.0931073 540.426025,37.4169922 C533.677456,35.740877 527.039258,34.902832 520.51123,34.902832 C512.748171,34.902832 506.793641,36.7112449 502.647461,40.328125 C498.501281,43.9450051 496.428223,48.6645217 496.428223,54.4868164 C496.428223,58.1036965 497.266268,61.2573921 498.942383,63.947998 C500.618498,66.6386039 503.28701,69.2409542 506.947998,71.755127 C510.608986,74.2692997 519.276136,78.7903319 532.949707,85.3183594 C551.034107,93.9635849 563.428352,102.630735 570.132812,111.320068 C576.837273,120.009402 580.189453,130.661395 580.189453,143.276367 L580.189453,143.276367 L580.189453,143.276367 Z" id="S"></path>
                    <path d="M790.451172,143.276367 C790.451172,160.743251 784.165834,174.504833 771.594971,184.561523 C759.024107,194.618214 741.535431,199.646484 719.128418,199.646484 C698.485737,199.646484 680.225177,195.765013 664.346191,188.001953 L664.346191,149.892578 C677.402246,155.714873 688.451208,159.816883 697.493408,162.19873 C706.535608,164.580578 714.805789,165.771484 722.304199,165.771484 C731.302291,165.771484 738.205135,164.051287 743.012939,160.61084 C747.820743,157.170393 750.224609,152.053908 750.224609,145.26123 C750.224609,141.467917 749.166026,138.093683 747.048828,135.138428 C744.93163,132.183172 741.822042,129.33823 737.719971,126.603516 C733.617899,123.868801 725.259503,119.502146 712.644531,113.503418 C700.823509,107.945773 691.957875,102.60875 686.047363,97.4921875 C680.136852,92.3756255 675.417335,86.4210952 671.888672,79.628418 C668.360008,72.8357408 666.595703,64.896367 666.595703,55.8100586 C666.595703,38.6960407 672.395857,25.243213 683.996338,15.4511719 C695.596819,5.65913073 711.629943,0.763183594 732.096191,0.763183594 C742.152882,0.763183594 751.746292,1.95408965 760.876709,4.3359375 C770.007126,6.71778535 779.556428,10.0699654 789.524902,14.3925781 L776.29248,46.2827148 C765.97114,42.0483187 757.436313,39.0931073 750.687744,37.4169922 C743.939175,35.740877 737.300977,34.902832 730.772949,34.902832 C723.00989,34.902832 717.055359,36.7112449 712.90918,40.328125 C708.763,43.9450051 706.689941,48.6645217 706.689941,54.4868164 C706.689941,58.1036965 707.527986,61.2573921 709.204102,63.947998 C710.880217,66.6386039 713.548728,69.2409542 717.209717,71.755127 C720.870705,74.2692997 729.537855,78.7903319 743.211426,85.3183594 C761.295826,93.9635849 773.690071,102.630735 780.394531,111.320068 C787.098992,120.009402 790.451172,130.661395 790.451172,143.276367 L790.451172,143.276367 L790.451172,143.276367 Z" id="S"></path>
                    <g id="A" transform="translate(193.000000, 2.000000)">
                        <path d="M143.449707,195 L129.42334,148.951172 L94,31 L58.8945313,148.951172 L44.8681641,195 L0.671875,195 L68.9511719,0.748046875 L119.102051,0.748046875 L187.645996,195 L143.449707,195 L143.449707,195 Z" id="Path"></path>
                        <rect id="Rectangle-7" x="39" y="114.5" width="101" height="34.5"></rect>
                    </g>
                    <g id="P" transform="translate(0.000000, 4.000000)">
                        <path d="M113.549857,107.853032 C100.60247,118.855383 82.1938075,124.354725 58.3215586,124.354725 L40.81233,124.354725 L40.81233,193 L0,193 L0,124.281931 L0,90.7751159 L55.8176556,90.8446017 C89.9940692,90.445161 91.7800988,69.4566407 91.7800988,62.1846024 C91.7800988,55.4337076 91.7800988,33.8609571 61.3994211,33.5240994 L0,33.5247258 L0,0 L61.4810304,0 C84.8268611,0 102.57726,5.038651 114.734346,15.115953 C126.889507,25.193062 132.968049,40.219656 132.968049,60.197086 C132.968049,80.968711 126.494741,96.85319 113.549857,107.853032 L113.549857,107.853032 Z" id="Path"></path>
                        <rect id="Path" x="0" y="21.23" width="40.8431259" height="82.797"></rect>
                    </g>
                </g>
            </g>
            <g id="PLEX" sketch:type="MSShapeGroup">
                <g id="yellow" transform="translate(4.000000, 4.000000)" fill="#F9BE03">
                    <path d="M803,193 L756.093704,193 L711.04246,119.997948 L665.991215,193 L622,193 L686.264275,93.4637483 L626.107613,0 L671.423865,0 L713.162518,69.4377565 L754.106149,0 L798.362372,0 L737.543192,95.7079343 L803,193 L803,193 Z" id="X"></path>
                    <path d="M549,193 L438,193 L438,0 L549,0 L549,33.5307798 L478.866983,33.5307798 L478.866983,75.9062927 L544.122328,75.9062927 L544.122328,109.437073 L478.866983,109.437073 L478.866983,159.205198 L549,159.205198 L549,193 L549,193 Z" id="E"></path>
                    <path d="M228,193 L228,0 L268.852713,0 L268.852713,159.205198 L347,159.205198 L347,193 L228,193 L228,193 Z" id="L"></path>
                    <g id="P">
                        <path d="M113.549857,107.853032 C100.60247,118.855383 82.1938075,124.354725 58.3215586,124.354725 L40.81233,124.354725 L40.81233,193 L0,193 L0,124.281931 L0,90.7751159 L55.8176556,90.8446017 C89.9940692,90.445161 91.7800988,69.4566407 91.7800988,62.1846024 C91.7800988,55.4337076 91.7800988,33.8609571 61.3994211,33.5240994 L0,33.5247258 L0,0 L61.4810304,0 C84.8268611,0 102.57726,5.038651 114.734346,15.115953 C126.889507,25.193062 132.968049,40.219656 132.968049,60.197086 C132.968049,80.968711 126.494741,96.85319 113.549857,107.853032 L113.549857,107.853032 Z" id="Path"></path>
                        <rect id="Path" x="0" y="21.23" width="40.8431259" height="82.797"></rect>
                    </g>
                </g>
                <g id="grey" fill="#282828">
                    <path d="M803,193 L756.093704,193 L711.04246,119.997948 L665.991215,193 L622,193 L686.264275,93.4637483 L626.107613,0 L671.423865,0 L713.162518,69.4377565 L754.106149,0 L798.362372,0 L737.543192,95.7079343 L803,193 L803,193 Z" id="X"></path>
                    <path d="M549,193 L438,193 L438,0 L549,0 L549,33.5307798 L478.866983,33.5307798 L478.866983,75.9062927 L544.122328,75.9062927 L544.122328,109.437073 L478.866983,109.437073 L478.866983,159.205198 L549,159.205198 L549,193 L549,193 Z" id="E"></path>
                    <path d="M228,193 L228,0 L268.852713,0 L268.852713,159.205198 L347,159.205198 L347,193 L228,193 L228,193 Z" id="L"></path>
                    <g id="P">
                        <path d="M113.549857,107.853032 C100.60247,118.855383 82.1938075,124.354725 58.3215586,124.354725 L40.81233,124.354725 L40.81233,193 L0,193 L0,124.281931 L0,90.7751159 L55.8176556,90.8446017 C89.9940692,90.445161 91.7800988,69.4566407 91.7800988,62.1846024 C91.7800988,55.4337076 91.7800988,33.8609571 61.3994211,33.5240994 L0,33.5247258 L0,0 L61.4810304,0 C84.8268611,0 102.57726,5.038651 114.734346,15.115953 C126.889507,25.193062 132.968049,40.219656 132.968049,60.197086 C132.968049,80.968711 126.494741,96.85319 113.549857,107.853032 L113.549857,107.853032 Z" id="Path"></path>
                        <rect id="Path" x="0" y="21.23" width="40.8431259" height="82.797"></rect>
                    </g>
                </g>
            </g>
        </g>
    </g>
</svg>