#define tonet_width 8
#define tonet_height 8
static unsigned char tonet_bits[] = {
   0x00, 0x87, 0x95, 0xa5, 0xfd, 0xa5, 0x95, 0x87};
