/* XPM */
static char * banner_xpm[] = {
"320 54 17 1",
" 	c None",
".	c #030305",
"+	c #949394",
"@	c #CFC9CD",
"#	c #525052",
"$	c #B7B6B8",
"%	c #E2515E",
"&	c #FDFDFB",
"*	c #737073",
"=	c #820204",
"-	c #E33533",
";	c #343232",
">	c #E895AE",
",	c #E51604",
"'	c #E67284",
")	c #EABAD4",
"!	c #D8D7D9",
"............................................................................................................................................................................&&&&&&&&&&&&&&&&&&&&&&&&&&&&&&&&&&&&&&&&&&&&&&&&&&&&&&&&&&&&&&&&&&&&&&&&&&&&&&&&&&&&&&&&&&&&&&&&&&&&&&&&&&&&&&&&&&&&&&&&&&&&&&&&&&&&&&&&&&&&&&&&&&&&",
"............................................................................................................................................................................&&&&&&&&&&&&&&&&&&&&&&&&&&&&&&&&&&&&&&&&&&&&&&&&&&&&&&&&&&&&&&&&&&&&&&&&&&&&&&&&&&&&&&&&&&&&&&&&&&&&&&&&&&&&&&&&&&&&&&&&&&&&&&&&&&&&&&&&&&&&&&&&&&&&",
"............................................................................................................................................................................&&&&&&&&&&&&&&&&&&&&&&&&&&&&&&&&&&&&&&&&&&&&&&&&&&&&&&&&&&&&&&&&&&&&&&&&&&&&&&&&&&&&&&&&&&&&&&&&&&&&&&&&&&&&&&&&&&&&&&&&&&&&&&&&&&&&&&&&&&&&&&&&&&&&",
"............................................................................................................................................................................&&&&&&&&&&&&&&&&&&&&&&&&&&&&&&&&&&&&&&&&&&&&&&&&&&&&&&&&&&&&&&&&&&&&&&&&&&&&&&&&&&&&&&&&&&&&&&&&&&&&&&&&&&&&&&&&&&&&&&&&&&&&&&&&&&&&&&&&&&&&&&&&&&&&",
"............................................................................................................................................................................&&&&&&&&&&&&&&&&&&&&&&&&&&&&&&&&&&&&&&&&&&&&&&&&&&&&&&&&&&&&&&&&&&&&&&&&&&&&&&&&&&&&&&&&&&&&&&&&&&&&&&&&&&&&&&&&&&&&&&&&&&&&&&&&&&&&&&&&&&&&&&&&&&&&",
"............................................................................................................................................................................&&&&&&&&&&&&&&&&&&&&&&&&&&&&&&&&&&&&&&&&&&&&&&&&&&&&&&&&&&&&&&&&&&&&&&&&&&&&&&&&&&&&&&&&&&&&&&&&&&&&&&&&&&&&&&&&&&&&&&&&&&&&&&&&&&&&&&&&&&&&&&&&&&&&",
"............................................................................................................................................................................&&&&&&&&&&&&&&&&&&&&&&&&&&&&&&&&&&&&&&&&&&&&&&&&&&&&&&&&&&&&&&&&&&&&&&&&&&&&&&&&&&&&&&&&&&&&&&&&&&&&&&&&&&&&&&&&&&&&&&&&&&&&&&&&&&&&&&&&&&&&&&&&&&&&",
"............................................................................................................................................................................&&&&&&&&&&&&&&&&&&&&&&&&&&&&&&&&&&&&&&&&&&&&&&&&&&&&&&&&&&&&&&&&&&&&&&&&&&&&&&&&&&&&&&&&&&&&&&&&&&&&&&&&&&&&&&&&&&&&&&&&&&&&&&&&&&&&&&&&&&&&&&&&&&&&",
"............................................................................................................................................................................&&&&&&&&&&&&&&&&&&&&&&&&&&&&&&&&&&&&&&&&&&&&&&&&&&&&&&&&&&&&&&&&&&&&&&&&&&&&&&&&&&&&&&&&&&&&&&&&&&&&&&&&&&&&&&&&&&&&&&&&&&&&&&&&&&&&&&&&&&&&&&&&&&&&",
"..............*+@&&&&&&$+*..................................................................................................................................................&&&&&&&&&&&&&&&&&&&&&&&&&&&&&&&+#;;...................................&&&&&&,,,,,,,,,,,,,,,,,,,,,,,,,,,,,,,,,,,,,,,,,,,,--%>&&&&&&&&&&&&&&&&&&&&&&&&",
"...........#$&&@+*##;#++@&&$#...............................................................................................................................................&&&&&&&&&&&&&&&&&&&&&&&&&&&&&#........................................&&&&&&,,,,,,,,,,,,,,,,,,,,,,,,,,,,,,,,,,,,,,,,,,,,,,,,,'&&&&&&&&&&&&&&&&&&&&&&",
".........#$&$*...........;#!&$;.............................................................................................................................................&&&&&&&&&&&&&&&&&&&&&&&&&&&+..........................................&&&&&&,,,,,,,,,,,,,,,,,,,,,,,,,,,,,,,,,,,,,,,,,,,,,,,,,,,>&&&&&&&&&&&&&&&&&&&&",
"........+&$#................#$&+............................................................................................................................................&&&&&&&&&&&&&&&&&&&&&&&&&&#...........................................&&&&&&,,,,,,,,,,,,,,,,,,,,,,,,,,,,,,,,,,,,,,,,,,,,,,,,,,,,'&&&&&&&&&&&&&&&&&&&",
"......;!&*....................*&@...........................................................................................................................................&&&&&&&&&&&&&&&&&&&&&&&&&#............................................&&&&&&,,,,,,,,,,,,,,,,,,,,,,,,,,,,,,,,,,,,,,,,,,,,,,,,,,,,,'&&&&&&&&&&&&&&&&&&",
".....;!@;.....====;.=====......;!@;....................................................................;.;..................................................................&&&&&&&&&&&&&&&&&&&&&&&&+...............;;;;..........................&&&&&&,,,,,,,,,,,,,,,---,,,,,,,,,,,,,,,,,,,,,,,,,,,,,,,,,,,,>&&&&&&&&&&&&&&&&&",
"....;&@......,,=,,=,,=...==......!!.................................................................;#!$*#..................................................................&&&&&&&&&&&&&&&&&&&&&&&!.............#+&&&&&&@*...................;***&&&&&&,,,,,,,,,,,,')&&&&&&>-,,,,,,,,,,,,,,%>!&&)>'-,,,,,,,,,,&&&&&&&&&&&&&&&&&",
"....@@;.....=,,,,,,=,,=..=,.......!!.................................................................#&&&&+;...;............................................................&&&&&&&&&&&&&&&&&&&&&&&#...........;@&&&&&&&&&&&+...............*&&&&&&&&&&&,,,,,,,,,,'&&&&&&&&&&&)-,,,,,,,,,,-)&&&&&&&&&)-,,,,,,,,'&&&&&&&&&&&&&&&&",
"...$&;......====,=,,,====,==......;!+................................................................#&&&&@..;>+;...........................................................&&&&&&&&&&&&&&&&&&&&&&&...........*&&&&&&&&&&&&&&$............#&&&&&&&&&&&&&,,,,,,,,,)&&&&&&&&&&&&&&%,,,,,,,,-&&&&&&&&&&&&%,,,,,,,,,&&&&&&&&&&&&&&&&",
"..#&;.......,=.....=,,,,,,,,.......*&#...............................................................#&&&&@...&&*...............................;...........................&&&&&&&&&&&&&&&&&&&&&&+..........+&&&&&&&&&&&&&&&&@..........#&&&&&&&&&&&&&&,,,,,,,,)&&&&&&&&&&&&&&&&',,,,,,,)&&&&&&&&&&&!,,,,,,,,,,>&&&&&&&&&&&&&&&",
"..!$........,=...;==,=,=,=,==.......$$..............................................................;#&&&&@...&&*..............................#$*..........................&&&&&&&&&&&&&&&&&&&&&&#.........#&&&&&&&&&&&&&&&&&&$........#&&&&&&&&&&&&&&&,,,,,,,)&&&&&&&&&&&&&&&&&&%,,,,,%&&&&&&&&&&&&-,,,,,,,,,,'&&&&&&&&&&&&&&&",
".*&;........,,===,,=,,,,,,,,,.......;&#..............................................................#&&&&$;..!&*;...................;.........!&+;.........................&&&&&&&&&&&&&&&&&&&&&&;.........&&&&&&&*;...#$&&&&&&#.......&&&&&&&&!'''>!&&,,,,,,'&&&&&&&)'''>&&&&&&&&,,,,,'&&&&&)-,,%)),,,,,,,,,,,-&&&&&&&&&&&&&&&",
".@+.....===.,=,,,,=,,=,=,=,,=........$$.......................;.;.;.;.;......;.;.;..............;.;.;#&&&&@..;!&*.;.;.;..........;.;.;.;....;.;!&+.;.;......................&&&&&&&&&&&&&&&&&&&&&&;........+&&&&&@........#&&&&&!......+&&&&&&&',,,,,,'&,,,,,,&&&&&&&-,,,,,,>&&&&&&',,,,)&&&&&%,,,,,-,,,,,,,,,,,-&&&&&&&&&&&&&&&",
";&#..=,,,,,..=,=,,,,,,,,,=,,,=.......#&;.....................#***;.;+$$#;..;.#+$$@+*..........#+$$$*.#&&&&@...!&*.;;*++#;.......;.#*++*;.;..;;;!&+;;;;......................&&&&&&&&&&&&&&&&&&&&&&.........&&&&&!..........+&&&&&#.....&&&&&&&-,,,,,,,,%,,,,,%&&&&&&-,,,,,,,,'&&&&&&,,,,)&&&&&>,,,,,,,,,,,,,,,,,-&&&&&&&&&&&&&&&",
"*&...,=,=,,=...===,=,=,,,,,=,=........!*.....................!&&&*;@&&&*..;#@&&&&&&&$;.....;.$&&&&&&!*&&&&@..;&&*.$!&&&&$#....;.+!&&&&&!*..;$!&&&&!&&!......................&&&&&&&&&&&&&&&&&&&&&&........#&&&&&*;;;;;;;;;;#&&&&&+....#&&&&&&',,,,,,,,,,,,,,,>&&&&&%,,,,,,,,,,)&&&&&-,,,)&&&&&&!'-,,,,,,,,,,,,,,-&&&&&&&&&&&&&&&",
"$$...,,,,=,,.......=,,=,=,,,,====.....@$.....................!&&&+!&&&&+;.*!&&&&&&&&&!.....;!&&&&&&&&!&&&&@...!&*!&&!$!&&&;;...*&&!@$@!&&*..$&!&&!&!&!......................&&&&&&&&&&&&&&&&&&&&&&........+&&&&&&&&&&&&&&&&&&&&&&&....+&&&&&&,,,,,,,,,,,,,,,,&&&&&!,,,,,,,,,,,%&&&&&',,,'&&&&&&&&&)',,,,,,,,,,,,-&&&&&&&&&&&&&&&",
"&+...==,,,,=,=......=,,,,=,=,=,,=,....*!.....................!&&&!&&&&&*.#&&&&&!!&&&&&@....!&&&&&&&&&&&&&&@..;!&!&$;...#!&!....#@*....;@&&...;.!&+.;;;......................&&&&&&&&&&&&&&&&&&&&&&........$&&&&&&&&&&&&&&&&&&&&&&&....$&&&&&),,,,,,,,,,,,,,,,&&&&&',,,,,,,,,,,,&&&&&',,,-&&&&&&&&&&&&-,,,,,,,,,,-&&&&&&&&&&&&&&&",
"&#....==,=,,,,,==....,=,,,,,=,=,,,,...#&.....................!&&&&&&&!&*.@&&&&*;.;@&&&&#;.+&&&&&@+*+&&&&&&@...&&&+......*&&*............!&+....!&+..........................&&&&&&&&&&&&&&&&&&&&&&........$&&&&&&&&&&&&&&&&&&&&&&&....$&&&&&),,,,,,,,,,,,,,,-&&&&&',,,,,,,,,,,,&&&&&),,,,%&&&&&&&&&&&&-,,,,,,,,,-&&&&&&&&&&&&&&&",
"&;.....=,,,=,=,,,===.=,,=,,,,,,,=,==..#&;....................@&&&&&@*;;.*&&&&*.....&&&&$..&&&&&$....#&&&&&@...&&!........@&$...........;)&$....&&+..........................&&&&&&&&&&&&&&&&&&&&&&........$&&&&&$$$$$$$$$$$$$$$$$$....$&&&&&),,,,,,,,,,,,,,,,&&&&&',,,,,,,,,,,,&&&&&>,,,,,->&&&&&&&&&&&,,,,,,,,,-&&&&&&&&&&&&&&&",
"&;......=,,,,,=,,,,,,,=,,,=,=,=,,,,=..;&#....................!&&&&!.....@&&&!;.;.;.$&&&&.#&&&&!;.....+&&&&$;..!&+........+&@;......;.;..+&!....!&+;.........................&&&&&&&&&&&&&&&&&&&&&&........+&&&&&;.....................$&&&&&!,,,,,,,,,,,,,,,,&&&&&),,,,,,,,,,,-&&&&&',,,,,,,,%>&&&&&&&&-,,,,,,,,-&&&&&&&&&&&&&&&",
"&;........==,,,,=,=,=,,,=,,,,,,,=,,...#&;....................!&&&&*.....!&&&!+$+$$+@&&&&.+&&&&$......#&&&&@..;&&*........+&!.....;.;*+$$@&@....!&+..........................&&&&&&&&&&&&&&&&&&&&&&........*&&&&&+................;....*&&&&&&-,,,,,,,,,,,,,,,)&&&&&-,,,,,,,,,,>&&&&&%,,,,,,,,,,,'&&&&&&',,,,,,,,-&&&&&&&&&&&&&&&",
"&#.........==,=,,,,,,=,,,=,=,=,,=,=...#&;....................@&&&&#....;&&&&&&&&&&&&&&&&;$&&&&+......#&&&&@...!&*........*&&....;*@&&&&&&&!....!&+..........................&&&&&&&&&&&&&&&&&&&&&&........;&&&&&&;.........;;;;;;;....;&&&&&&!,,,,,,,,,-,,,,,'&&&&&),,,,,,,,,-&&&&&&,,,,,,,,,,,,,>&&&&&',,,,,,,,-&&&&&&&&&&&&&&&",
"&;.......;&@.==,=,,=,,,=,,,,,,,,,=....#&.....................!&&&!;....#&&&&&&&&&&&&&&&&.@&&&&#.....;#&&&&@..;!&*........*&!....$&&!!$++@&@....&&+..........................&&&&&&&&&&&&&&&&&&&&&&;........$&&&&&&;.......@&&&&&&;.....$&&&&&&),,,,,,,-!,,,,,-&&&&&&>,,,,,,,-&&&&&&>,,,,,')-,,,,,>&&&&&',,,,,,,,-&&&&&&&&&&&&&&&",
"&*.......*&&$...=,,,=,,,,=,=,=,==.....*&.....................@&&&&;....;&&&&&!&!&&!&&!&!;$&&&&*......#&&&&@...&&*........*&!...$&&+;....+&!....!&$..........................&&&&&&&&&&&&&&&&&&&&&&;........;&&&&&&&$#;.;+&&&&&&&+......;&&&&&&&&'-,,%>&&,,,,,,>&&&&&&&'-,-%>&&&&&&&-,,,,-&&&'-,,'&&&&&&-,,,,,,,,-&&&&&&&&&&&&&&&",
"@+.......;&&&@&;...==,=,,,,,,==.......+$.....................!&&&&;.....&&&&$..########;.$&&&&$......*&&&&@..;!&*........+&!.;#&&*......+&!....!&+..........................&&&&&&&&&&&&&&&&&&&&&&#.........+&&&&&&&&&&&&&&&&&&!........*&&&&&&&&&&&&&&&,,,,,,-&&&&&&&&&&&&&&&&&&&',,,,,>&&&&&&&&&&&&&&,,,,,,,,,'&&&&&&&&&&&&&&&",
"+!.#*++$;.;&&&&&;.....................!*.....................@&&&&;;....!&&&&............*&&&&!......+&&&&@...&&*........*&!..$&!.......+&!....!&+..........................&&&&&&&&&&&&&&&&&&&&&&+..........@&&&&&&&&&&&&&&&&&;.........+&&&&&&&&&&&&&&,,,,,,,-&&&&&&&&&&&&&&&&&),,,,,-&&&&&&&&&&&&&&',,,,,,,,,>&&&&&&&&&&&&&&&",
"#&#+&&&&&;.;&&&&!+;##*+#*+#*;........;&;.....................!&&&&;.....+&&&&)..;.;.;.....&&&&&$.;.;#&&&&&@...&&*........+&!.;)&$.....;.@&@....&&+..........................&&&&&&&&&&&&&&&&&&&&&&&...........@&&&&&&&&&&&&&&&;...........+&&&&&&&&&&&&&,,,,,,,,%&&&&&&&&&&&&&&&),,,,,,'&&&&&&&&&&&&&>,,,,,,,,,,&&&&&&&&&&&&&&&&",
".!&&&&&&&&$@&&&&&&&&&&&&&&&&.........+@......................@&&&&;......&&&&&!+*##*+!+...$&&&&&)+*$!&&&&&@...!&*........*&!..@&);.....;&&!....!&+;.........................&&&&&&&&&&&&&&&&&&&&&&&#...........+&&&&&&&&&&&&$;.............;$&&&&&&&&&&&,,,,,,,,,-)&&&&&&&&&&&&',,,,,,,,-)&&&&&&&&&&',,,,,,,,,,%&&&&&&&&&&&&&&&&",
".+&&&&&&&&&&&&&&&&&&&*$+@&&$........;&*......................!&&&&;......*&&&&&&&&&&&&!...;&&&&&&&&&&&&&&&@...&&*........*&!..+&&;;.;.;!&&!....@&@.;........................&&&&&&&&&&&&&&&&&&&&&&&!............;+&&&&&&&&@#.................;*$$$&&&&&&,,,,,,,,,,,%)&&&&&&&&>-,,,,,,,,,,,-')!&&&)',,,,,,,,,,,,&&&&&&&&&&&&&&&&&",
"..&&&&&&&&&&&&&&&&&&!;..$&&+........+!.......................!&&&&;.......+&&&&&&&&&&&&....*&&&&&&&&&!@&&&!...&&*........+&&...!&&+#*+&&$&!....*&&+*+*......................&&&&&&&&&&&&&&&&&&&&&&&&*..............#++++#;........................&&&&&&,,,,,,,,,,,,,-%''''%,,,,,,,,,,,,,,,,,,,,,,,,,,,,,,,,,,'&&&&&&&&&&&&&&&&&",
"..*&&&&&&&&&&&&&&&&&&&!!&&&;..**+*+*&#.......................!&&&!;........*!&&&&&&&&&@;....*!&&&&&&!;$&&&@...!&*........*&!...#!&&&&&&+.&!.....$&&&&!......................&&&&&&&&&&&&&&&&&&&&&&&&&#............................................&&&&&&,,,,,,,,,,,,,,,,,,,,,,,,,,,,,,,,,,,,,,,,,,,,,,,,,,,,,%&&&&&&&&&&&&&&&&&&",
"...$&&&&&&&&&&&&&&&&&&&&&&*..;&&&&&&$........................*++++...........*+$@@$$+#........*$@@$*..#+++*...*+;........;+*....;+@!@$#..++......+@!!+......................&&&&&&&&&&&&&&&&&&&&&&&&&&;...........................................&&&&&&,,,,,,,,,,,,,,,,,,,,,,,,,,,,,,,,,,,,,,,,,,,,,,,,,,,,%&&&&&&&&&&&&&&&&&&&",
"...;&&&&&&&&&&&&&&&&&&&&&$.;@&&&&&&&........................................................................................................................................&&&&&&&&&&&&&&&&&&&&&&&&&&&*..........................................&&&&&&,,,,,,,,,,,,,,,,,,,,,,,,,,,,,,,,,,,,,,,,,,,,,,,,,,,'&&&&&&&&&&&&&&&&&&&&",
"....;&&&&&&&&&&&&&&&&&&&&;.&&&&&&&&;........................................................................................................................................&&&&&&&&&&&&&&&&&&&&&&&&&&&&@;........................................&&&&&&,,,,,,,,,,,,,,,,,,,,,,,,,,,,,,,,,,,,,,,,,,,,,,,,,%!&&&&&&&&&&&&&&&&&&&&&",
".....*&&&&&&&&&&&&&&&&&&$+&&&&&&&&;.........................................................................................................................................&&&&&&&&&&&&&&&&&&&&&&&&&&&&&&!+;;....................................&&&&&&,,,,,,,,,,,,,,,,,,,,,,,,,,,,,,,,,,,,,,,,,,,,,--'!&&&&&&&&&&&&&&&&&&&&&&&",
"......;&&&&&&&&&&&&&&&&&&&&&&&&&!;..........................................................................................................................................&&&&&&&&&&&&&&&&&&&&&&&&&&&&&&&&&&&&&&&&&&&&&&&&&&&&&&&&&&&&&&&&&&&&&&&&&&&&&&&&&&&&&&&&&&&&&&&&&&&&&&&&&&&&&&&&&&&&&&&&&&&&&&&&&&&&&&&&&&&&&&&&&&&&",
".......;@&&&&&&&&&&&&&&&&&&&&&&$;...........................................................................................................................................&&&&&&&&&&&&&&&&&&&&&&&&&&&&&&&&&&&&&&&&&&&&&&&&&&&&&&&&&&&&&&&&&&&&&&&&&&&&&&&&&&&&&&&&&&&&&&&&&&&&&&&&&&&&&&&&&&&&&&&&&&&&&&&&&&&&&&&&&&&&&&&&&&&&",
".........*&&&&&&&&&&&&&&&&&&&&*.............................................................................................................................................&&&&&&&&&&&&&&&&&&&&&&&&&&&&&&&&&&&&&&&&&&&&&&&&&&&&&&&&&&&&&&&&&&&&&&&&&&&&&&&&&&&&&&&&&&&&&&&&&&&&&&&&&&&&&&&&&&&&&&&&&&&&&&&&&&&&&&&&&&&&&&&&&&&&",
"...........+!&&&&&&&&&&&&&&!*...............................................................................................................................................&&&&&&&&&&&&&&&&&&&&&&&&&&&&&&&&&&&&&&&&&&&&&&&&&&&&&&&&&&&&&&&&&&&&&&&&&&&&&&&&&&&&&&&&&&&&&&&&&&&&&&&&&&&&&&&&&&&&&&&&&&&&&&&&&&&&&&&&&&&&&&&&&&&&",
".............#+@&&&&&&&&!+;.................................................................................................................................................&&&&&&&&&&&&&&&&&&&&&&&&&&&&&&&&&&&&&&&&&&&&&&&&&&&&&&&&&&&&&&&&&&&&&&&&&&&&&&&&&&&&&&&&&&&&&&&&&&&&&&&&&&&&&&&&&&&&&&&&&&&&&&&&&&&&&&&&&&&&&&&&&&&&",
".................;####;.....................................................................................................................................................&&&&&&&&&&&&&&&&&&&&&&&&&&&&&&&&&&&&&&&&&&&&&&&&&&&&&&&&&&&&&&&&&&&&&&&&&&&&&&&&&&&&&&&&&&&&&&&&&&&&&&&&&&&&&&&&&&&&&&&&&&&&&&&&&&&&&&&&&&&&&&&&&&&&",
"............................................................................................................................................................................&&&&&&&&&&&&&&&&&&&&&&&&&&&&&&&&&&&&&&&&&&&&&&&&&&&&&&&&&&&&&&&&&&&&&&&&&&&&&&&&&&&&&&&&&&&&&&&&&&&&&&&&&&&&&&&&&&&&&&&&&&&&&&&&&&&&&&&&&&&&&&&&&&&&",
"............................................................................................................................................................................&&&&&&&&&&&&&&&&&&&&&&&&&&&&&&&&&&&&&&&&&&&&&&&&&&&&&&&&&&&&&&&&&&&&&&&&&&&&&&&&&&&&&&&&&&&&&&&&&&&&&&&&&&&&&&&&&&&&&&&&&&&&&&&&&&&&&&&&&&&&&&&&&&&&",
"............................................................................................................................................................................&&&&&&&&&&&&&&&&&&&&&&&&&&&&&&&&&&&&&&&&&&&&&&&&&&&&&&&&&&&&&&&&&&&&&&&&&&&&&&&&&&&&&&&&&&&&&&&&&&&&&&&&&&&&&&&&&&&&&&&&&&&&&&&&&&&&&&&&&&&&&&&&&&&&",
"................................................................................................................................................................................................................................................................................................................................"};
