<svg width="50" height="24" xmlns="http://www.w3.org/2000/svg">
  <path d="M46.897 24H3.127a.302.302 0 0 1-.225-.1c-.066-.066-.066-.165-.066-.265.032-.2.066-.4.066-.599A2.603 2.603 0 0 0 .3 20.44H.299A.298.298 0 0 1 0 20.141v-1.303c0-.165.134-.298.299-.298a.532.532 0 1 0 0-1.064.298.298 0 0 1-.299-.299v-1.302c0-.165.134-.298.299-.298a.532.532 0 1 0 0-1.065.298.298 0 0 1-.299-.298V12.91c0-.165.134-.298.299-.298a.532.532 0 1 0 0-1.065A.298.298 0 0 1 0 11.25V9.945c0-.165.134-.299.299-.299a.533.533 0 1 0-.001-1.064A.363.363 0 0 1 0 8.225V6.92c0-.165.134-.298.299-.298a.532.532 0 1 0 0-1.065A.298.298 0 0 1 0 5.258v-1.26C0 3.835.134 3.7.299 3.7a2.603 2.603 0 0 0 2.603-2.596v-.02c0-.266-.037-.462-.1-.685-.033-.1 0-.2.034-.265C2.903.066 3.003 0 3.069 0h43.862c.1 0 .2.034.233.134.068.066.068.165.039.245a2.396 2.396 0 0 0-.105.705v.02A2.603 2.603 0 0 0 49.7 3.7h.001c.165 0 .299.134.299.299v1.259a.298.298 0 0 1-.299.298l-.002.003a.539.539 0 0 0-.533.538v.016c0 .29.235.525.526.525h.008c.165 0 .299.134.299.299v1.298a.298.298 0 0 1-.299.298.532.532 0 1 0 0 1.065c.165 0 .299.133.299.298v1.299a.298.298 0 0 1-.299.298.532.532 0 1 0 0 1.065c.165 0 .299.133.299.298v1.299a.298.298 0 0 1-.299.298.532.532 0 1 0 0 1.064c.165 0 .299.134.299.299v1.298a.298.298 0 0 1-.299.298.532.532 0 1 0 0 1.065c.165 0 .299.133.299.298v1.299a.298.298 0 0 1-.299.298 2.603 2.603 0 0 0-2.603 2.597c0 .2.043.398.066.597.016.138.058.26 0 .344-.062.09-.166.09-.266.09zM46.531.65H3.47c.034.166.034.366.034.532A3.219 3.219 0 0 1 .6 4.377v.692c.5.134.833.566.833 1.098A1.15 1.15 0 0 1 .6 7.264v.766c.5.133.833.566.833 1.098A1.15 1.15 0 0 1 .6 10.225v.765c.5.134.833.566.833 1.099A1.15 1.15 0 0 1 .6 13.186v.765c.5.133.833.566.833 1.098A1.15 1.15 0 0 1 .6 16.146v.766c.5.133.833.566.833 1.098A1.15 1.15 0 0 1 .6 19.107l.013.733a3.216 3.216 0 0 1 2.889 3.194c.033.1 0 .233 0 .333H46.53c0-.133-.034-.233-.034-.333A3.219 3.219 0 0 1 49.4 19.84v-.744a1.11 1.11 0 0 1-.833-1.098A1.15 1.15 0 0 1 49.4 16.9v-.765a1.11 1.11 0 0 1-.833-1.099 1.15 1.15 0 0 1 .833-1.097v-.765a1.11 1.11 0 0 1-.833-1.098 1.15 1.15 0 0 1 .833-1.097v-.766a1.11 1.11 0 0 1-.833-1.098 1.15 1.15 0 0 1 .833-1.097v-.766a1.095 1.095 0 0 1-.833-1.086A1.15 1.15 0 0 1 49.4 5.07l-.013-.693a3.216 3.216 0 0 1-2.889-3.195c0-.2 0-.366.034-.532zm-4.867 19.82H8.374c-1.866 0-3.401-1.53-3.401-3.395V7.054a3.41 3.41 0 0 1 3.401-3.396h33.287c1.87 0 3.405 1.533 3.405 3.395v10.02c0 1.863-1.533 3.396-3.402 3.396zM41.67 4.29H20.682v15.55h20.984a2.76 2.76 0 0 0 2.763-2.756v-.007h.004V7.047A2.76 2.76 0 0 0 41.67 4.29zm-21.588 0H8.373c-1.535 0-2.768 1.2-2.768 2.73v10.063a2.757 2.757 0 0 0 2.76 2.754h11.717V4.29zm-7.007 13.385H9.806l3.27-5.627-3.27-5.627h3.27l3.268 5.627-3.269 5.627zm27.792-1.76c0 .4-.145.716-.434.947-.289.231-.691.346-1.207.346-.474 0-.894-.089-1.26-.267v-.875c.3.134.555.228.763.283.208.054.398.082.57.082.207 0 .367-.04.477-.119.11-.079.166-.196.166-.352a.384.384 0 0 0-.074-.232.817.817 0 0 0-.213-.197 5.68 5.68 0 0 0-.577-.3 2.742 2.742 0 0 1-.613-.367 1.388 1.388 0 0 1-.325-.411 1.167 1.167 0 0 1-.122-.546c0-.393.134-.702.4-.928.267-.224.636-.336 1.107-.336.232 0 .452.027.662.082.21.054.43.13.659.23l-.305.732a4.521 4.521 0 0 0-.589-.203 1.896 1.896 0 0 0-.458-.057c-.178 0-.315.041-.41.124a.409.409 0 0 0-.144.325c0 .083.02.155.059.217.038.062.1.122.184.179.084.058.283.162.597.312.417.199.702.397.856.597.155.199.23.444.23.733zm-4.492 0c0 .4-.146.716-.435.947-.288.231-.691.346-1.207.346-.474 0-.894-.089-1.26-.267v-.875c.3.134.555.228.764.283.207.054.397.082.57.082.207 0 .366-.04.476-.119.111-.079.166-.196.166-.352a.39.39 0 0 0-.073-.232.84.84 0 0 0-.214-.197 5.68 5.68 0 0 0-.577-.3 2.742 2.742 0 0 1-.613-.367 1.388 1.388 0 0 1-.325-.411 1.167 1.167 0 0 1-.122-.546c0-.393.134-.702.401-.928.266-.224.635-.336 1.106-.336.232 0 .452.027.662.082.21.054.43.13.659.23l-.305.732a4.521 4.521 0 0 0-.588-.203 1.896 1.896 0 0 0-.459-.057c-.178 0-.315.041-.41.124a.412.412 0 0 0-.144.325c0 .083.02.155.059.217.038.062.1.122.184.179.084.058.283.162.597.312.417.199.702.397.856.597.155.199.232.444.232.733zm-11.707 1.233h-.944v-4.441h1.422c.54 0 .95.115 1.23.347.282.232.422.578.422 1.037 0 .478-.15.844-.449 1.097-.299.253-.724.38-1.276.38h-.405v1.58zm7.46 0h-1.017l-.322-1.058h-1.622l-.323 1.058h-1.017l1.57-4.46h1.154l1.577 4.46zM30.564 15.3c-.299-.958-.467-1.5-.504-1.625a4.303 4.303 0 0 1-.08-.299c-.068.26-.259.9-.576 1.924h1.16zm-5.468-1.823h-.428v1.318h.31c.29 0 .507-.057.652-.171.143-.115.215-.28.215-.5 0-.22-.06-.383-.18-.489-.121-.106-.31-.158-.569-.158zm10.371-5.644H33.85v.976h1.506v.771h-1.506v1.146h1.618v.777h-2.562V7.063h2.562v.771zm-6.012 2.893h1.805v.777h-2.75V7.063h.945v3.664zm-4.787.777h-.944V7.063h1.422c.54 0 .95.116 1.23.348.282.232.422.577.422 1.038 0 .478-.15.843-.449 1.096-.299.254-.724.38-1.276.38h-.405v1.579zm13.051 0h-1.01l1.475-2.29-1.38-2.151h1.04l.959 1.598.94-1.598h1.017l-1.397 2.202 1.503 2.239h-1.077l-1.035-1.68-1.035 1.68zm-12.623-3.67h-.428v1.319h.31c.29 0 .507-.058.652-.171.143-.115.215-.282.215-.5 0-.221-.06-.384-.18-.49-.121-.104-.31-.158-.569-.158z" fill="#E5A00D" fill-rule="evenodd"/>
</svg>
