<svg width="110" height="110" xmlns="http://www.w3.org/2000/svg" xmlns:xlink="http://www.w3.org/1999/xlink">
    <defs>
        <path d="M57.125 49.348c.84 1.218-.027 2.801.582 3.776 1.002 1.597 3.018 3.207 3.79 3.654.555.338 1.34.663 1.312 1.65-.04 1.124-.595 1.422-.906 1.733-.623.623-3.763 2.18-5.847 3.6-2.626 1.8-3.532 2.599-4.385 3.451-1.326 1.327-2.585 1.773-4.601 1.773-2.017 0-2.924-.42-3.546-.974-.623-.542-1.313-1.922-1.245-3.98.054-2.043.704-3.91 1.015-7.091.135-1.367.121-3.059.121-4.561 0-1.895.028-3.505.434-3.749.73-.46.893-.487 1.759-.487.866 0 1.259.054 1.543.338.27.27.162.893.067 1.773-.08.88.339 1.164.758 1.53.42.351.799.798 2.125.906 1.326.095 1.814-.121 2.436-.514.623-.392 1.502-1.096 1.827-1.502.312-.393 1.083-1.746 1.232-1.746.135 0 1.028-.311 1.53.42z" id="a"/>
        <filter x="-12.2%" y="-12%" width="124.3%" height="124%" filterUnits="objectBoundingBox" id="b">
            <feGaussianBlur stdDeviation="1.5" in="SourceAlpha" result="shadowBlurInner1"/>
            <feOffset dy="-2" in="shadowBlurInner1" result="shadowOffsetInner1"/>
            <feComposite in="shadowOffsetInner1" in2="SourceAlpha" operator="arithmetic" k2="-1" k3="1" result="shadowInnerInner1"/>
            <feColorMatrix values="0 0 0 0 0.733333333 0 0 0 0 0.466666667 0 0 0 0 0 0 0 0 1 0" in="shadowInnerInner1"/>
        </filter>
        <path d="M9.919 51.432c-1.218.88-4.304.799-5.089 1.827-.771 1.029.028 2.517.014 5.278 0 1.178-.203 2.071-.339 2.788-.189.907-.31 1.543.068 2.193.69 1.15 1.8 1.434 8.148 2.76 3.397.704 6.604 2.531 8.756 2.707 2.152.163 2.612-.555 3.925-1.719 1.299-1.164 1.719-.798 1.678-3.356-.04-2.544-1.678-3.302-3.532-6.239-1.855-2.937-2.152-3.478-3.384-5.427-1.231-1.922-3.668-5.414-5.062-5.454-1.11-.027-1.732.568-2.422 1.272-.69.704-1.543 2.49-2.761 3.37z" id="c"/>
        <filter x="-11%" y="-11.3%" width="122%" height="122.5%" filterUnits="objectBoundingBox" id="d">
            <feGaussianBlur stdDeviation="1.5" in="SourceAlpha" result="shadowBlurInner1"/>
            <feOffset dx="-2" dy="-2" in="shadowBlurInner1" result="shadowOffsetInner1"/>
            <feComposite in="shadowOffsetInner1" in2="SourceAlpha" operator="arithmetic" k2="-1" k3="1" result="shadowInnerInner1"/>
            <feColorMatrix values="0 0 0 0 0.733333333 0 0 0 0 0.466666667 0 0 0 0 0 0 0 0 1 0" in="shadowInnerInner1"/>
        </filter>
        <path d="M36.35 17.854c2.03-.216 2.748-1.001 3.113-2.368.325-1.218.339-2.571-.568-4.155-.852-1.515-1.34-1.76-2.571-1.854-1.895-.162-2.788 1.164-3.208 2.111-.446 1.029-.352.88-.325 2.18.027 1.366.798 1.747 1.272 2.6.474.839 2.058 1.5 2.288 1.486z" id="e"/>
        <filter x="-12.7%" y="-10.4%" width="125.4%" height="120.9%" filterUnits="objectBoundingBox" id="f">
            <feGaussianBlur stdDeviation=".375" in="SourceAlpha" result="shadowBlurInner1"/>
            <feOffset dy="1" in="shadowBlurInner1" result="shadowOffsetInner1"/>
            <feComposite in="shadowOffsetInner1" in2="SourceAlpha" operator="arithmetic" k2="-1" k3="1" result="shadowInnerInner1"/>
            <feColorMatrix values="0 0 0 0 0 0 0 0 0 0 0 0 0 0 0 0 0 0 0.5 0" in="shadowInnerInner1"/>
        </filter>
        <path d="M27.96 17.678c.811-.324.675-.368 1.216-1.545.433-.907.814-1.297.8-2.677 0-1.353-.42-1.814-1.055-2.693-.61-.84-1.584-.88-2.193-.772-.352.054-.812.501-1.123 1.164a4.211 4.211 0 0 0-.38 1.61c-.04 1.598.096 2.207.46 3.29.434 1.272 1.49 1.935 2.275 1.623z" id="g"/>
        <filter x="-18.4%" y="-11.2%" width="136.8%" height="122.4%" filterUnits="objectBoundingBox" id="h">
            <feGaussianBlur stdDeviation=".375" in="SourceAlpha" result="shadowBlurInner1"/>
            <feOffset dy="1" in="shadowBlurInner1" result="shadowOffsetInner1"/>
            <feComposite in="shadowOffsetInner1" in2="SourceAlpha" operator="arithmetic" k2="-1" k3="1" result="shadowInnerInner1"/>
            <feColorMatrix values="0 0 0 0 0 0 0 0 0 0 0 0 0 0 0 0 0 0 0.5 0" in="shadowInnerInner1"/>
        </filter>
        <path d="M31.059 14.823c.988-.122 2.341.122 2.964.582.582.433.988.663 1.516.839 1.773.582 4.1.853 3.992 2.45-.122 1.908-.677 2.76-2.26 3.261-1.272.392-3.546 2.598-5.305 2.598-.785 0-1.882.041-2.518-.189-.609-.217-1.461-1.245-2.463-2.07-1.001-.813-1.935-1.679-1.962-2.816-.04-1.204.744-1.597 1.854-2.557.582-.515 1.637-1.367 2.368-1.746.677-.338 1.11-.27 1.814-.352z" id="i"/>
        <filter x="-10.3%" y="-15.4%" width="120.7%" height="130.7%" filterUnits="objectBoundingBox" id="j">
            <feGaussianBlur stdDeviation="1" in="SourceAlpha" result="shadowBlurInner1"/>
            <feOffset dx="1" in="shadowBlurInner1" result="shadowOffsetInner1"/>
            <feComposite in="shadowOffsetInner1" in2="SourceAlpha" operator="arithmetic" k2="-1" k3="1" result="shadowInnerInner1"/>
            <feColorMatrix values="0 0 0 0 0.733333333 0 0 0 0 0.466666667 0 0 0 0 0 0 0 0 1 0" in="shadowInnerInner1"/>
        </filter>
    </defs>
    <g fill="none" fill-rule="nonzero">
        <path fill="#191A1C" d="M0 0h110v110H0z"/>
        <path d="M77.818 66.473c-.796 3.28-4.816 10.571-7.914 14.923-.376.53-.703 1.076-1.055 1.738-.134.252-.68 1.323-.823 1.588-1.2 2.218-2.469 2.869-5.223 2.132-2.107-.565-3.49-.812-4.877-.88-1.152-.055-.662-.077-5.236.192-1.048.063-3.477.145-3.816.191-.533.073-.752.158-2.436.916-1.664.753-4.428-2.317-7.982-7.892-2.76-4.332-5.445-9.467-5.865-11.177-.111-.46-.42-1.626-.453-1.759-.132-.544-.184-.911-.165-1.29.042-.8.333-1.43 1.524-3.477.095-.164.188-.33.278-.498.558-1.044.946-1.992 1.58-3.748 1.224-3.393 1.76-4.647 3.024-6.638.282-.446.58-.886.9-1.333.269-.376 3.204-4.095 3.733-5.035.535-.952.767-1.802.704-2.707-.673-9.25-.747-10.857-.432-13.599.407-3.552 1.701-5.752 4.369-7.142 4.176-2.167 8.137-1.803 11.2-.158.66.356.637.343.925.514.43.255.826.523 1.204.82.458.361.868.752 1.222 1.178 1.192 1.403 2.147 3.427 2.677 5.787.455 1.978.507 2.87.369 4.148l-.007.067c-.145 1.328-.089 2.244.437 4.557.687 3.045 1.747 5.29 3.614 8.014.56.816 2.755 3.822 3.169 4.408 3.741 5.3 6.317 12.26 5.355 16.16z" stroke-opacity=".15" stroke="#FFF" fill="#000"/>
        <g transform="translate(20 20)">
            <use fill="#FC0" xlink:href="#a"/>
            <use fill="#000" filter="url(#b)" xlink:href="#a"/>
        </g>
        <g transform="translate(20 20)">
            <use fill="#FC0" xlink:href="#c"/>
            <use fill="#000" filter="url(#d)" xlink:href="#c"/>
        </g>
        <g transform="translate(20 20)">
            <use fill="#FFF" xlink:href="#e"/>
            <use fill="#000" filter="url(#f)" xlink:href="#e"/>
        </g>
        <g transform="translate(20 20)">
            <use fill="#FFF" xlink:href="#g"/>
            <use fill="#000" filter="url(#h)" xlink:href="#g"/>
        </g>
        <path d="M47.202 32.17c.406 0 .92.271 1.163.636.258.366.447.88.447 1.462 0 .866-.095 1.827-.609 2.125-.162.095-.514.176-.717.176-.46 0-.5-.298-.934-.744-.149-.163-.595-.948-.595-1.597 0-.406-.095-.988.257-1.503.243-.379.555-.555.988-.555zm8.986-.054c1.015 0 1.61.907 1.814 2.07.08.529-.04 1.138-.366 1.557-.365.488-1.015.785-1.543.785-.5 0-1.069.081-1.366-.325-.298-.42-.366-1.353-.366-2.016 0-.744.217-1.272.596-1.692.284-.311.798-.379 1.231-.379z" fill="#000"/>
        <path d="M47.225 33.031c.133-.205.663-.108.856.313.193.422.157 1.338.024 1.387-.349.108-.24-.398-.542-.856-.301-.434-.47-.639-.338-.844zm9.103-.387c.146-.115.418 0 .719.34.326.366.416.653.078.862-.279.178-.376-.314-.553-.51-.288-.308-.536-.467-.244-.692z" fill-opacity=".45" fill="#FFF"/>
        <path d="M50.125 44.107c-1.76.068-4.547-4.859-4.615-2.815-.054 1.732.04 1.705.04 3.383 0 1.124-.514 1.205-1.623 2.897A14.327 14.327 0 0 0 42.56 50.4a21.15 21.15 0 0 0-.582 1.787c-.068.297-.19.609-.257.907-.555 2.043-2.531 4.56-2.991 6.604-.46 2.03-1.002 3.33-.934 6.05.067 2.72.094 1.935.92 2.612.812.677 1.651 1.312 2.937 2.45 1.353 1.177 4.168 3.234 4.547 3.87.406.65.393 2.111.15 2.585-.245.46-2.37.717-2.356.717-.013 0 1.854 2.572 2.22 2.937.352.352 1.868 2.044 8.039.893 3.478-.65 6.171-2.598 8.12-4.48 2.518-2.449 1.245-3.153 1.57-4.384.474-1.773 2.017-2.436 2.369-4.44.04-.283.135-.5.392-.92.393-.595.298-1.772.298-2.855 0-2.815-.325-5.684-.975-7.795-.595-1.976-1.542-3.357-2.354-5.143-1.624-3.56-1.543-5.157-2.991-7.43-1.651-2.626-.84-4.372-3.032-4.264-2.734.149-4.94 3.898-7.525 4.006z" fill="#DDD"/>
        <path d="M50.076 47.166c-1.536.047-3.29-3.91-3.74-3.389-.133.433-.287.595-.484 1.26-.425.825-1.125 1.852-1.867 3.104-.537.925-.659 1.708-.579 2.346.302 1.024 1.475 1.433 1.296 1.849-.224.46-1.568.458-2.562 1.52-1.402 1.784-2.755 4.33-3.127 5.876-.51 2.058-1.12 3.281-.915 5.926.086 1.39-.213 1.6.576 2.39.706.723 1.805 1.553 3.044 2.647 1.306 1.133 4.34 3.257 4.691 3.86.378.617.513 2.354.294 2.789-.209.43-2.31.88-2.296.88-.014 0 1.717 2.252 2.075 2.61.345.345 1.77 1.864 7.785.757 3.535-.647 6.993-2.397 7.776-4.546.817-1.689-.212-3.148.087-4.286.454-1.726 3.564-2.435 3.9-4.397.039-.268.23-.47.463-.862.414-.692.232-1.815.291-2.837.188-2.954-.259-5.666-.905-7.685-.603-1.895-1.53-3.248-2.316-4.987-1.581-3.477-1.58-5.11-3.048-7.278-1.094-1.624-1.227-2.475-2.703-2.32-2.263.245-5.214 4.687-7.736 4.773z" fill="#FFF"/>
        <g transform="translate(20 20)">
            <use fill="#FC0" xlink:href="#i"/>
            <use fill="#000" filter="url(#j)" xlink:href="#i"/>
        </g>
        <path d="M45.952 40.54c.372.258.382.303.93.661.872.709 2.422.868 3.181.893 1.736.276 4.838-1.346 6.066-2.088.619-.463 1.764-1.42 2.192-1.436.264.28-.124.337-.674.71-.735.522-1.363.969-2.476 1.6-1.192.624-3.022 1.653-5.366 1.514-1.23-.18-1.235-.192-1.994-.58-.451-.325-1.485-.866-1.859-1.273zM51.895 35.757c-.08-.192.859-.162 1.05-.03.203.13.355.495.153.606-.091.05-.223.02-.455-.111-.243-.132-.606-.172-.748-.465zm-2.997.444c.047-.118.047-.33.576-.423.529-.094.646.058.329.27-.07.047-.282.188-.458.34-.165.153-.494-.07-.447-.187z" fill="#B80"/>
        <path d="M57.262 51.836c.12-.405 3.513-.837 4.214-.644.696.193 3.594 4.056 3.032 4.29-.563.229-1.578-1.54-3.36-2.362-1.78-.822-4.006-.876-3.886-1.284zm-8.907 9.34c.195.089-.095 2.272-.139 4.45-.044 2.18.258 3.307.098 3.494-.151.178-.616-.956-.563-3.144.044-2.18.41-4.89.604-4.8zm1.409-9.65c.23.026 1.649-.294 1.7-.166.051.102-.882.384-1.189.703-.102.103-.37.346-.537.32-.128-.013-.205-.281-.396-.486-.46-.46-.755-.422-.665-.6.076-.141.69.19 1.087.23z" fill-opacity=".15" fill="#000"/>
        <path d="M57.045 23.036c.294-.637 2.432.866 1.97 1.258-.456.28-1.523.563-1.988.84-.475.283-.188-1.68.018-2.098zm-9.193 6.016c.122-.222.997-.212 1.66.536.458.515.75.952.455 1.125-.407.243-.447-.393-.869-.76-.347-.299-1.373-.642-1.246-.901zM57 28.714c.012-.117.728-.07 1.17.097.523.205.846.634 1.01.881.17.247.513.777.398.959-.119.198-.662-.584-.9-.854-.24-.276-.753-.643-1.017-.736-.263-.103-.674-.2-.661-.347zm5.098 11.73c.17-.195.469-.22.898.196.43.416.899.273 1.263.69.365.417.847 1.015.247 1.653-.312.339-.78.339-1.549-.43-.768-.78-.976-1.965-.859-2.108z" fill-opacity=".15" fill="#FFF"/>
    </g>
</svg>
