#define copy_width 16
#define copy_height 15
static unsigned char copy_bits[] = {
   0x00, 0x00, 0x7e, 0x00, 0xc2, 0x00, 0x42, 0x01, 0xda, 0x0f, 0x82, 0x30,
   0xfa, 0xd0, 0x82, 0xf6, 0xfa, 0x80, 0x82, 0xbe, 0xfe, 0x80, 0x80, 0xbe,
   0x80, 0x80, 0x80, 0xff, 0x00, 0x00};
