#define cut_width 16
#define cut_height 15
static unsigned char cut_bits[] = {
   0x00, 0x00, 0x20, 0x02, 0x20, 0x02, 0x20, 0x02, 0x60, 0x03, 0x40, 0x01,
   0xc0, 0x01, 0x80, 0x00, 0xc0, 0x00, 0x40, 0x07, 0x70, 0x09, 0x48, 0x09,
   0x48, 0x09, 0x48, 0x06, 0x30, 0x00};
