#define help_width 16
#define help_height 15
static unsigned char help_bits[] = {
   0x00, 0x00, 0x00, 0x00, 0xc0, 0x01, 0xe0, 0x03, 0x30, 0x06, 0x30, 0x06,
   0x00, 0x06, 0x00, 0x03, 0x80, 0x01, 0x80, 0x01, 0x00, 0x00, 0x80, 0x01,
   0x80, 0x01, 0x00, 0x00, 0x00, 0x00};
