#define tick_no_width 11
#define tick_no_height 11
static unsigned char tick_no_bits[] = {
   0x00, 0x00, 0x00, 0x00, 0x06, 0x03, 0x8c, 0x01, 0xd8, 0x00, 0x70, 0x00,
   0xd8, 0x00, 0x8c, 0x01, 0x06, 0x03, 0x00, 0x00, 0x00, 0x00};
