#define tick_yes_width 11
#define tick_yes_height 11
static unsigned char tick_yes_bits[] = {
   0x00, 0x00, 0x00, 0x00, 0x00, 0x01, 0x80, 0x01, 0xc4, 0x01, 0xec, 0x00,
   0x7c, 0x00, 0x38, 0x00, 0x10, 0x00, 0x00, 0x00, 0x00, 0x00};
